# Alias OBJ Model File
# Exported from SketchUp, (c) 2000-2012 Trimble Navigation Limited
# File units = millimeters

mtllib 1.mtl

g Mesh1 Model

usemtl FrontColor
v -32.9131 0 2.3933
vt 0.169581 0.18395
vn 0.98697 0.144015 -0.0717683
v -40.1705 50 2.92103
vt 0.206974 2.17284
v -38.0457 50 13.2184
vt -0.206974 2.17284
vn 0.934764 0.144015 -0.324769
v -31.1722 0 10.8303
vt -0.169581 0.18395
f 1/1/1 2/2/1 3/3/2 4/4/2 

v -39.9755 50 -0.420441
vt -0.0751963 2.17284
vn 0.988068 0.142808 0.0576812
v -32.7734 0 -7.04992e-15
vt -0.0751963 0.18395
v -32.411 0 -6.20678
vn 0.971914 0.144015 0.186124
v -39.5578 50 -7.57539
f 5/5/3 2/3/1 1/4/1 6/6/3 7/1/4 8/2/4 

vt 1.57384 0.0165528
vn 0 -1 -0
vt 1.49786 -0.520409
vt 1.58152 -0.115001
f 5/7/5 3/8/5 2/9/5

vt 1.55739 0.298244
f 3/8/5 5/7/5 8/10/5

v -36.2492 50 -17.5556
vt 1.42713 0.691164
f 3/8/5 8/10/5 9/11/5

v -29.7002 0 -14.3839
vn 0.890625 0.144015 0.431332
f 10/1/6 9/2/6 8/3/4 7/4/4 

v -24.9654 0 -21.5808
vn 0.748641 0.144015 0.647145
v -30.4703 50 -26.3394
f 11/1/7 12/2/7 9/3/6 10/4/6 

v -18.5292 0 -27.3069
vn 0.555638 0.144015 0.818857
v -22.615 50 -33.3282
f 13/1/8 14/2/8 12/3/7 11/4/7 

v -10.8303 0 -31.1722
vn 0.324769 0.144015 0.934764
v -13.2184 50 -38.0457
f 15/1/9 16/2/9 14/3/8 13/4/8 

v -2.3933 0 -32.9131
vn 0.0717683 0.144015 0.98697
v -2.92103 50 -40.1705
f 17/1/10 18/2/10 16/3/9 15/4/9 

v 6.20678 0 -32.411
vn -0.186124 0.144015 0.971914
v 7.57539 50 -39.5578
f 19/1/11 20/2/11 18/3/10 17/4/10 

v 14.3839 0 -29.7002
vn -0.431332 0.144015 0.890625
v 17.5556 50 -36.2492
f 21/1/12 22/2/12 20/3/11 19/4/11 

v 21.5808 0 -24.9654
vn -0.647145 0.144015 0.748641
v 26.3394 50 -30.4703
f 23/1/13 24/2/13 22/3/12 21/4/12 

v 27.3069 0 -18.5292
vn -0.818857 0.144015 0.555638
v 33.3282 50 -22.615
f 25/1/14 26/2/14 24/3/13 23/4/13 

v 31.1722 0 -10.8303
vn -0.934764 0.144015 0.324769
v 38.0457 50 -13.2184
f 27/1/15 28/2/15 26/3/14 25/4/14 

v 32.9131 0 -2.3933
vn -0.98697 0.144015 0.0717683
v 40.1705 50 -2.92103
f 29/1/16 30/2/16 28/3/15 27/4/15 

v 32.411 0 6.20678
vn -0.971914 0.144015 -0.186124
v 39.5578 50 7.57539
f 31/1/17 32/2/17 30/3/16 29/4/16 

v 29.7002 0 14.3839
vn -0.890625 0.144015 -0.431332
v 36.2492 50 17.5556
f 33/1/18 34/2/18 32/3/17 31/4/17 

v 24.9654 0 21.5808
vn -0.748641 0.144015 -0.647145
v 30.4703 50 26.3394
f 35/1/19 36/2/19 34/3/18 33/4/18 

v 18.5292 0 27.3069
vn -0.555638 0.144015 -0.818857
v 22.615 50 33.3282
f 37/1/20 38/2/20 36/3/19 35/4/19 

v 10.8303 0 31.1722
vn -0.324769 0.144015 -0.934764
v 13.2184 50 38.0457
f 39/1/21 40/2/21 38/3/20 37/4/20 

v 2.3933 0 32.9131
vn -0.0717683 0.144015 -0.98697
v 2.92103 50 40.1705
f 41/1/22 42/2/22 40/3/21 39/4/21 

v -6.20678 0 32.411
vn 0.186124 0.144015 -0.971914
v -7.57539 50 39.5578
f 43/1/23 44/2/23 42/3/22 41/4/22 

v -14.3839 0 29.7002
vn 0.431332 0.144015 -0.890625
v -17.5556 50 36.2492
f 45/1/24 46/2/24 44/3/23 43/4/23 

v -21.5808 0 24.9654
vn 0.647145 0.144015 -0.748641
v -26.3394 50 30.4703
f 47/1/25 48/2/25 46/3/24 45/4/24 

v -27.3069 0 18.5292
vn 0.818857 0.144015 -0.555638
v -33.3282 50 22.615
f 49/1/26 50/2/26 48/3/25 47/4/25 

f 4/1/2 3/2/2 50/3/26 49/4/26 

vt 1.31213 -0.890352
f 3/8/5 9/11/5 50/12/5

vt 1.19962 1.03698
f 50/12/5 9/11/5 12/13/5

vt 1.03698 -1.19962
f 50/12/5 12/13/5 48/14/5

vt 0.890352 1.31213
f 48/14/5 12/13/5 14/15/5

v -21.9274 50 -1.78576
vt 0.863284 0.0703057
f 48/14/5 14/15/5 51/16/5

v -20.7181 50 -7.40015
vt 0.815671 0.291344
f 14/15/5 52/17/5 51/16/5

vt 0.520409 1.49786
f 52/17/5 14/15/5 16/18/5

v -18.0968 50 -12.5102
vt 0.712473 0.492528
f 52/17/5 16/18/5 53/19/5

v -14.2423 50 -16.7677
vt 0.56072 0.660147
f 53/19/5 16/18/5 54/20/5

v -9.41718 50 -19.8826
vt 0.370755 0.782778
f 54/20/5 16/18/5 55/21/5

vt 0.115001 1.58152
f 55/21/5 16/18/5 18/22/5

v -3.95031 50 -21.6424
vt 0.155524 0.852064
f 55/21/5 18/22/5 56/23/5

v 1.78576 50 -21.9274
vt -0.0703057 0.863284
f 56/23/5 18/22/5 57/24/5

vt -0.298244 1.55739
f 57/24/5 18/22/5 20/25/5

v 7.40015 50 -20.7181
vt -0.291344 0.815671
f 57/24/5 20/25/5 58/26/5

v 12.5102 50 -18.0968
vt -0.492528 0.712473
f 58/26/5 20/25/5 59/27/5

vt -0.691164 1.42713
f 59/27/5 20/25/5 22/28/5

v 16.7677 50 -14.2423
vt -0.660147 0.56072
f 59/27/5 22/28/5 60/29/5

v 19.8826 50 -9.41718
vt -0.782778 0.370755
f 60/29/5 22/28/5 61/30/5

vt -1.03698 1.19962
f 61/30/5 22/28/5 24/31/5

v 21.6424 50 -3.95031
vt -0.852064 0.155524
f 61/30/5 24/31/5 62/32/5

v 21.9274 50 1.78576
vt -0.863284 -0.0703057
f 62/32/5 24/31/5 63/33/5

vt -0.890352 -1.31213
f 63/33/5 24/31/5 38/34/5

vt -1.19962 -1.03698
f 38/34/5 24/31/5 36/35/5

vt -1.31213 0.890352
f 36/35/5 24/31/5 26/36/5

vt -1.42713 -0.691164
f 36/35/5 26/36/5 34/37/5

vt -1.49786 0.520409
f 34/37/5 26/36/5 28/38/5

vt -1.55739 -0.298244
f 34/37/5 28/38/5 32/39/5

vt -1.58152 0.115001
f 32/39/5 28/38/5 30/40/5

v 20.7181 50 7.40015
vt -0.815671 -0.291344
f 38/34/5 64/41/5 63/33/5

v 18.0968 50 12.5102
vt -0.712473 -0.492528
f 38/34/5 65/42/5 64/41/5

v 14.2423 50 16.7677
vt -0.56072 -0.660147
f 38/34/5 66/43/5 65/42/5

vt -0.520409 -1.49786
f 40/44/5 66/43/5 38/34/5

v 9.41718 50 19.8826
vt -0.370755 -0.782778
f 40/44/5 67/45/5 66/43/5

v 3.95031 50 21.6424
vt -0.155524 -0.852064
f 40/44/5 68/46/5 67/45/5

vt -0.115001 -1.58152
f 42/47/5 68/46/5 40/44/5

v -1.78576 50 21.9274
vt 0.0703057 -0.863284
f 42/47/5 69/48/5 68/46/5

v -7.40015 50 20.7181
vt 0.291344 -0.815671
f 42/47/5 70/49/5 69/48/5

vt 0.298244 -1.55739
f 44/50/5 70/49/5 42/47/5

v -12.5102 50 18.0968
vt 0.492528 -0.712473
f 44/50/5 71/51/5 70/49/5

v -16.7677 50 14.2423
vt 0.660147 -0.56072
f 44/50/5 72/52/5 71/51/5

vt 0.691164 -1.42713
f 46/53/5 72/52/5 44/50/5

v -19.8826 50 9.41718
vt 0.782778 -0.370755
f 46/53/5 73/54/5 72/52/5

v -21.6424 50 3.95031
vt 0.852064 -0.155524
f 46/53/5 74/55/5 73/54/5

f 48/14/5 74/55/5 46/53/5

f 48/14/5 51/16/5 74/55/5

v -21.9274 0 -1.78576
vt -0.113054 0
vn -0.9967 0 -0.0811711
v -21.6424 0 3.95031
vt 0.113054 0
vn -0.983747 0 0.17956
vt 0.113054 1.9685
vt -0.113054 1.9685
f 75/56/27 76/57/28 74/58/28 51/59/27 

vt -0.863284 0.0703057
vn 0 1 -0
vt -0.849636 -0.98289
vt -0.852064 -0.155524
f 75/60/29 47/61/29 76/62/29

vt -0.98289 0.849636
f 11/63/29 47/61/29 75/60/29

vt -1.07508 -0.729497
f 11/63/29 49/64/29 47/61/29

vt -1.1693 0.566295
f 10/65/29 49/64/29 11/63/29

vt -1.22725 -0.426389
f 10/65/29 4/66/29 49/64/29

vt -1.27603 0.244362
f 7/67/29 4/66/29 10/65/29

vt -1.29029 2.77556e-16
f 6/68/29 4/66/29 7/67/29

vt -1.29579 -0.0942246
f 4/66/29 6/68/29 1/69/29

vt -0.729497 1.07508
f 75/60/29 13/70/29 11/63/29

v -20.7181 0 -7.40015
vt -0.815671 0.291344
f 13/70/29 75/60/29 77/71/29

vn -0.94173 0 -0.33637
f 77/56/30 75/57/27 51/58/27 52/59/30 

v -18.0968 0 -12.5102
vn -0.822582 0 -0.568646
f 78/56/31 77/57/30 52/58/30 53/59/31 

vt -0.712473 0.492528
f 13/70/29 77/71/29 78/72/29

vt -0.426389 1.22725
f 13/70/29 78/72/29 15/73/29

v -14.2423 0 -16.7677
vt -0.56072 0.660147
f 15/73/29 78/72/29 79/74/29

vn -0.647377 0 -0.76217
f 79/56/32 78/57/31 53/58/31 54/59/32 

v -9.41718 0 -19.8826
vn -0.428054 0 -0.903753
f 80/56/33 79/57/32 54/58/32 55/59/33 

vt -0.370755 0.782778
f 15/73/29 79/74/29 80/75/29

vt -0.0942246 1.29579
f 15/73/29 80/75/29 17/76/29

v -3.95031 0 -21.6424
vt -0.155524 0.852064
f 17/76/29 80/75/29 81/77/29

vn -0.17956 0 -0.983747
f 81/56/34 80/57/33 55/58/33 56/59/34 

v 1.78576 0 -21.9274
vn 0.0811711 0 -0.9967
f 82/56/35 81/57/34 56/58/34 57/59/35 

vt 0.0703057 0.863284
f 17/76/29 81/77/29 82/78/29

vt 0.244362 1.27603
f 17/76/29 82/78/29 19/79/29

v 7.40015 0 -20.7181
vt 0.291344 0.815671
f 19/79/29 82/78/29 83/80/29

vn 0.33637 0 -0.94173
f 83/56/36 82/57/35 57/58/35 58/59/36 

v 12.5102 0 -18.0968
vn 0.568646 0 -0.822582
f 84/56/37 83/57/36 58/58/36 59/59/37 

vt 0.566295 1.1693
vt 0.492528 0.712473
f 21/81/29 83/80/29 84/82/29

f 19/79/29 83/80/29 21/81/29

v 16.7677 0 -14.2423
vt 0.660147 0.56072
f 21/81/29 84/82/29 85/83/29

vn 0.76217 0 -0.647377
f 85/56/38 84/57/37 59/58/37 60/59/38 

v 19.8826 0 -9.41718
vn 0.903753 0 -0.428054
f 86/56/39 85/57/38 60/58/38 61/59/39 

vt 0.849636 0.98289
vt 0.782778 0.370755
f 23/84/29 85/83/29 86/85/29

f 21/81/29 85/83/29 23/84/29

v 21.6424 0 -3.95031
vt 0.852064 0.155524
f 23/84/29 86/85/29 87/86/29

vn 0.983747 0 -0.17956
f 87/56/40 86/57/39 61/58/39 62/59/40 

v 21.9274 0 1.78576
vn 0.9967 0 0.0811711
f 88/56/41 87/57/40 62/58/40 63/59/41 

vt 1.07508 0.729497
vt 0.863284 -0.0703057
f 25/87/29 87/86/29 88/88/29

f 23/84/29 87/86/29 25/87/29

vt 0.98289 -0.849636
f 25/87/29 88/88/29 35/89/29

v 20.7181 0 7.40015
vt 0.815671 -0.291344
f 89/90/29 35/89/29 88/88/29

vt 0.729497 -1.07508
f 89/90/29 37/91/29 35/89/29

v 18.0968 0 12.5102
vt 0.712473 -0.492528
f 90/92/29 37/91/29 89/90/29

v 14.2423 0 16.7677
vt 0.56072 -0.660147
f 91/93/29 37/91/29 90/92/29

vt 0.426389 -1.22725
f 91/93/29 39/94/29 37/91/29

v 9.41718 0 19.8826
vt 0.370755 -0.782778
f 92/95/29 39/94/29 91/93/29

v 3.95031 0 21.6424
vt 0.155524 -0.852064
f 93/96/29 39/94/29 92/95/29

vt 0.0942246 -1.29579
f 93/96/29 41/97/29 39/94/29

v -1.78576 0 21.9274
vt -0.0703057 -0.863284
f 94/98/29 41/97/29 93/96/29

vt -0.244362 -1.27603
f 94/98/29 43/99/29 41/97/29

v -7.40015 0 20.7181
vt -0.291344 -0.815671
f 95/100/29 43/99/29 94/98/29

v -12.5102 0 18.0968
vt -0.492528 -0.712473
f 96/101/29 43/99/29 95/100/29

vt -0.566295 -1.1693
f 96/101/29 45/102/29 43/99/29

v -16.7677 0 14.2423
vt -0.660147 -0.56072
f 97/103/29 45/102/29 96/101/29

v -19.8826 0 9.41718
vt -0.782778 -0.370755
f 98/104/29 45/102/29 97/103/29

f 98/104/29 47/61/29 45/102/29

f 76/62/29 47/61/29 98/104/29

vn -0.903753 0 0.428054
f 76/56/28 98/57/42 73/58/42 74/59/28 

vn -0.76217 0 0.647377
f 98/56/42 97/57/43 72/58/43 73/59/42 

vn -0.568646 0 0.822582
f 97/56/43 96/57/44 71/58/44 72/59/43 

vn -0.33637 0 0.94173
f 96/56/44 95/57/45 70/58/45 71/59/44 

vn -0.0811711 0 0.9967
f 95/56/45 94/57/46 69/58/46 70/59/45 

vn 0.17956 0 0.983747
f 94/56/46 93/57/47 68/58/47 69/59/46 

vn 0.428054 0 0.903753
f 93/56/47 92/57/48 67/58/48 68/59/47 

vn 0.647377 0 0.76217
f 92/56/48 91/57/49 66/58/49 67/59/48 

vn 0.822582 0 0.568646
f 91/56/49 90/57/50 65/58/50 66/59/49 

vn 0.94173 0 0.33637
f 90/56/50 89/57/51 64/58/51 65/59/50 

f 89/56/51 88/57/41 63/58/41 64/59/51 

vt 1.1693 -0.566295
f 25/87/29 35/89/29 33/105/29

vt 1.22725 0.426389
f 25/87/29 33/105/29 27/106/29

vt 1.27603 -0.244362
f 27/106/29 33/105/29 31/107/29

vt 1.29579 0.0942246
f 27/106/29 31/107/29 29/108/29

