solid Untitled-5ba373eb
facet normal 0.0 0.0 -1.0
  outer loop
    vertex -2.7499999999999987 4.763139720814412 0.0
    vertex -3.0 3.67394039744206e-16 0.0
    vertex -3.8890872965260113 3.8890872965260113 0.0
  endloop
endfacet
facet normal 0.0 0.0 -1.0
  outer loop
    vertex -3.0 3.67394039744206e-16 0.0
    vertex -2.7499999999999987 4.763139720814412 0.0
    vertex -2.8977774788672046 0.7764571353075631 0.0
  endloop
endfacet
facet normal 0.0 0.0 -1.0
  outer loop
    vertex -2.8977774788672046 0.7764571353075631 0.0
    vertex -2.7499999999999987 4.763139720814412 0.0
    vertex -2.5980762113533156 1.500000000000001 0.0
  endloop
endfacet
facet normal 0.0 0.0 -1.0
  outer loop
    vertex -2.5980762113533156 1.500000000000001 0.0
    vertex -2.7499999999999987 4.763139720814412 0.0
    vertex -1.4235047480638634 5.312592044589876 0.0
  endloop
endfacet
facet normal 0.0 0.0 -1.0
  outer loop
    vertex -2.5980762113533156 1.500000000000001 0.0
    vertex -1.4235047480638634 5.312592044589876 0.0
    vertex -2.1213203435596424 2.121320343559643 0.0
  endloop
endfacet
facet normal 0.0 0.0 -1.0
  outer loop
    vertex -2.1213203435596424 2.121320343559643 0.0
    vertex -1.4235047480638634 5.312592044589876 0.0
    vertex -1.4999999999999991 2.598076211353316 0.0
  endloop
endfacet
facet normal 0.0 0.0 -1.0
  outer loop
    vertex -1.4999999999999991 2.598076211353316 0.0
    vertex -1.4235047480638634 5.312592044589876 0.0
    vertex -0.7764571353075619 2.897777478867205 0.0
  endloop
endfacet
facet normal 0.0 0.0 -1.0
  outer loop
    vertex -0.7764571353075619 2.897777478867205 0.0
    vertex -1.4235047480638634 5.312592044589876 0.0
    vertex 3.367778697655221e-16 5.5 0.0
  endloop
endfacet
facet normal 0.0 0.0 -1.0
  outer loop
    vertex -0.7764571353075619 2.897777478867205 0.0
    vertex 3.367778697655221e-16 5.5 0.0
    vertex 1.8369701987210297e-16 3.0 0.0
  endloop
endfacet
facet normal 0.0 0.0 -1.0
  outer loop
    vertex 1.8369701987210297e-16 3.0 0.0
    vertex 3.367778697655221e-16 5.5 0.0
    vertex 0.7764571353075629 2.897777478867205 0.0
  endloop
endfacet
facet normal 0.0 0.0 -1.0
  outer loop
    vertex 0.7764571353075629 2.897777478867205 0.0
    vertex 3.367778697655221e-16 5.5 0.0
    vertex 1.4235047480638652 5.312592044589875 0.0
  endloop
endfacet
facet normal 0.0 0.0 -1.0
  outer loop
    vertex 0.7764571353075629 2.897777478867205 0.0
    vertex 1.4235047480638652 5.312592044589875 0.0
    vertex 1.5000000000000002 2.5980762113533156 0.0
  endloop
endfacet
facet normal 0.0 0.0 -1.0
  outer loop
    vertex 1.5000000000000002 2.5980762113533156 0.0
    vertex 1.4235047480638652 5.312592044589875 0.0
    vertex 2.7500000000000004 4.7631397208144115 0.0
  endloop
endfacet
facet normal 0.0 0.0 -1.0
  outer loop
    vertex 1.5000000000000002 2.5980762113533156 0.0
    vertex 2.7500000000000004 4.7631397208144115 0.0
    vertex 2.1213203435596424 2.121320343559643 0.0
  endloop
endfacet
facet normal 0.0 0.0 -1.0
  outer loop
    vertex 2.1213203435596424 2.121320343559643 0.0
    vertex 2.7500000000000004 4.7631397208144115 0.0
    vertex 2.5980762113533156 1.5 0.0
  endloop
endfacet
facet normal 0.0 0.0 -1.0
  outer loop
    vertex 2.5980762113533156 1.5 0.0
    vertex 2.7500000000000004 4.7631397208144115 0.0
    vertex 2.897777478867205 0.7764571353075622 0.0
  endloop
endfacet
facet normal 0.0 0.0 -1.0
  outer loop
    vertex 2.897777478867205 0.7764571353075622 0.0
    vertex 2.7500000000000004 4.7631397208144115 0.0
    vertex 3.8890872965260113 3.8890872965260113 0.0
  endloop
endfacet
facet normal 0.0 0.0 -1.0
  outer loop
    vertex 2.897777478867205 0.7764571353075622 0.0
    vertex 3.8890872965260113 3.8890872965260113 0.0
    vertex 3.0 0.0 0.0
  endloop
endfacet
facet normal 0.0 0.0 -1.0
  outer loop
    vertex 3.0 0.0 0.0
    vertex 3.8890872965260113 3.8890872965260113 0.0
    vertex 3.8890872965260104 -3.8890872965260117 0.0
  endloop
endfacet
facet normal 0.0 0.0 -1.0
  outer loop
    vertex 3.8890872965260104 -3.8890872965260117 0.0
    vertex 3.8890872965260113 3.8890872965260113 0.0
    vertex 4.7631397208144115 -2.750000000000002 0.0
  endloop
endfacet
facet normal 0.0 0.0 -1.0
  outer loop
    vertex 4.7631397208144115 -2.750000000000002 0.0
    vertex 3.8890872965260113 3.8890872965260113 0.0
    vertex 4.763139720814412 2.7499999999999996 0.0
  endloop
endfacet
facet normal 0.0 0.0 -1.0
  outer loop
    vertex 4.7631397208144115 -2.750000000000002 0.0
    vertex 4.763139720814412 2.7499999999999996 0.0
    vertex 5.312592044589874 -1.4235047480638685 0.0
  endloop
endfacet
facet normal 0.0 0.0 -1.0
  outer loop
    vertex 5.312592044589874 -1.4235047480638685 0.0
    vertex 4.763139720814412 2.7499999999999996 0.0
    vertex 5.312592044589876 1.4235047480638638 0.0
  endloop
endfacet
facet normal 0.0 0.0 -1.0
  outer loop
    vertex 5.312592044589874 -1.4235047480638685 0.0
    vertex 5.312592044589876 1.4235047480638638 0.0
    vertex 5.5 0.0 0.0
  endloop
endfacet
facet normal 0.0 0.0 -1.0
  outer loop
    vertex -5.312592044589875 1.4235047480638656 0.0
    vertex -5.312592044589876 -1.4235047480638618 0.0
    vertex -5.5 6.735557395310442e-16 0.0
  endloop
endfacet
facet normal 0.0 0.0 -1.0
  outer loop
    vertex -5.312592044589876 -1.4235047480638618 0.0
    vertex -5.312592044589875 1.4235047480638656 0.0
    vertex -4.763139720814413 -2.7499999999999987 0.0
  endloop
endfacet
facet normal 0.0 0.0 -1.0
  outer loop
    vertex -4.763139720814413 -2.7499999999999987 0.0
    vertex -5.312592044589875 1.4235047480638656 0.0
    vertex -4.7631397208144115 2.7500000000000018 0.0
  endloop
endfacet
facet normal 0.0 0.0 -1.0
  outer loop
    vertex -4.763139720814413 -2.7499999999999987 0.0
    vertex -4.7631397208144115 2.7500000000000018 0.0
    vertex -3.8890872965260135 -3.889087296526009 0.0
  endloop
endfacet
facet normal 0.0 0.0 -1.0
  outer loop
    vertex -3.8890872965260135 -3.889087296526009 0.0
    vertex -4.7631397208144115 2.7500000000000018 0.0
    vertex -3.8890872965260113 3.8890872965260113 0.0
  endloop
endfacet
facet normal 0.0 0.0 -1.0
  outer loop
    vertex -3.8890872965260135 -3.889087296526009 0.0
    vertex -3.8890872965260113 3.8890872965260113 0.0
    vertex -2.750000000000002 -4.7631397208144115 0.0
  endloop
endfacet
facet normal 0.0 0.0 -1.0
  outer loop
    vertex -2.750000000000002 -4.7631397208144115 0.0
    vertex -3.8890872965260113 3.8890872965260113 0.0
    vertex -3.0 3.67394039744206e-16 0.0
  endloop
endfacet
facet normal 0.0 0.0 -1.0
  outer loop
    vertex -2.750000000000002 -4.7631397208144115 0.0
    vertex -3.0 3.67394039744206e-16 0.0
    vertex -2.897777478867205 -0.7764571353075611 0.0
  endloop
endfacet
facet normal 0.0 0.0 -1.0
  outer loop
    vertex -2.750000000000002 -4.7631397208144115 0.0
    vertex -2.897777478867205 -0.7764571353075611 0.0
    vertex -2.598076211353316 -1.4999999999999991 0.0
  endloop
endfacet
facet normal 0.0 0.0 -1.0
  outer loop
    vertex -2.750000000000002 -4.7631397208144115 0.0
    vertex -2.598076211353316 -1.4999999999999991 0.0
    vertex -1.4235047480638683 -5.312592044589874 0.0
  endloop
endfacet
facet normal 0.0 0.0 -1.0
  outer loop
    vertex -1.4235047480638683 -5.312592044589874 0.0
    vertex -2.598076211353316 -1.4999999999999991 0.0
    vertex -2.1213203435596437 -2.1213203435596415 0.0
  endloop
endfacet
facet normal 0.0 0.0 -1.0
  outer loop
    vertex -1.4235047480638683 -5.312592044589874 0.0
    vertex -2.1213203435596437 -2.1213203435596415 0.0
    vertex -1.5000000000000013 -2.5980762113533156 0.0
  endloop
endfacet
facet normal 0.0 0.0 -1.0
  outer loop
    vertex -1.4235047480638683 -5.312592044589874 0.0
    vertex -1.5000000000000013 -2.5980762113533156 0.0
    vertex -0.7764571353075645 -2.8977774788672046 0.0
  endloop
endfacet
facet normal 0.0 0.0 -1.0
  outer loop
    vertex -1.4235047480638683 -5.312592044589874 0.0
    vertex -0.7764571353075645 -2.8977774788672046 0.0
    vertex -1.0103336092965664e-15 -5.5 0.0
  endloop
endfacet
facet normal 0.0 0.0 -1.0
  outer loop
    vertex -1.0103336092965664e-15 -5.5 0.0
    vertex -0.7764571353075645 -2.8977774788672046 0.0
    vertex -5.510910596163089e-16 -3.0 0.0
  endloop
endfacet
facet normal 0.0 0.0 -1.0
  outer loop
    vertex -1.0103336092965664e-15 -5.5 0.0
    vertex -5.510910596163089e-16 -3.0 0.0
    vertex 1.4235047480638616 -5.312592044589876 0.0
  endloop
endfacet
facet normal 0.0 0.0 -1.0
  outer loop
    vertex 1.4235047480638616 -5.312592044589876 0.0
    vertex -5.510910596163089e-16 -3.0 0.0
    vertex 0.7764571353075608 -2.897777478867205 0.0
  endloop
endfacet
facet normal 0.0 0.0 -1.0
  outer loop
    vertex 1.4235047480638616 -5.312592044589876 0.0
    vertex 0.7764571353075608 -2.897777478867205 0.0
    vertex 1.499999999999998 -2.5980762113533173 0.0
  endloop
endfacet
facet normal 0.0 0.0 -1.0
  outer loop
    vertex 1.4235047480638616 -5.312592044589876 0.0
    vertex 1.499999999999998 -2.5980762113533173 0.0
    vertex 2.7499999999999964 -4.763139720814415 0.0
  endloop
endfacet
facet normal 0.0 0.0 -1.0
  outer loop
    vertex 2.7499999999999964 -4.763139720814415 0.0
    vertex 1.499999999999998 -2.5980762113533173 0.0
    vertex 2.121320343559642 -2.1213203435596433 0.0
  endloop
endfacet
facet normal 0.0 0.0 -1.0
  outer loop
    vertex 2.7499999999999964 -4.763139720814415 0.0
    vertex 2.121320343559642 -2.1213203435596433 0.0
    vertex 2.598076211353315 -1.5000000000000016 0.0
  endloop
endfacet
facet normal 0.0 0.0 -1.0
  outer loop
    vertex 2.7499999999999964 -4.763139720814415 0.0
    vertex 2.598076211353315 -1.5000000000000016 0.0
    vertex 2.897777478867204 -0.7764571353075648 0.0
  endloop
endfacet
facet normal 0.0 0.0 -1.0
  outer loop
    vertex 2.7499999999999964 -4.763139720814415 0.0
    vertex 2.897777478867204 -0.7764571353075648 0.0
    vertex 3.8890872965260104 -3.8890872965260117 0.0
  endloop
endfacet
facet normal 0.0 0.0 -1.0
  outer loop
    vertex 3.8890872965260104 -3.8890872965260117 0.0
    vertex 2.897777478867204 -0.7764571353075648 0.0
    vertex 3.0 0.0 0.0
  endloop
endfacet
facet normal -0.0 -0.0 1.0
  outer loop
    vertex -5.312592044589876 -1.4235047480638618 3.0
    vertex -5.312592044589875 1.4235047480638656 3.0
    vertex -5.5 6.735557395310442e-16 3.0
  endloop
endfacet
facet normal -0.0 -0.0 1.0
  outer loop
    vertex -5.312592044589875 1.4235047480638656 3.0
    vertex -5.312592044589876 -1.4235047480638618 3.0
    vertex -4.763139720814413 -2.7499999999999987 3.0
  endloop
endfacet
facet normal -0.0 -0.0 1.0
  outer loop
    vertex -5.312592044589875 1.4235047480638656 3.0
    vertex -4.763139720814413 -2.7499999999999987 3.0
    vertex -4.7631397208144115 2.7500000000000018 3.0
  endloop
endfacet
facet normal -0.0 -0.0 1.0
  outer loop
    vertex -4.7631397208144115 2.7500000000000018 3.0
    vertex -4.763139720814413 -2.7499999999999987 3.0
    vertex -3.8890872965260135 -3.889087296526009 3.0
  endloop
endfacet
facet normal -0.0 -0.0 1.0
  outer loop
    vertex -4.7631397208144115 2.7500000000000018 3.0
    vertex -3.8890872965260135 -3.889087296526009 3.0
    vertex -3.8890872965260113 3.8890872965260113 3.0
  endloop
endfacet
facet normal -0.0 -0.0 1.0
  outer loop
    vertex -3.8890872965260113 3.8890872965260113 3.0
    vertex -3.8890872965260135 -3.889087296526009 3.0
    vertex -2.750000000000002 -4.7631397208144115 3.0
  endloop
endfacet
facet normal -0.0 -0.0 1.0
  outer loop
    vertex -3.8890872965260113 3.8890872965260113 3.0
    vertex -2.750000000000002 -4.7631397208144115 3.0
    vertex -3.0 3.67394039744206e-16 3.0
  endloop
endfacet
facet normal -0.0 -0.0 1.0
  outer loop
    vertex -3.0 3.67394039744206e-16 3.0
    vertex -2.750000000000002 -4.7631397208144115 3.0
    vertex -2.897777478867205 -0.7764571353075611 3.0
  endloop
endfacet
facet normal -0.0 -0.0 1.0
  outer loop
    vertex -2.897777478867205 -0.7764571353075611 3.0
    vertex -2.750000000000002 -4.7631397208144115 3.0
    vertex -2.598076211353316 -1.4999999999999991 3.0
  endloop
endfacet
facet normal -0.0 -0.0 1.0
  outer loop
    vertex -2.598076211353316 -1.4999999999999991 3.0
    vertex -2.750000000000002 -4.7631397208144115 3.0
    vertex -1.4235047480638683 -5.312592044589874 3.0
  endloop
endfacet
facet normal -0.0 -0.0 1.0
  outer loop
    vertex -2.598076211353316 -1.4999999999999991 3.0
    vertex -1.4235047480638683 -5.312592044589874 3.0
    vertex -2.1213203435596437 -2.1213203435596415 3.0
  endloop
endfacet
facet normal -0.0 -0.0 1.0
  outer loop
    vertex -2.1213203435596437 -2.1213203435596415 3.0
    vertex -1.4235047480638683 -5.312592044589874 3.0
    vertex -1.5000000000000013 -2.5980762113533156 3.0
  endloop
endfacet
facet normal -0.0 -0.0 1.0
  outer loop
    vertex -1.5000000000000013 -2.5980762113533156 3.0
    vertex -1.4235047480638683 -5.312592044589874 3.0
    vertex -0.7764571353075645 -2.8977774788672046 3.0
  endloop
endfacet
facet normal -0.0 -0.0 1.0
  outer loop
    vertex -0.7764571353075645 -2.8977774788672046 3.0
    vertex -1.4235047480638683 -5.312592044589874 3.0
    vertex -1.0103336092965664e-15 -5.5 3.0
  endloop
endfacet
facet normal -0.0 -0.0 1.0
  outer loop
    vertex -0.7764571353075645 -2.8977774788672046 3.0
    vertex -1.0103336092965664e-15 -5.5 3.0
    vertex -5.510910596163089e-16 -3.0 3.0
  endloop
endfacet
facet normal -0.0 -0.0 1.0
  outer loop
    vertex -5.510910596163089e-16 -3.0 3.0
    vertex -1.0103336092965664e-15 -5.5 3.0
    vertex 1.4235047480638616 -5.312592044589876 3.0
  endloop
endfacet
facet normal -0.0 -0.0 1.0
  outer loop
    vertex -5.510910596163089e-16 -3.0 3.0
    vertex 1.4235047480638616 -5.312592044589876 3.0
    vertex 0.7764571353075608 -2.897777478867205 3.0
  endloop
endfacet
facet normal -0.0 -0.0 1.0
  outer loop
    vertex 0.7764571353075608 -2.897777478867205 3.0
    vertex 1.4235047480638616 -5.312592044589876 3.0
    vertex 1.499999999999998 -2.5980762113533173 3.0
  endloop
endfacet
facet normal -0.0 -0.0 1.0
  outer loop
    vertex 1.499999999999998 -2.5980762113533173 3.0
    vertex 1.4235047480638616 -5.312592044589876 3.0
    vertex 2.7499999999999964 -4.763139720814415 3.0
  endloop
endfacet
facet normal -0.0 -0.0 1.0
  outer loop
    vertex 1.499999999999998 -2.5980762113533173 3.0
    vertex 2.7499999999999964 -4.763139720814415 3.0
    vertex 2.121320343559642 -2.1213203435596433 3.0
  endloop
endfacet
facet normal -0.0 -0.0 1.0
  outer loop
    vertex 2.121320343559642 -2.1213203435596433 3.0
    vertex 2.7499999999999964 -4.763139720814415 3.0
    vertex 2.598076211353315 -1.5000000000000016 3.0
  endloop
endfacet
facet normal -0.0 -0.0 1.0
  outer loop
    vertex 2.598076211353315 -1.5000000000000016 3.0
    vertex 2.7499999999999964 -4.763139720814415 3.0
    vertex 2.897777478867204 -0.7764571353075648 3.0
  endloop
endfacet
facet normal -0.0 -0.0 1.0
  outer loop
    vertex 2.897777478867204 -0.7764571353075648 3.0
    vertex 2.7499999999999964 -4.763139720814415 3.0
    vertex 3.8890872965260104 -3.8890872965260117 3.0
  endloop
endfacet
facet normal -0.0 -0.0 1.0
  outer loop
    vertex 2.897777478867204 -0.7764571353075648 3.0
    vertex 3.8890872965260104 -3.8890872965260117 3.0
    vertex 3.0 0.0 3.0
  endloop
endfacet
facet normal -0.0 -0.0 1.0
  outer loop
    vertex -3.0 3.67394039744206e-16 3.0
    vertex -2.7499999999999987 4.763139720814412 3.0
    vertex -3.8890872965260113 3.8890872965260113 3.0
  endloop
endfacet
facet normal -0.0 -0.0 1.0
  outer loop
    vertex -2.7499999999999987 4.763139720814412 3.0
    vertex -3.0 3.67394039744206e-16 3.0
    vertex -2.8977774788672046 0.7764571353075631 3.0
  endloop
endfacet
facet normal -0.0 -0.0 1.0
  outer loop
    vertex -2.7499999999999987 4.763139720814412 3.0
    vertex -2.8977774788672046 0.7764571353075631 3.0
    vertex -2.5980762113533156 1.500000000000001 3.0
  endloop
endfacet
facet normal -0.0 -0.0 1.0
  outer loop
    vertex -2.7499999999999987 4.763139720814412 3.0
    vertex -2.5980762113533156 1.500000000000001 3.0
    vertex -1.4235047480638634 5.312592044589876 3.0
  endloop
endfacet
facet normal -0.0 -0.0 1.0
  outer loop
    vertex -1.4235047480638634 5.312592044589876 3.0
    vertex -2.5980762113533156 1.500000000000001 3.0
    vertex -2.1213203435596424 2.121320343559643 3.0
  endloop
endfacet
facet normal -0.0 -0.0 1.0
  outer loop
    vertex -1.4235047480638634 5.312592044589876 3.0
    vertex -2.1213203435596424 2.121320343559643 3.0
    vertex -1.4999999999999991 2.598076211353316 3.0
  endloop
endfacet
facet normal -0.0 -0.0 1.0
  outer loop
    vertex -1.4235047480638634 5.312592044589876 3.0
    vertex -1.4999999999999991 2.598076211353316 3.0
    vertex -0.7764571353075619 2.897777478867205 3.0
  endloop
endfacet
facet normal -0.0 -0.0 1.0
  outer loop
    vertex -1.4235047480638634 5.312592044589876 3.0
    vertex -0.7764571353075619 2.897777478867205 3.0
    vertex 3.367778697655221e-16 5.5 3.0
  endloop
endfacet
facet normal -0.0 -0.0 1.0
  outer loop
    vertex 3.367778697655221e-16 5.5 3.0
    vertex -0.7764571353075619 2.897777478867205 3.0
    vertex 1.8369701987210297e-16 3.0 3.0
  endloop
endfacet
facet normal -0.0 -0.0 1.0
  outer loop
    vertex 3.367778697655221e-16 5.5 3.0
    vertex 1.8369701987210297e-16 3.0 3.0
    vertex 0.7764571353075629 2.897777478867205 3.0
  endloop
endfacet
facet normal -0.0 -0.0 1.0
  outer loop
    vertex 3.367778697655221e-16 5.5 3.0
    vertex 0.7764571353075629 2.897777478867205 3.0
    vertex 1.4235047480638652 5.312592044589875 3.0
  endloop
endfacet
facet normal -0.0 -0.0 1.0
  outer loop
    vertex 1.4235047480638652 5.312592044589875 3.0
    vertex 0.7764571353075629 2.897777478867205 3.0
    vertex 1.5000000000000002 2.5980762113533156 3.0
  endloop
endfacet
facet normal -0.0 -0.0 1.0
  outer loop
    vertex 1.4235047480638652 5.312592044589875 3.0
    vertex 1.5000000000000002 2.5980762113533156 3.0
    vertex 2.7500000000000004 4.7631397208144115 3.0
  endloop
endfacet
facet normal -0.0 -0.0 1.0
  outer loop
    vertex 2.7500000000000004 4.7631397208144115 3.0
    vertex 1.5000000000000002 2.5980762113533156 3.0
    vertex 2.1213203435596424 2.121320343559643 3.0
  endloop
endfacet
facet normal -0.0 -0.0 1.0
  outer loop
    vertex 2.7500000000000004 4.7631397208144115 3.0
    vertex 2.1213203435596424 2.121320343559643 3.0
    vertex 2.5980762113533156 1.5 3.0
  endloop
endfacet
facet normal -0.0 -0.0 1.0
  outer loop
    vertex 2.7500000000000004 4.7631397208144115 3.0
    vertex 2.5980762113533156 1.5 3.0
    vertex 2.897777478867205 0.7764571353075622 3.0
  endloop
endfacet
facet normal -0.0 -0.0 1.0
  outer loop
    vertex 2.7500000000000004 4.7631397208144115 3.0
    vertex 2.897777478867205 0.7764571353075622 3.0
    vertex 3.8890872965260113 3.8890872965260113 3.0
  endloop
endfacet
facet normal -0.0 -0.0 1.0
  outer loop
    vertex 3.8890872965260113 3.8890872965260113 3.0
    vertex 2.897777478867205 0.7764571353075622 3.0
    vertex 3.0 0.0 3.0
  endloop
endfacet
facet normal -0.0 -0.0 1.0
  outer loop
    vertex 3.8890872965260113 3.8890872965260113 3.0
    vertex 3.0 0.0 3.0
    vertex 3.8890872965260104 -3.8890872965260117 3.0
  endloop
endfacet
facet normal -0.0 -0.0 1.0
  outer loop
    vertex 3.8890872965260113 3.8890872965260113 3.0
    vertex 3.8890872965260104 -3.8890872965260117 3.0
    vertex 4.7631397208144115 -2.750000000000002 3.0
  endloop
endfacet
facet normal -0.0 -0.0 1.0
  outer loop
    vertex 3.8890872965260113 3.8890872965260113 3.0
    vertex 4.7631397208144115 -2.750000000000002 3.0
    vertex 4.763139720814412 2.7499999999999996 3.0
  endloop
endfacet
facet normal -0.0 -0.0 1.0
  outer loop
    vertex 4.763139720814412 2.7499999999999996 3.0
    vertex 4.7631397208144115 -2.750000000000002 3.0
    vertex 5.312592044589874 -1.4235047480638685 3.0
  endloop
endfacet
facet normal -0.0 -0.0 1.0
  outer loop
    vertex 4.763139720814412 2.7499999999999996 3.0
    vertex 5.312592044589874 -1.4235047480638685 3.0
    vertex 5.312592044589876 1.4235047480638638 3.0
  endloop
endfacet
facet normal -0.0 -0.0 1.0
  outer loop
    vertex 5.312592044589876 1.4235047480638638 3.0
    vertex 5.312592044589874 -1.4235047480638685 3.0
    vertex 5.5 0.0 3.0
  endloop
endfacet
facet normal 0.9914448613738106 0.1305261922200513 0.0
  outer loop
    vertex 5.312592044589876 1.4235047480638638 0.0
    vertex 5.5 0.0 3.0
    vertex 5.5 0.0 0.0
  endloop
endfacet
facet normal 0.9914448613738106 0.1305261922200513 0.0
  outer loop
    vertex 5.5 0.0 3.0
    vertex 5.312592044589876 1.4235047480638638 0.0
    vertex 5.312592044589876 1.4235047480638638 3.0
  endloop
endfacet
facet normal 0.9914448613738104 -0.13052619222005182 0.0
  outer loop
    vertex 5.5 0.0 0.0
    vertex 5.312592044589874 -1.4235047480638685 3.0
    vertex 5.312592044589874 -1.4235047480638685 0.0
  endloop
endfacet
facet normal 0.9914448613738104 -0.13052619222005182 0.0
  outer loop
    vertex 5.312592044589874 -1.4235047480638685 3.0
    vertex 5.5 0.0 0.0
    vertex 5.5 0.0 3.0
  endloop
endfacet
facet normal 0.9238795325112865 -0.3826834323650904 0.0
  outer loop
    vertex 5.312592044589874 -1.4235047480638685 0.0
    vertex 4.7631397208144115 -2.750000000000002 3.0
    vertex 4.7631397208144115 -2.750000000000002 0.0
  endloop
endfacet
facet normal 0.9238795325112865 -0.3826834323650904 0.0
  outer loop
    vertex 4.7631397208144115 -2.750000000000002 3.0
    vertex 5.312592044589874 -1.4235047480638685 0.0
    vertex 5.312592044589874 -1.4235047480638685 3.0
  endloop
endfacet
facet normal 0.793353340291235 -0.6087614290087211 0.0
  outer loop
    vertex 4.7631397208144115 -2.750000000000002 0.0
    vertex 3.8890872965260104 -3.8890872965260117 3.0
    vertex 3.8890872965260104 -3.8890872965260117 0.0
  endloop
endfacet
facet normal 0.793353340291235 -0.6087614290087211 0.0
  outer loop
    vertex 3.8890872965260104 -3.8890872965260117 3.0
    vertex 4.7631397208144115 -2.750000000000002 0.0
    vertex 4.7631397208144115 -2.750000000000002 3.0
  endloop
endfacet
facet normal 0.6087614290087204 -0.7933533402912353 0.0
  outer loop
    vertex 3.8890872965260104 -3.8890872965260117 3.0
    vertex 2.7499999999999964 -4.763139720814415 0.0
    vertex 3.8890872965260104 -3.8890872965260117 0.0
  endloop
endfacet
facet normal 0.6087614290087204 -0.7933533402912353 0.0
  outer loop
    vertex 2.7499999999999964 -4.763139720814415 0.0
    vertex 3.8890872965260104 -3.8890872965260117 3.0
    vertex 2.7499999999999964 -4.763139720814415 3.0
  endloop
endfacet
facet normal 0.3826834323650889 -0.9238795325112871 0.0
  outer loop
    vertex 2.7499999999999964 -4.763139720814415 3.0
    vertex 1.4235047480638616 -5.312592044589876 0.0
    vertex 2.7499999999999964 -4.763139720814415 0.0
  endloop
endfacet
facet normal 0.3826834323650889 -0.9238795325112871 0.0
  outer loop
    vertex 1.4235047480638616 -5.312592044589876 0.0
    vertex 2.7499999999999964 -4.763139720814415 3.0
    vertex 1.4235047480638616 -5.312592044589876 3.0
  endloop
endfacet
facet normal 0.1305261922200514 -0.9914448613738106 0.0
  outer loop
    vertex 1.4235047480638616 -5.312592044589876 3.0
    vertex -1.0103336092965664e-15 -5.5 0.0
    vertex 1.4235047480638616 -5.312592044589876 0.0
  endloop
endfacet
facet normal 0.1305261922200514 -0.9914448613738106 0.0
  outer loop
    vertex -1.0103336092965664e-15 -5.5 0.0
    vertex 1.4235047480638616 -5.312592044589876 3.0
    vertex -1.0103336092965664e-15 -5.5 3.0
  endloop
endfacet
facet normal -0.13052619222005193 -0.9914448613738104 -0.0
  outer loop
    vertex -1.0103336092965664e-15 -5.5 3.0
    vertex -1.4235047480638683 -5.312592044589874 0.0
    vertex -1.0103336092965664e-15 -5.5 0.0
  endloop
endfacet
facet normal -0.13052619222005193 -0.9914448613738104 -0.0
  outer loop
    vertex -1.4235047480638683 -5.312592044589874 0.0
    vertex -1.0103336092965664e-15 -5.5 3.0
    vertex -1.4235047480638683 -5.312592044589874 3.0
  endloop
endfacet
facet normal -0.3826834323650904 -0.9238795325112866 -0.0
  outer loop
    vertex -1.4235047480638683 -5.312592044589874 3.0
    vertex -2.750000000000002 -4.7631397208144115 0.0
    vertex -1.4235047480638683 -5.312592044589874 0.0
  endloop
endfacet
facet normal -0.3826834323650904 -0.9238795325112866 -0.0
  outer loop
    vertex -2.750000000000002 -4.7631397208144115 0.0
    vertex -1.4235047480638683 -5.312592044589874 3.0
    vertex -2.750000000000002 -4.7631397208144115 3.0
  endloop
endfacet
facet normal -0.6087614290087212 -0.7933533402912349 -0.0
  outer loop
    vertex -2.750000000000002 -4.7631397208144115 3.0
    vertex -3.8890872965260135 -3.889087296526009 0.0
    vertex -2.750000000000002 -4.7631397208144115 0.0
  endloop
endfacet
facet normal -0.6087614290087212 -0.7933533402912349 -0.0
  outer loop
    vertex -3.8890872965260135 -3.889087296526009 0.0
    vertex -2.750000000000002 -4.7631397208144115 3.0
    vertex -3.8890872965260135 -3.889087296526009 3.0
  endloop
endfacet
facet normal -0.7933533402912354 -0.6087614290087204 -0.0
  outer loop
    vertex -4.763139720814413 -2.7499999999999987 3.0
    vertex -3.8890872965260135 -3.889087296526009 0.0
    vertex -3.8890872965260135 -3.889087296526009 3.0
  endloop
endfacet
facet normal -0.7933533402912354 -0.6087614290087204 -0.0
  outer loop
    vertex -3.8890872965260135 -3.889087296526009 0.0
    vertex -4.763139720814413 -2.7499999999999987 3.0
    vertex -4.763139720814413 -2.7499999999999987 0.0
  endloop
endfacet
facet normal -0.923879532511287 -0.3826834323650893 -0.0
  outer loop
    vertex -5.312592044589876 -1.4235047480638618 3.0
    vertex -4.763139720814413 -2.7499999999999987 0.0
    vertex -4.763139720814413 -2.7499999999999987 3.0
  endloop
endfacet
facet normal -0.923879532511287 -0.3826834323650893 -0.0
  outer loop
    vertex -4.763139720814413 -2.7499999999999987 0.0
    vertex -5.312592044589876 -1.4235047480638618 3.0
    vertex -5.312592044589876 -1.4235047480638618 0.0
  endloop
endfacet
facet normal -0.9914448613738106 -0.13052619222005143 -0.0
  outer loop
    vertex -5.5 6.735557395310442e-16 3.0
    vertex -5.312592044589876 -1.4235047480638618 0.0
    vertex -5.312592044589876 -1.4235047480638618 3.0
  endloop
endfacet
facet normal -0.9914448613738106 -0.13052619222005143 -0.0
  outer loop
    vertex -5.312592044589876 -1.4235047480638618 0.0
    vertex -5.5 6.735557395310442e-16 3.0
    vertex -5.5 6.735557395310442e-16 0.0
  endloop
endfacet
facet normal -0.9914448613738104 0.13052619222005168 0.0
  outer loop
    vertex -5.312592044589875 1.4235047480638656 3.0
    vertex -5.5 6.735557395310442e-16 0.0
    vertex -5.5 6.735557395310442e-16 3.0
  endloop
endfacet
facet normal -0.9914448613738104 0.13052619222005168 0.0
  outer loop
    vertex -5.5 6.735557395310442e-16 0.0
    vertex -5.312592044589875 1.4235047480638656 3.0
    vertex -5.312592044589875 1.4235047480638656 0.0
  endloop
endfacet
facet normal -0.9238795325112866 0.3826834323650902 0.0
  outer loop
    vertex -4.7631397208144115 2.7500000000000018 3.0
    vertex -5.312592044589875 1.4235047480638656 0.0
    vertex -5.312592044589875 1.4235047480638656 3.0
  endloop
endfacet
facet normal -0.9238795325112866 0.3826834323650902 0.0
  outer loop
    vertex -5.312592044589875 1.4235047480638656 0.0
    vertex -4.7631397208144115 2.7500000000000018 3.0
    vertex -4.7631397208144115 2.7500000000000018 0.0
  endloop
endfacet
facet normal -0.7933533402912352 0.6087614290087208 0.0
  outer loop
    vertex -3.8890872965260113 3.8890872965260113 3.0
    vertex -4.7631397208144115 2.7500000000000018 0.0
    vertex -4.7631397208144115 2.7500000000000018 3.0
  endloop
endfacet
facet normal -0.7933533402912352 0.6087614290087208 0.0
  outer loop
    vertex -4.7631397208144115 2.7500000000000018 0.0
    vertex -3.8890872965260113 3.8890872965260113 3.0
    vertex -3.8890872965260113 3.8890872965260113 0.0
  endloop
endfacet
facet normal -0.6087614290087204 0.7933533402912354 0.0
  outer loop
    vertex -3.8890872965260113 3.8890872965260113 3.0
    vertex -2.7499999999999987 4.763139720814412 0.0
    vertex -3.8890872965260113 3.8890872965260113 0.0
  endloop
endfacet
facet normal -0.6087614290087204 0.7933533402912354 0.0
  outer loop
    vertex -2.7499999999999987 4.763139720814412 0.0
    vertex -3.8890872965260113 3.8890872965260113 3.0
    vertex -2.7499999999999987 4.763139720814412 3.0
  endloop
endfacet
facet normal -0.3826834323650901 0.9238795325112868 0.0
  outer loop
    vertex -2.7499999999999987 4.763139720814412 3.0
    vertex -1.4235047480638634 5.312592044589876 0.0
    vertex -2.7499999999999987 4.763139720814412 0.0
  endloop
endfacet
facet normal -0.3826834323650901 0.9238795325112868 0.0
  outer loop
    vertex -1.4235047480638634 5.312592044589876 0.0
    vertex -2.7499999999999987 4.763139720814412 3.0
    vertex -1.4235047480638634 5.312592044589876 3.0
  endloop
endfacet
facet normal -0.1305261922200513 0.9914448613738105 0.0
  outer loop
    vertex -1.4235047480638634 5.312592044589876 3.0
    vertex 3.367778697655221e-16 5.5 0.0
    vertex -1.4235047480638634 5.312592044589876 0.0
  endloop
endfacet
facet normal -0.1305261922200513 0.9914448613738105 0.0
  outer loop
    vertex 3.367778697655221e-16 5.5 0.0
    vertex -1.4235047480638634 5.312592044589876 3.0
    vertex 3.367778697655221e-16 5.5 3.0
  endloop
endfacet
facet normal 0.13052619222005168 0.9914448613738104 0.0
  outer loop
    vertex 3.367778697655221e-16 5.5 3.0
    vertex 1.4235047480638652 5.312592044589875 0.0
    vertex 3.367778697655221e-16 5.5 0.0
  endloop
endfacet
facet normal 0.13052619222005168 0.9914448613738104 0.0
  outer loop
    vertex 1.4235047480638652 5.312592044589875 0.0
    vertex 3.367778697655221e-16 5.5 3.0
    vertex 1.4235047480638652 5.312592044589875 3.0
  endloop
endfacet
facet normal 0.3826834323650901 0.9238795325112868 0.0
  outer loop
    vertex 1.4235047480638652 5.312592044589875 3.0
    vertex 2.7500000000000004 4.7631397208144115 0.0
    vertex 1.4235047480638652 5.312592044589875 0.0
  endloop
endfacet
facet normal 0.3826834323650901 0.9238795325112868 0.0
  outer loop
    vertex 2.7500000000000004 4.7631397208144115 0.0
    vertex 1.4235047480638652 5.312592044589875 3.0
    vertex 2.7500000000000004 4.7631397208144115 3.0
  endloop
endfacet
facet normal 0.6087614290087207 0.793353340291235 0.0
  outer loop
    vertex 2.7500000000000004 4.7631397208144115 3.0
    vertex 3.8890872965260113 3.8890872965260113 0.0
    vertex 2.7500000000000004 4.7631397208144115 0.0
  endloop
endfacet
facet normal 0.6087614290087207 0.793353340291235 0.0
  outer loop
    vertex 3.8890872965260113 3.8890872965260113 0.0
    vertex 2.7500000000000004 4.7631397208144115 3.0
    vertex 3.8890872965260113 3.8890872965260113 3.0
  endloop
endfacet
facet normal 0.7933533402912352 0.6087614290087207 0.0
  outer loop
    vertex 3.8890872965260113 3.8890872965260113 0.0
    vertex 4.763139720814412 2.7499999999999996 3.0
    vertex 4.763139720814412 2.7499999999999996 0.0
  endloop
endfacet
facet normal 0.7933533402912352 0.6087614290087207 0.0
  outer loop
    vertex 4.763139720814412 2.7499999999999996 3.0
    vertex 3.8890872965260113 3.8890872965260113 0.0
    vertex 3.8890872965260113 3.8890872965260113 3.0
  endloop
endfacet
facet normal 0.9238795325112867 0.38268343236509 0.0
  outer loop
    vertex 4.763139720814412 2.7499999999999996 0.0
    vertex 5.312592044589876 1.4235047480638638 3.0
    vertex 5.312592044589876 1.4235047480638638 0.0
  endloop
endfacet
facet normal 0.9238795325112867 0.38268343236509 0.0
  outer loop
    vertex 5.312592044589876 1.4235047480638638 3.0
    vertex 4.763139720814412 2.7499999999999996 0.0
    vertex 4.763139720814412 2.7499999999999996 3.0
  endloop
endfacet
facet normal -0.9238795325112867 -0.38268343236509006 -0.0
  outer loop
    vertex 2.5980762113533156 1.5 3.0
    vertex 2.897777478867205 0.7764571353075622 0.0
    vertex 2.897777478867205 0.7764571353075622 3.0
  endloop
endfacet
facet normal -0.9238795325112867 -0.38268343236509006 -0.0
  outer loop
    vertex 2.897777478867205 0.7764571353075622 0.0
    vertex 2.5980762113533156 1.5 3.0
    vertex 2.5980762113533156 1.5 0.0
  endloop
endfacet
facet normal -0.7933533402912356 -0.6087614290087202 -0.0
  outer loop
    vertex 2.1213203435596424 2.121320343559643 3.0
    vertex 2.5980762113533156 1.5 0.0
    vertex 2.5980762113533156 1.5 3.0
  endloop
endfacet
facet normal -0.7933533402912356 -0.6087614290087202 -0.0
  outer loop
    vertex 2.5980762113533156 1.5 0.0
    vertex 2.1213203435596424 2.121320343559643 3.0
    vertex 2.1213203435596424 2.121320343559643 0.0
  endloop
endfacet
facet normal -0.6087614290087203 -0.7933533402912354 -0.0
  outer loop
    vertex 2.1213203435596424 2.121320343559643 3.0
    vertex 1.5000000000000002 2.5980762113533156 0.0
    vertex 2.1213203435596424 2.121320343559643 0.0
  endloop
endfacet
facet normal -0.6087614290087203 -0.7933533402912354 -0.0
  outer loop
    vertex 1.5000000000000002 2.5980762113533156 0.0
    vertex 2.1213203435596424 2.121320343559643 3.0
    vertex 1.5000000000000002 2.5980762113533156 3.0
  endloop
endfacet
facet normal -0.3826834323650902 -0.9238795325112867 -0.0
  outer loop
    vertex 1.5000000000000002 2.5980762113533156 3.0
    vertex 0.7764571353075629 2.897777478867205 0.0
    vertex 1.5000000000000002 2.5980762113533156 0.0
  endloop
endfacet
facet normal -0.3826834323650902 -0.9238795325112867 -0.0
  outer loop
    vertex 0.7764571353075629 2.897777478867205 0.0
    vertex 1.5000000000000002 2.5980762113533156 3.0
    vertex 0.7764571353075629 2.897777478867205 3.0
  endloop
endfacet
facet normal -0.13052619222005168 -0.9914448613738105 -0.0
  outer loop
    vertex 0.7764571353075629 2.897777478867205 3.0
    vertex 1.8369701987210297e-16 3.0 0.0
    vertex 0.7764571353075629 2.897777478867205 0.0
  endloop
endfacet
facet normal -0.13052619222005168 -0.9914448613738105 -0.0
  outer loop
    vertex 1.8369701987210297e-16 3.0 0.0
    vertex 0.7764571353075629 2.897777478867205 3.0
    vertex 1.8369701987210297e-16 3.0 3.0
  endloop
endfacet
facet normal 0.13052619222005135 -0.9914448613738105 0.0
  outer loop
    vertex 1.8369701987210297e-16 3.0 3.0
    vertex -0.7764571353075619 2.897777478867205 0.0
    vertex 1.8369701987210297e-16 3.0 0.0
  endloop
endfacet
facet normal 0.13052619222005135 -0.9914448613738105 0.0
  outer loop
    vertex -0.7764571353075619 2.897777478867205 0.0
    vertex 1.8369701987210297e-16 3.0 3.0
    vertex -0.7764571353075619 2.897777478867205 3.0
  endloop
endfacet
facet normal 0.3826834323650902 -0.9238795325112866 0.0
  outer loop
    vertex -0.7764571353075619 2.897777478867205 3.0
    vertex -1.4999999999999991 2.598076211353316 0.0
    vertex -0.7764571353075619 2.897777478867205 0.0
  endloop
endfacet
facet normal 0.3826834323650902 -0.9238795325112866 0.0
  outer loop
    vertex -1.4999999999999991 2.598076211353316 0.0
    vertex -0.7764571353075619 2.897777478867205 3.0
    vertex -1.4999999999999991 2.598076211353316 3.0
  endloop
endfacet
facet normal 0.6087614290087202 -0.7933533402912356 0.0
  outer loop
    vertex -1.4999999999999991 2.598076211353316 3.0
    vertex -2.1213203435596424 2.121320343559643 0.0
    vertex -1.4999999999999991 2.598076211353316 0.0
  endloop
endfacet
facet normal 0.6087614290087202 -0.7933533402912356 0.0
  outer loop
    vertex -2.1213203435596424 2.121320343559643 0.0
    vertex -1.4999999999999991 2.598076211353316 3.0
    vertex -2.1213203435596424 2.121320343559643 3.0
  endloop
endfacet
facet normal 0.793353340291235 -0.608761429008721 0.0
  outer loop
    vertex -2.1213203435596424 2.121320343559643 0.0
    vertex -2.5980762113533156 1.500000000000001 3.0
    vertex -2.5980762113533156 1.500000000000001 0.0
  endloop
endfacet
facet normal 0.793353340291235 -0.608761429008721 0.0
  outer loop
    vertex -2.5980762113533156 1.500000000000001 3.0
    vertex -2.1213203435596424 2.121320343559643 0.0
    vertex -2.1213203435596424 2.121320343559643 3.0
  endloop
endfacet
facet normal 0.9238795325112867 -0.3826834323650899 0.0
  outer loop
    vertex -2.5980762113533156 1.500000000000001 0.0
    vertex -2.8977774788672046 0.7764571353075631 3.0
    vertex -2.8977774788672046 0.7764571353075631 0.0
  endloop
endfacet
facet normal 0.9238795325112867 -0.3826834323650899 0.0
  outer loop
    vertex -2.8977774788672046 0.7764571353075631 3.0
    vertex -2.5980762113533156 1.500000000000001 0.0
    vertex -2.5980762113533156 1.500000000000001 3.0
  endloop
endfacet
facet normal 0.9914448613738104 -0.13052619222005166 0.0
  outer loop
    vertex -2.8977774788672046 0.7764571353075631 0.0
    vertex -3.0 3.67394039744206e-16 3.0
    vertex -3.0 3.67394039744206e-16 0.0
  endloop
endfacet
facet normal 0.9914448613738104 -0.13052619222005166 0.0
  outer loop
    vertex -3.0 3.67394039744206e-16 3.0
    vertex -2.8977774788672046 0.7764571353075631 0.0
    vertex -2.8977774788672046 0.7764571353075631 3.0
  endloop
endfacet
facet normal 0.9914448613738106 0.13052619222005146 0.0
  outer loop
    vertex -3.0 3.67394039744206e-16 0.0
    vertex -2.897777478867205 -0.7764571353075611 3.0
    vertex -2.897777478867205 -0.7764571353075611 0.0
  endloop
endfacet
facet normal 0.9914448613738106 0.13052619222005146 0.0
  outer loop
    vertex -2.897777478867205 -0.7764571353075611 3.0
    vertex -3.0 3.67394039744206e-16 0.0
    vertex -3.0 3.67394039744206e-16 3.0
  endloop
endfacet
facet normal 0.9238795325112868 0.38268343236508945 0.0
  outer loop
    vertex -2.897777478867205 -0.7764571353075611 0.0
    vertex -2.598076211353316 -1.4999999999999991 3.0
    vertex -2.598076211353316 -1.4999999999999991 0.0
  endloop
endfacet
facet normal 0.9238795325112868 0.38268343236508945 0.0
  outer loop
    vertex -2.598076211353316 -1.4999999999999991 3.0
    vertex -2.897777478867205 -0.7764571353075611 0.0
    vertex -2.897777478867205 -0.7764571353075611 3.0
  endloop
endfacet
facet normal 0.7933533402912357 0.6087614290087201 0.0
  outer loop
    vertex -2.598076211353316 -1.4999999999999991 0.0
    vertex -2.1213203435596437 -2.1213203435596415 3.0
    vertex -2.1213203435596437 -2.1213203435596415 0.0
  endloop
endfacet
facet normal 0.7933533402912357 0.6087614290087201 0.0
  outer loop
    vertex -2.1213203435596437 -2.1213203435596415 3.0
    vertex -2.598076211353316 -1.4999999999999991 0.0
    vertex -2.598076211353316 -1.4999999999999991 3.0
  endloop
endfacet
facet normal 0.6087614290087214 0.7933533402912345 0.0
  outer loop
    vertex -2.1213203435596437 -2.1213203435596415 3.0
    vertex -1.5000000000000013 -2.5980762113533156 0.0
    vertex -2.1213203435596437 -2.1213203435596415 0.0
  endloop
endfacet
facet normal 0.6087614290087214 0.7933533402912345 0.0
  outer loop
    vertex -1.5000000000000013 -2.5980762113533156 0.0
    vertex -2.1213203435596437 -2.1213203435596415 3.0
    vertex -1.5000000000000013 -2.5980762113533156 3.0
  endloop
endfacet
facet normal 0.3826834323650901 0.9238795325112868 0.0
  outer loop
    vertex -1.5000000000000013 -2.5980762113533156 3.0
    vertex -0.7764571353075645 -2.8977774788672046 0.0
    vertex -1.5000000000000013 -2.5980762113533156 0.0
  endloop
endfacet
facet normal 0.3826834323650901 0.9238795325112868 0.0
  outer loop
    vertex -0.7764571353075645 -2.8977774788672046 0.0
    vertex -1.5000000000000013 -2.5980762113533156 3.0
    vertex -0.7764571353075645 -2.8977774788672046 3.0
  endloop
endfacet
facet normal 0.1305261922200519 0.9914448613738104 0.0
  outer loop
    vertex -0.7764571353075645 -2.8977774788672046 3.0
    vertex -5.510910596163089e-16 -3.0 0.0
    vertex -0.7764571353075645 -2.8977774788672046 0.0
  endloop
endfacet
facet normal 0.1305261922200519 0.9914448613738104 0.0
  outer loop
    vertex -5.510910596163089e-16 -3.0 0.0
    vertex -0.7764571353075645 -2.8977774788672046 3.0
    vertex -5.510910596163089e-16 -3.0 3.0
  endloop
endfacet
facet normal -0.13052619222005146 0.9914448613738105 0.0
  outer loop
    vertex -5.510910596163089e-16 -3.0 3.0
    vertex 0.7764571353075608 -2.897777478867205 0.0
    vertex -5.510910596163089e-16 -3.0 0.0
  endloop
endfacet
facet normal -0.13052619222005146 0.9914448613738105 0.0
  outer loop
    vertex 0.7764571353075608 -2.897777478867205 0.0
    vertex -5.510910596163089e-16 -3.0 3.0
    vertex 0.7764571353075608 -2.897777478867205 3.0
  endloop
endfacet
facet normal -0.3826834323650891 0.9238795325112871 0.0
  outer loop
    vertex 0.7764571353075608 -2.897777478867205 3.0
    vertex 1.499999999999998 -2.5980762113533173 0.0
    vertex 0.7764571353075608 -2.897777478867205 0.0
  endloop
endfacet
facet normal -0.3826834323650891 0.9238795325112871 0.0
  outer loop
    vertex 1.499999999999998 -2.5980762113533173 0.0
    vertex 0.7764571353075608 -2.897777478867205 3.0
    vertex 1.499999999999998 -2.5980762113533173 3.0
  endloop
endfacet
facet normal -0.6087614290087202 0.7933533402912355 0.0
  outer loop
    vertex 1.499999999999998 -2.5980762113533173 3.0
    vertex 2.121320343559642 -2.1213203435596433 0.0
    vertex 1.499999999999998 -2.5980762113533173 0.0
  endloop
endfacet
facet normal -0.6087614290087202 0.7933533402912355 0.0
  outer loop
    vertex 2.121320343559642 -2.1213203435596433 0.0
    vertex 1.499999999999998 -2.5980762113533173 3.0
    vertex 2.121320343559642 -2.1213203435596433 3.0
  endloop
endfacet
facet normal -0.793353340291235 0.608761429008721 0.0
  outer loop
    vertex 2.598076211353315 -1.5000000000000016 3.0
    vertex 2.121320343559642 -2.1213203435596433 0.0
    vertex 2.121320343559642 -2.1213203435596433 3.0
  endloop
endfacet
facet normal -0.793353340291235 0.608761429008721 0.0
  outer loop
    vertex 2.121320343559642 -2.1213203435596433 0.0
    vertex 2.598076211353315 -1.5000000000000016 3.0
    vertex 2.598076211353315 -1.5000000000000016 0.0
  endloop
endfacet
facet normal -0.9238795325112865 0.38268343236509045 0.0
  outer loop
    vertex 2.897777478867204 -0.7764571353075648 3.0
    vertex 2.598076211353315 -1.5000000000000016 0.0
    vertex 2.598076211353315 -1.5000000000000016 3.0
  endloop
endfacet
facet normal -0.9238795325112865 0.38268343236509045 0.0
  outer loop
    vertex 2.598076211353315 -1.5000000000000016 0.0
    vertex 2.897777478867204 -0.7764571353075648 3.0
    vertex 2.897777478867204 -0.7764571353075648 0.0
  endloop
endfacet
facet normal -0.9914448613738104 0.13052619222005177 0.0
  outer loop
    vertex 3.0 0.0 3.0
    vertex 2.897777478867204 -0.7764571353075648 0.0
    vertex 2.897777478867204 -0.7764571353075648 3.0
  endloop
endfacet
facet normal -0.9914448613738104 0.13052619222005177 0.0
  outer loop
    vertex 2.897777478867204 -0.7764571353075648 0.0
    vertex 3.0 0.0 3.0
    vertex 3.0 0.0 0.0
  endloop
endfacet
facet normal -0.9914448613738104 -0.1305261922200513 -0.0
  outer loop
    vertex 2.897777478867205 0.7764571353075622 3.0
    vertex 3.0 0.0 0.0
    vertex 3.0 0.0 3.0
  endloop
endfacet
facet normal -0.9914448613738104 -0.1305261922200513 -0.0
  outer loop
    vertex 3.0 0.0 0.0
    vertex 2.897777478867205 0.7764571353075622 3.0
    vertex 2.897777478867205 0.7764571353075622 0.0
  endloop
endfacet
endsolid Untitled-5ba373eb
