G04 #@! TF.FileFunction,Legend,Top*
%FSLAX46Y46*%
G04 Gerber Fmt 4.6, Leading zero omitted, Abs format (unit mm)*
G04 Created by KiCad (PCBNEW 4.0.6) date 03/22/18 19:19:45*
%MOMM*%
%LPD*%
G01*
G04 APERTURE LIST*
%ADD10C,0.100000*%
%ADD11C,0.300000*%
%ADD12C,0.200000*%
%ADD13C,0.120000*%
%ADD14C,0.150000*%
G04 APERTURE END LIST*
D10*
D11*
X18000000Y-3964286D02*
X17928571Y-4107143D01*
X17928571Y-4321429D01*
X18000000Y-4535714D01*
X18142857Y-4678572D01*
X18285714Y-4750000D01*
X18571429Y-4821429D01*
X18785714Y-4821429D01*
X19071429Y-4750000D01*
X19214286Y-4678572D01*
X19357143Y-4535714D01*
X19428571Y-4321429D01*
X19428571Y-4178572D01*
X19357143Y-3964286D01*
X19285714Y-3892857D01*
X18785714Y-3892857D01*
X18785714Y-4178572D01*
X18428571Y-3250000D02*
X19428571Y-3250000D01*
X18571429Y-3250000D02*
X18500000Y-3178572D01*
X18428571Y-3035714D01*
X18428571Y-2821429D01*
X18500000Y-2678572D01*
X18642857Y-2607143D01*
X19428571Y-2607143D01*
X19428571Y-1250000D02*
X17928571Y-1250000D01*
X19357143Y-1250000D02*
X19428571Y-1392857D01*
X19428571Y-1678571D01*
X19357143Y-1821429D01*
X19285714Y-1892857D01*
X19142857Y-1964286D01*
X18714286Y-1964286D01*
X18571429Y-1892857D01*
X18500000Y-1821429D01*
X18428571Y-1678571D01*
X18428571Y-1392857D01*
X18500000Y-1250000D01*
X20178571Y-4785714D02*
X21678571Y-4285714D01*
X20178571Y-3785714D01*
X21607143Y-2642857D02*
X21678571Y-2785714D01*
X21678571Y-3071428D01*
X21607143Y-3214286D01*
X21535714Y-3285714D01*
X21392857Y-3357143D01*
X20964286Y-3357143D01*
X20821429Y-3285714D01*
X20750000Y-3214286D01*
X20678571Y-3071428D01*
X20678571Y-2785714D01*
X20750000Y-2642857D01*
X21607143Y-1357143D02*
X21678571Y-1500000D01*
X21678571Y-1785714D01*
X21607143Y-1928572D01*
X21535714Y-2000000D01*
X21392857Y-2071429D01*
X20964286Y-2071429D01*
X20821429Y-2000000D01*
X20750000Y-1928572D01*
X20678571Y-1785714D01*
X20678571Y-1500000D01*
X20750000Y-1357143D01*
D12*
X-27678452Y-14569384D02*
X-27678452Y-17569384D01*
X-27428452Y-14819384D02*
X-27428452Y-17319384D01*
X-27178452Y-15069384D02*
X-27178452Y-17069384D01*
X-26928452Y-15319384D02*
X-26928452Y-16819384D01*
X-26678452Y-15569384D02*
X-26678452Y-16569384D01*
X-26428452Y-15819384D02*
X-26428452Y-16319384D01*
X-27928452Y-17819384D02*
X-26178452Y-16069384D01*
X-27928452Y-14319384D02*
X-27928452Y-17819384D01*
X-26178452Y-16069384D02*
X-27928452Y-14319384D01*
D13*
X18800000Y-13520000D02*
X20800000Y-13520000D01*
X20800000Y-11480000D02*
X18800000Y-11480000D01*
X-10020000Y-13500000D02*
X-10020000Y-15500000D01*
X-7980000Y-15500000D02*
X-7980000Y-13500000D01*
X4200000Y-8630000D02*
X3000000Y-8630000D01*
X3000000Y-6870000D02*
X4200000Y-6870000D01*
X8700000Y-11380000D02*
X7500000Y-11380000D01*
X7500000Y-9620000D02*
X8700000Y-9620000D01*
D14*
X-6200000Y-16825000D02*
X-6175000Y-16825000D01*
X-6200000Y-12675000D02*
X-6085000Y-12675000D01*
X2700000Y-12675000D02*
X2585000Y-12675000D01*
X2700000Y-16825000D02*
X2585000Y-16825000D01*
X-6200000Y-16825000D02*
X-6200000Y-12675000D01*
X2700000Y-16825000D02*
X2700000Y-12675000D01*
X-6175000Y-16825000D02*
X-6175000Y-18200000D01*
D13*
X14578168Y-20197798D02*
X15290590Y-19600006D01*
X16998869Y-18166589D02*
X16286447Y-18764382D01*
X16998869Y-18166589D02*
X15610448Y-16511933D01*
X14578168Y-20197798D02*
X13639698Y-19079373D01*
X9089224Y-23156531D02*
X9932090Y-22763496D01*
X11953156Y-21821057D02*
X11110290Y-22214092D01*
X11953156Y-21821057D02*
X11040301Y-19863432D01*
X9089224Y-23156531D02*
X8472201Y-21833321D01*
X3075976Y-24622818D02*
X3991848Y-24461325D01*
X6187969Y-24074090D02*
X5272098Y-24235583D01*
X6187969Y-24074090D02*
X5812889Y-21946905D01*
X3075976Y-24622818D02*
X2822450Y-23184999D01*
X-3117610Y-24676268D02*
X-2188885Y-24724940D01*
X38059Y-24841649D02*
X-890666Y-24792977D01*
X38059Y-24841649D02*
X151105Y-22684609D01*
X-3117610Y-24676268D02*
X-3041199Y-23218269D01*
X-9133164Y-23164844D02*
X-8243801Y-23436750D01*
X-6111241Y-24088739D02*
X-7000604Y-23816833D01*
X-6111241Y-24088739D02*
X-5479718Y-22023121D01*
X-9133164Y-23164844D02*
X-8706301Y-21768639D01*
X-22211198Y-18176955D02*
X-13146089Y-9111846D01*
X-13146089Y-9111846D02*
X-15111846Y-7146089D01*
X-15111846Y-7146089D02*
X-24176955Y-16211198D01*
X-24176955Y-16211198D02*
X-22211198Y-18176955D01*
X-23109224Y-19074980D02*
X-24092102Y-20057859D01*
X-24092102Y-20057859D02*
X-25074980Y-19074980D01*
D14*
X19633334Y-14607143D02*
X19585715Y-14654762D01*
X19442858Y-14702381D01*
X19347620Y-14702381D01*
X19204762Y-14654762D01*
X19109524Y-14559524D01*
X19061905Y-14464286D01*
X19014286Y-14273810D01*
X19014286Y-14130952D01*
X19061905Y-13940476D01*
X19109524Y-13845238D01*
X19204762Y-13750000D01*
X19347620Y-13702381D01*
X19442858Y-13702381D01*
X19585715Y-13750000D01*
X19633334Y-13797619D01*
X20585715Y-14702381D02*
X20014286Y-14702381D01*
X20300000Y-14702381D02*
X20300000Y-13702381D01*
X20204762Y-13845238D01*
X20109524Y-13940476D01*
X20014286Y-13988095D01*
X-8642857Y-10266666D02*
X-8595238Y-10314285D01*
X-8547619Y-10457142D01*
X-8547619Y-10552380D01*
X-8595238Y-10695238D01*
X-8690476Y-10790476D01*
X-8785714Y-10838095D01*
X-8976190Y-10885714D01*
X-9119048Y-10885714D01*
X-9309524Y-10838095D01*
X-9404762Y-10790476D01*
X-9500000Y-10695238D01*
X-9547619Y-10552380D01*
X-9547619Y-10457142D01*
X-9500000Y-10314285D01*
X-9452381Y-10266666D01*
X-9452381Y-9885714D02*
X-9500000Y-9838095D01*
X-9547619Y-9742857D01*
X-9547619Y-9504761D01*
X-9500000Y-9409523D01*
X-9452381Y-9361904D01*
X-9357143Y-9314285D01*
X-9261905Y-9314285D01*
X-9119048Y-9361904D01*
X-8547619Y-9933333D01*
X-8547619Y-9314285D01*
X11066667Y-7052381D02*
X11066667Y-7766667D01*
X11019047Y-7909524D01*
X10923809Y-8004762D01*
X10780952Y-8052381D01*
X10685714Y-8052381D01*
X12066667Y-8052381D02*
X11495238Y-8052381D01*
X11780952Y-8052381D02*
X11780952Y-7052381D01*
X11685714Y-7195238D01*
X11590476Y-7290476D01*
X11495238Y-7338095D01*
X6883334Y-8202381D02*
X6550000Y-7726190D01*
X6311905Y-8202381D02*
X6311905Y-7202381D01*
X6692858Y-7202381D01*
X6788096Y-7250000D01*
X6835715Y-7297619D01*
X6883334Y-7392857D01*
X6883334Y-7535714D01*
X6835715Y-7630952D01*
X6788096Y-7678571D01*
X6692858Y-7726190D01*
X6311905Y-7726190D01*
X7835715Y-8202381D02*
X7264286Y-8202381D01*
X7550000Y-8202381D02*
X7550000Y-7202381D01*
X7454762Y-7345238D01*
X7359524Y-7440476D01*
X7264286Y-7488095D01*
X11383334Y-10952381D02*
X11050000Y-10476190D01*
X10811905Y-10952381D02*
X10811905Y-9952381D01*
X11192858Y-9952381D01*
X11288096Y-10000000D01*
X11335715Y-10047619D01*
X11383334Y-10142857D01*
X11383334Y-10285714D01*
X11335715Y-10380952D01*
X11288096Y-10428571D01*
X11192858Y-10476190D01*
X10811905Y-10476190D01*
X11764286Y-10047619D02*
X11811905Y-10000000D01*
X11907143Y-9952381D01*
X12145239Y-9952381D01*
X12240477Y-10000000D01*
X12288096Y-10047619D01*
X12335715Y-10142857D01*
X12335715Y-10238095D01*
X12288096Y-10380952D01*
X11716667Y-10952381D01*
X12335715Y-10952381D01*
X-6997619Y-20511905D02*
X-6188095Y-20511905D01*
X-6092857Y-20464286D01*
X-6045238Y-20416667D01*
X-5997619Y-20321429D01*
X-5997619Y-20130952D01*
X-6045238Y-20035714D01*
X-6092857Y-19988095D01*
X-6188095Y-19940476D01*
X-6997619Y-19940476D01*
X-5997619Y-18940476D02*
X-5997619Y-19511905D01*
X-5997619Y-19226191D02*
X-6997619Y-19226191D01*
X-6854762Y-19321429D01*
X-6759524Y-19416667D01*
X-6711905Y-19511905D01*
X17420349Y-16385680D02*
X16873174Y-16844815D01*
X16733130Y-16900162D01*
X16598956Y-16888424D01*
X16470651Y-16809598D01*
X16409433Y-16736641D01*
X18032528Y-17115247D02*
X17726438Y-16750463D01*
X17331047Y-17020074D01*
X17398134Y-17025943D01*
X17495830Y-17068291D01*
X17648875Y-17250683D01*
X17673615Y-17354248D01*
X17667745Y-17421336D01*
X17625397Y-17519032D01*
X17443005Y-17672077D01*
X17339440Y-17696816D01*
X17272353Y-17690947D01*
X17174657Y-17648599D01*
X17021612Y-17466207D01*
X16996872Y-17362642D01*
X17002741Y-17295555D01*
X12821208Y-20209918D02*
X12173845Y-20511788D01*
X12024247Y-20529004D01*
X11897683Y-20482938D01*
X11794152Y-20373590D01*
X11753902Y-20287276D01*
X13203577Y-21029911D02*
X13123078Y-20857280D01*
X13039671Y-20791090D01*
X12976389Y-20768057D01*
X12806667Y-20742116D01*
X12613912Y-20779457D01*
X12268652Y-20940455D01*
X12202461Y-21023862D01*
X12179429Y-21087144D01*
X12176521Y-21193583D01*
X12257020Y-21366214D01*
X12340426Y-21432404D01*
X12403709Y-21455437D01*
X12510148Y-21458345D01*
X12725935Y-21357722D01*
X12792127Y-21274315D01*
X12815159Y-21211033D01*
X12818068Y-21104593D01*
X12737569Y-20931962D01*
X12654162Y-20865772D01*
X12590880Y-20842739D01*
X12484439Y-20839831D01*
X7443436Y-22742518D02*
X6740001Y-22866552D01*
X6591046Y-22844463D01*
X6480717Y-22767210D01*
X6409014Y-22634792D01*
X6392476Y-22541001D01*
X7509587Y-23117683D02*
X7625353Y-23774221D01*
X6566124Y-23525808D01*
X432260Y-24435056D02*
X1145567Y-24472439D01*
X1285736Y-24527470D01*
X1375859Y-24627562D01*
X1415937Y-24772715D01*
X1410952Y-24867823D01*
X892642Y-23839287D02*
X840104Y-23931902D01*
X790058Y-23976964D01*
X692459Y-24019533D01*
X644905Y-24017041D01*
X552290Y-23964503D01*
X507228Y-23914457D01*
X464659Y-23816857D01*
X474627Y-23626641D01*
X527166Y-23534026D01*
X577211Y-23488965D01*
X674811Y-23446395D01*
X722365Y-23448887D01*
X814980Y-23501426D01*
X860042Y-23551471D01*
X902611Y-23649071D01*
X892642Y-23839287D01*
X935212Y-23936887D01*
X980273Y-23986933D01*
X1072889Y-24039471D01*
X1263104Y-24049440D01*
X1360704Y-24006870D01*
X1410750Y-23961809D01*
X1463288Y-23869193D01*
X1473257Y-23678977D01*
X1430688Y-23581378D01*
X1385626Y-23531332D01*
X1293011Y-23478794D01*
X1102796Y-23468825D01*
X1005195Y-23511394D01*
X955149Y-23556456D01*
X902611Y-23649071D01*
X-5630386Y-23789589D02*
X-4947311Y-23998426D01*
X-4824619Y-24085732D01*
X-4761387Y-24204654D01*
X-4757616Y-24355191D01*
X-4785461Y-24446268D01*
X-4520934Y-23581039D02*
X-4465244Y-23398886D01*
X-4482937Y-23293886D01*
X-4514553Y-23234426D01*
X-4623323Y-23101582D01*
X-4791554Y-23000354D01*
X-5155861Y-22888974D01*
X-5260860Y-22906667D01*
X-5320321Y-22938283D01*
X-5393704Y-23015437D01*
X-5449394Y-23197591D01*
X-5431701Y-23302590D01*
X-5400085Y-23362051D01*
X-5322931Y-23435434D01*
X-5095239Y-23505046D01*
X-4990240Y-23487353D01*
X-4930779Y-23455737D01*
X-4857395Y-23378583D01*
X-4801705Y-23196429D01*
X-4819399Y-23091430D01*
X-4851015Y-23031969D01*
X-4928170Y-22958586D01*
X-25630564Y-19159160D02*
X-26135640Y-19664236D01*
X-26270328Y-19731579D01*
X-26405015Y-19731579D01*
X-26539702Y-19664236D01*
X-26607045Y-19596892D01*
X-25394862Y-19529549D02*
X-25327518Y-19529549D01*
X-25226503Y-19563220D01*
X-25058144Y-19731580D01*
X-25024472Y-19832595D01*
X-25024472Y-19899938D01*
X-25058144Y-20000954D01*
X-25125487Y-20068297D01*
X-25260174Y-20135640D01*
X-26068297Y-20135640D01*
X-25630564Y-20573373D01*
M02*
