G04 #@! TF.FileFunction,Paste,Top*
%FSLAX46Y46*%
G04 Gerber Fmt 4.6, Leading zero omitted, Abs format (unit mm)*
G04 Created by KiCad (PCBNEW 4.0.6) date 03/22/18 19:19:45*
%MOMM*%
%LPD*%
G01*
G04 APERTURE LIST*
%ADD10C,0.100000*%
%ADD11R,2.000000X1.600000*%
%ADD12R,1.600000X2.000000*%
%ADD13R,1.500000X1.300000*%
%ADD14R,0.600000X1.500000*%
G04 APERTURE END LIST*
D10*
D11*
X21800000Y-12500000D03*
X17800000Y-12500000D03*
D12*
X-9000000Y-16500000D03*
X-9000000Y-12500000D03*
D13*
X2250000Y-7750000D03*
X4950000Y-7750000D03*
X6750000Y-10500000D03*
X9450000Y-10500000D03*
D14*
X-5560000Y-17450000D03*
X-4290000Y-17450000D03*
X-3020000Y-17450000D03*
X-1750000Y-17450000D03*
X-480000Y-17450000D03*
X790000Y-17450000D03*
X2060000Y-17450000D03*
X2060000Y-12050000D03*
X790000Y-12050000D03*
X-480000Y-12050000D03*
X-1750000Y-12050000D03*
X-3020000Y-12050000D03*
X-4290000Y-12050000D03*
X-5560000Y-12050000D03*
D10*
G36*
X14789283Y-17135702D02*
X15402118Y-16621472D01*
X15980627Y-17310912D01*
X15367792Y-17825142D01*
X14789283Y-17135702D01*
X14789283Y-17135702D01*
G37*
G36*
X13333798Y-18356999D02*
X13946633Y-17842769D01*
X14525142Y-18532209D01*
X13912307Y-19046439D01*
X13333798Y-18356999D01*
X13333798Y-18356999D01*
G37*
G36*
X15347116Y-19278439D02*
X15959951Y-18764209D01*
X16538460Y-19453649D01*
X15925625Y-19967879D01*
X15347116Y-19278439D01*
X15347116Y-19278439D01*
G37*
G36*
X10085673Y-20253414D02*
X10810719Y-19915319D01*
X11191075Y-20730996D01*
X10466029Y-21069091D01*
X10085673Y-20253414D01*
X10085673Y-20253414D01*
G37*
G36*
X8363688Y-21056389D02*
X9088734Y-20718294D01*
X9469090Y-21533971D01*
X8744044Y-21872066D01*
X8363688Y-21056389D01*
X8363688Y-21056389D01*
G37*
G36*
X10069917Y-22467517D02*
X10794963Y-22129422D01*
X11175319Y-22945099D01*
X10450273Y-23283194D01*
X10069917Y-22467517D01*
X10069917Y-22467517D01*
G37*
G36*
X4789854Y-22076522D02*
X5577700Y-21937603D01*
X5733984Y-22823930D01*
X4946138Y-22962849D01*
X4789854Y-22076522D01*
X4789854Y-22076522D01*
G37*
G36*
X2918719Y-22406454D02*
X3706565Y-22267535D01*
X3862849Y-23153862D01*
X3075003Y-23292781D01*
X2918719Y-22406454D01*
X2918719Y-22406454D01*
G37*
G36*
X4201583Y-24211104D02*
X4989429Y-24072185D01*
X5145713Y-24958512D01*
X4357867Y-25097431D01*
X4201583Y-24211104D01*
X4201583Y-24211104D01*
G37*
G36*
X-874867Y-22580772D02*
X-75963Y-22622641D01*
X-123065Y-23521408D01*
X-921969Y-23479539D01*
X-874867Y-22580772D01*
X-874867Y-22580772D01*
G37*
G36*
X-2772263Y-22481333D02*
X-1973359Y-22523202D01*
X-2020461Y-23421969D01*
X-2819365Y-23380100D01*
X-2772263Y-22481333D01*
X-2772263Y-22481333D01*
G37*
G36*
X-1928237Y-24528312D02*
X-1129333Y-24570181D01*
X-1176435Y-25468948D01*
X-1975339Y-25427079D01*
X-1928237Y-24528312D01*
X-1928237Y-24528312D01*
G37*
G36*
X-6450094Y-21674162D02*
X-5685050Y-21908060D01*
X-5948184Y-22768734D01*
X-6713228Y-22534836D01*
X-6450094Y-21674162D01*
X-6450094Y-21674162D01*
G37*
G36*
X-8267073Y-21118656D02*
X-7502029Y-21352554D01*
X-7765163Y-22213228D01*
X-8530207Y-21979330D01*
X-8267073Y-21118656D01*
X-8267073Y-21118656D01*
G37*
G36*
X-7943327Y-23309019D02*
X-7178283Y-23542917D01*
X-7441417Y-24403591D01*
X-8206461Y-24169693D01*
X-7943327Y-23309019D01*
X-7943327Y-23309019D01*
G37*
M02*
