  0
SECTION
  2
HEADER
  9
$ANGBASE
  50
0.0
  9
$ANGDIR
  70
  1
  9
$MEASUREMENT
  70
0
  0
ENDSEC
  0
SECTION
  2
TABLES
  0
TABLE
  2
LTYPE
  70
1
  0
LTYPE
  2
CONTINUOUS
  70
0
  3
Solid line
  72
65
  73
0
  40
0.0
  0
ENDTAB
  0
TABLE
  2
STYLE
  70
4
  0
STYLE
  2
KICAD
  70
0
  40
0
  41
1
  42
1
  50
0
  71
0
  3
isocp.shx
  0
STYLE
  2
KICADB
  70
0
  40
0
  41
1
  42
1
  50
0
  71
0
  3
isocp.shx
  0
STYLE
  2
KICADI
  70
0
  40
0
  41
1
  42
1
  50
15
  71
0
  3
isocp.shx
  0
STYLE
  2
KICADBI
  70
0
  40
0
  41
1
  42
1
  50
15
  71
0
  3
isocp.shx
  0
ENDTAB
  0
TABLE
  2
LAYER
  70
30
  0
LAYER
  2
BLACK
  70
0
  62
7
  6
CONTINUOUS
  0
LAYER
  2
GRAY1
  70
0
  62
251
  6
CONTINUOUS
  0
LAYER
  2
GRAY2
  70
0
  62
8
  6
CONTINUOUS
  0
LAYER
  2
GRAY3
  70
0
  62
9
  6
CONTINUOUS
  0
LAYER
  2
WHITE
  70
0
  62
7
  6
CONTINUOUS
  0
LAYER
  2
LYELLOW
  70
0
  62
51
  6
CONTINUOUS
  0
LAYER
  2
BLUE1
  70
0
  62
178
  6
CONTINUOUS
  0
LAYER
  2
GREEN1
  70
0
  62
98
  6
CONTINUOUS
  0
LAYER
  2
CYAN1
  70
0
  62
138
  6
CONTINUOUS
  0
LAYER
  2
RED1
  70
0
  62
18
  6
CONTINUOUS
  0
LAYER
  2
MAGENTA1
  70
0
  62
228
  6
CONTINUOUS
  0
LAYER
  2
BROWN1
  70
0
  62
58
  6
CONTINUOUS
  0
LAYER
  2
BLUE2
  70
0
  62
5
  6
CONTINUOUS
  0
LAYER
  2
GREEN2
  70
0
  62
3
  6
CONTINUOUS
  0
LAYER
  2
CYAN2
  70
0
  62
4
  6
CONTINUOUS
  0
LAYER
  2
RED2
  70
0
  62
1
  6
CONTINUOUS
  0
LAYER
  2
MAGENTA2
  70
0
  62
6
  6
CONTINUOUS
  0
LAYER
  2
BROWN2
  70
0
  62
54
  6
CONTINUOUS
  0
LAYER
  2
BLUE3
  70
0
  62
171
  6
CONTINUOUS
  0
LAYER
  2
GREEN3
  70
0
  62
91
  6
CONTINUOUS
  0
LAYER
  2
CYAN3
  70
0
  62
131
  6
CONTINUOUS
  0
LAYER
  2
RED3
  70
0
  62
11
  6
CONTINUOUS
  0
LAYER
  2
MAGENTA3
  70
0
  62
221
  6
CONTINUOUS
  0
LAYER
  2
YELLOW3
  70
0
  62
2
  6
CONTINUOUS
  0
LAYER
  2
BLUE4
  70
0
  62
5
  6
CONTINUOUS
  0
LAYER
  2
GREEN4
  70
0
  62
3
  6
CONTINUOUS
  0
LAYER
  2
CYAN4
  70
0
  62
4
  6
CONTINUOUS
  0
LAYER
  2
RED4
  70
0
  62
1
  6
CONTINUOUS
  0
LAYER
  2
MAGENTA4
  70
0
  62
6
  6
CONTINUOUS
  0
LAYER
  2
YELLOW4
  70
0
  62
2
  6
CONTINUOUS
  0
ENDTAB
  0
ENDSEC
  0
SECTION
  2
ENTITIES
0
LINE
8
Black
10
159
20
-77.075
11
190
21
-77.075
0
LINE
8
Black
10
159
20
-76.925
11
190
21
-76.925
0
ARC
8
Black
10
190
20
-77
40
0.075
50
270
51
450
0
ARC
8
Black
10
159
20
-77
40
0.075
50
90
51
270
0
LINE
8
Black
10
116
20
-77.075
11
147
21
-77.075
0
LINE
8
Black
10
116
20
-76.925
11
147
21
-76.925
0
ARC
8
Black
10
147
20
-77
40
0.075
50
270
51
450
0
ARC
8
Black
10
116
20
-77
40
0.075
50
90
51
270
0
ARC
8
Black
10
153
20
-77
40
37
50
-180
51
-0
0
ARC
8
Black
10
153
20
-77
40
6
50
-180
51
-0
0
LINE
8
Black
10
167.45
20
-83.45
11
168.15
21
-84.15
0
LINE
8
Black
10
168.15
20
-83.45
11
167.45
21
-84.15
0
LINE
8
Black
10
169.45
20
-83.45
11
170.15
21
-84.15
0
LINE
8
Black
10
170.15
20
-83.45
11
169.45
21
-84.15
0
LINE
8
Black
10
171.45
20
-83.45
11
172.15
21
-84.15
0
LINE
8
Black
10
172.15
20
-83.45
11
171.45
21
-84.15
0
LINE
8
Black
10
173.45
20
-83.45
11
174.15
21
-84.15
0
LINE
8
Black
10
174.15
20
-83.45
11
173.45
21
-84.15
0
CIRCLE
8
Black
10
128.908
20
-95.0921
40
0.5
0
CIRCLE
8
Black
10
130.704
20
-93.2961
40
0.5
0
CIRCLE
8
Black
10
132.5
20
-91.5
40
0.5
0
CIRCLE
8
Black
10
134.296
20
-89.7039
40
0.5
0
CIRCLE
8
Black
10
136.092
20
-87.9079
40
0.5
0
CIRCLE
8
Black
10
137.888
20
-86.1118
40
0.5
0
LINE
8
Black
10
127.2
20
-80.5
11
127.2
21
-83.5
0
LINE
8
Black
10
125.7
20
-82
11
128.7
21
-82
0
LINE
8
Black
10
138.1
20
-97.2
11
138.1
21
-100.2
0
LINE
8
Black
10
136.6
20
-98.7
11
139.6
21
-98.7
0
LINE
8
Black
10
118.639
20
-118.732
11
118.639
21
-115.732
0
LINE
8
Black
10
118.639
20
-115.732
11
119.354
21
-115.732
0
LINE
8
Black
10
119.354
20
-115.732
11
119.782
21
-115.875
0
LINE
8
Black
10
119.782
20
-115.875
11
120.068
21
-116.161
0
LINE
8
Black
10
120.068
20
-116.161
11
120.211
21
-116.446
0
LINE
8
Black
10
120.211
20
-116.446
11
120.354
21
-117.018
0
LINE
8
Black
10
120.354
20
-117.018
11
120.354
21
-117.446
0
LINE
8
Black
10
120.354
20
-117.446
11
120.211
21
-118.018
0
LINE
8
Black
10
120.211
20
-118.018
11
120.068
21
-118.304
0
LINE
8
Black
10
120.068
20
-118.304
11
119.782
21
-118.589
0
LINE
8
Black
10
119.782
20
-118.589
11
119.354
21
-118.732
0
LINE
8
Black
10
119.354
20
-118.732
11
118.639
21
-118.732
0
LINE
8
Black
10
121.639
20
-118.732
11
121.639
21
-116.732
0
LINE
8
Black
10
121.639
20
-117.304
11
121.782
21
-117.018
0
LINE
8
Black
10
121.782
20
-117.018
11
121.925
21
-116.875
0
LINE
8
Black
10
121.925
20
-116.875
11
122.211
21
-116.732
0
LINE
8
Black
10
122.211
20
-116.732
11
122.496
21
-116.732
0
LINE
8
Black
10
123.496
20
-118.732
11
123.496
21
-116.732
0
LINE
8
Black
10
123.496
20
-115.732
11
123.354
21
-115.875
0
LINE
8
Black
10
123.354
20
-115.875
11
123.496
21
-116.018
0
LINE
8
Black
10
123.496
20
-116.018
11
123.639
21
-115.875
0
LINE
8
Black
10
123.639
20
-115.875
11
123.496
21
-115.732
0
LINE
8
Black
10
123.496
20
-115.732
11
123.496
21
-116.018
0
LINE
8
Black
10
125.354
20
-118.732
11
125.068
21
-118.589
0
LINE
8
Black
10
125.068
20
-118.589
11
124.925
21
-118.304
0
LINE
8
Black
10
124.925
20
-118.304
11
124.925
21
-115.732
0
LINE
8
Black
10
126.925
20
-118.732
11
126.639
21
-118.589
0
LINE
8
Black
10
126.639
20
-118.589
11
126.496
21
-118.304
0
LINE
8
Black
10
126.496
20
-118.304
11
126.496
21
-115.732
0
LINE
8
Black
10
130.354
20
-118.732
11
130.354
21
-115.732
0
LINE
8
Black
10
130.354
20
-115.732
11
131.354
21
-117.875
0
LINE
8
Black
10
131.354
20
-117.875
11
132.354
21
-115.732
0
LINE
8
Black
10
132.354
20
-115.732
11
132.354
21
-118.732
0
LINE
8
Black
10
135.068
20
-118.732
11
135.068
21
-117.161
0
LINE
8
Black
10
135.068
20
-117.161
11
134.925
21
-116.875
0
LINE
8
Black
10
134.925
20
-116.875
11
134.639
21
-116.732
0
LINE
8
Black
10
134.639
20
-116.732
11
134.068
21
-116.732
0
LINE
8
Black
10
134.068
20
-116.732
11
133.782
21
-116.875
0
LINE
8
Black
10
135.068
20
-118.589
11
134.782
21
-118.732
0
LINE
8
Black
10
134.782
20
-118.732
11
134.068
21
-118.732
0
LINE
8
Black
10
134.068
20
-118.732
11
133.782
21
-118.589
0
LINE
8
Black
10
133.782
20
-118.589
11
133.639
21
-118.304
0
LINE
8
Black
10
133.639
20
-118.304
11
133.639
21
-118.018
0
LINE
8
Black
10
133.639
20
-118.018
11
133.782
21
-117.732
0
LINE
8
Black
10
133.782
20
-117.732
11
134.068
21
-117.589
0
LINE
8
Black
10
134.068
20
-117.589
11
134.782
21
-117.589
0
LINE
8
Black
10
134.782
20
-117.589
11
135.068
21
-117.446
0
LINE
8
Black
10
136.496
20
-116.732
11
136.496
21
-119.732
0
LINE
8
Black
10
136.496
20
-116.875
11
136.782
21
-116.732
0
LINE
8
Black
10
136.782
20
-116.732
11
137.354
21
-116.732
0
LINE
8
Black
10
137.354
20
-116.732
11
137.639
21
-116.875
0
LINE
8
Black
10
137.639
20
-116.875
11
137.782
21
-117.018
0
LINE
8
Black
10
137.782
20
-117.018
11
137.925
21
-117.304
0
LINE
8
Black
10
137.925
20
-117.304
11
137.925
21
-118.161
0
LINE
8
Black
10
137.925
20
-118.161
11
137.782
21
-118.446
0
LINE
8
Black
10
137.782
20
-118.446
11
137.639
21
-118.589
0
LINE
8
Black
10
137.639
20
-118.589
11
137.354
21
-118.732
0
LINE
8
Black
10
137.354
20
-118.732
11
136.782
21
-118.732
0
LINE
8
Black
10
136.782
20
-118.732
11
136.496
21
-118.589
0
LINE
8
Black
10
139.211
20
-118.446
11
139.354
21
-118.589
0
LINE
8
Black
10
139.354
20
-118.589
11
139.211
21
-118.732
0
LINE
8
Black
10
139.211
20
-118.732
11
139.068
21
-118.589
0
LINE
8
Black
10
139.068
20
-118.589
11
139.211
21
-118.446
0
LINE
8
Black
10
139.211
20
-118.446
11
139.211
21
-118.732
0
LINE
8
Black
10
139.211
20
-116.875
11
139.354
21
-117.018
0
LINE
8
Black
10
139.354
20
-117.018
11
139.211
21
-117.161
0
LINE
8
Black
10
139.211
20
-117.161
11
139.068
21
-117.018
0
LINE
8
Black
10
139.068
20
-117.018
11
139.211
21
-116.875
0
LINE
8
Black
10
139.211
20
-116.875
11
139.211
21
-117.161
0
LINE
8
Black
10
115.225
20
-123.325
11
115.925
21
-124.025
0
LINE
8
Black
10
115.925
20
-123.325
11
115.225
21
-124.025
0
LINE
8
Black
10
119.211
20
-122.032
11
119.496
21
-122.032
0
LINE
8
Black
10
119.496
20
-122.032
11
119.782
21
-122.175
0
LINE
8
Black
10
119.782
20
-122.175
11
119.925
21
-122.318
0
LINE
8
Black
10
119.925
20
-122.318
11
120.068
21
-122.604
0
LINE
8
Black
10
120.068
20
-122.604
11
120.211
21
-123.175
0
LINE
8
Black
10
120.211
20
-123.175
11
120.211
21
-123.889
0
LINE
8
Black
10
120.211
20
-123.889
11
120.068
21
-124.461
0
LINE
8
Black
10
120.068
20
-124.461
11
119.925
21
-124.746
0
LINE
8
Black
10
119.925
20
-124.746
11
119.782
21
-124.889
0
LINE
8
Black
10
119.782
20
-124.889
11
119.496
21
-125.032
0
LINE
8
Black
10
119.496
20
-125.032
11
119.211
21
-125.032
0
LINE
8
Black
10
119.211
20
-125.032
11
118.925
21
-124.889
0
LINE
8
Black
10
118.925
20
-124.889
11
118.782
21
-124.746
0
LINE
8
Black
10
118.782
20
-124.746
11
118.639
21
-124.461
0
LINE
8
Black
10
118.639
20
-124.461
11
118.496
21
-123.889
0
LINE
8
Black
10
118.496
20
-123.889
11
118.496
21
-123.175
0
LINE
8
Black
10
118.496
20
-123.175
11
118.639
21
-122.604
0
LINE
8
Black
10
118.639
20
-122.604
11
118.782
21
-122.318
0
LINE
8
Black
10
118.782
20
-122.318
11
118.925
21
-122.175
0
LINE
8
Black
10
118.925
20
-122.175
11
119.211
21
-122.032
0
LINE
8
Black
10
121.496
20
-124.746
11
121.639
21
-124.889
0
LINE
8
Black
10
121.639
20
-124.889
11
121.496
21
-125.032
0
LINE
8
Black
10
121.496
20
-125.032
11
121.354
21
-124.889
0
LINE
8
Black
10
121.354
20
-124.889
11
121.496
21
-124.746
0
LINE
8
Black
10
121.496
20
-124.746
11
121.496
21
-125.032
0
LINE
8
Black
10
122.639
20
-122.032
11
124.639
21
-122.032
0
LINE
8
Black
10
124.639
20
-122.032
11
123.354
21
-125.032
0
LINE
8
Black
10
126.354
20
-122.032
11
126.639
21
-122.032
0
LINE
8
Black
10
126.639
20
-122.032
11
126.925
21
-122.175
0
LINE
8
Black
10
126.925
20
-122.175
11
127.068
21
-122.318
0
LINE
8
Black
10
127.068
20
-122.318
11
127.211
21
-122.604
0
LINE
8
Black
10
127.211
20
-122.604
11
127.354
21
-123.175
0
LINE
8
Black
10
127.354
20
-123.175
11
127.354
21
-123.889
0
LINE
8
Black
10
127.354
20
-123.889
11
127.211
21
-124.461
0
LINE
8
Black
10
127.211
20
-124.461
11
127.068
21
-124.746
0
LINE
8
Black
10
127.068
20
-124.746
11
126.925
21
-124.889
0
LINE
8
Black
10
126.925
20
-124.889
11
126.639
21
-125.032
0
LINE
8
Black
10
126.639
20
-125.032
11
126.354
21
-125.032
0
LINE
8
Black
10
126.354
20
-125.032
11
126.068
21
-124.889
0
LINE
8
Black
10
126.068
20
-124.889
11
125.925
21
-124.746
0
LINE
8
Black
10
125.925
20
-124.746
11
125.782
21
-124.461
0
LINE
8
Black
10
125.782
20
-124.461
11
125.639
21
-123.889
0
LINE
8
Black
10
125.639
20
-123.889
11
125.639
21
-123.175
0
LINE
8
Black
10
125.639
20
-123.175
11
125.782
21
-122.604
0
LINE
8
Black
10
125.782
20
-122.604
11
125.925
21
-122.318
0
LINE
8
Black
10
125.925
20
-122.318
11
126.068
21
-122.175
0
LINE
8
Black
10
126.068
20
-122.175
11
126.354
21
-122.032
0
LINE
8
Black
10
128.639
20
-125.032
11
128.639
21
-123.032
0
LINE
8
Black
10
128.639
20
-123.318
11
128.782
21
-123.175
0
LINE
8
Black
10
128.782
20
-123.175
11
129.068
21
-123.032
0
LINE
8
Black
10
129.068
20
-123.032
11
129.496
21
-123.032
0
LINE
8
Black
10
129.496
20
-123.032
11
129.782
21
-123.175
0
LINE
8
Black
10
129.782
20
-123.175
11
129.925
21
-123.461
0
LINE
8
Black
10
129.925
20
-123.461
11
129.925
21
-125.032
0
LINE
8
Black
10
129.925
20
-123.461
11
130.068
21
-123.175
0
LINE
8
Black
10
130.068
20
-123.175
11
130.354
21
-123.032
0
LINE
8
Black
10
130.354
20
-123.032
11
130.782
21
-123.032
0
LINE
8
Black
10
130.782
20
-123.032
11
131.068
21
-123.175
0
LINE
8
Black
10
131.068
20
-123.175
11
131.211
21
-123.461
0
LINE
8
Black
10
131.211
20
-123.461
11
131.211
21
-125.032
0
LINE
8
Black
10
132.639
20
-125.032
11
132.639
21
-123.032
0
LINE
8
Black
10
132.639
20
-123.318
11
132.782
21
-123.175
0
LINE
8
Black
10
132.782
20
-123.175
11
133.068
21
-123.032
0
LINE
8
Black
10
133.068
20
-123.032
11
133.496
21
-123.032
0
LINE
8
Black
10
133.496
20
-123.032
11
133.782
21
-123.175
0
LINE
8
Black
10
133.782
20
-123.175
11
133.925
21
-123.461
0
LINE
8
Black
10
133.925
20
-123.461
11
133.925
21
-125.032
0
LINE
8
Black
10
133.925
20
-123.461
11
134.068
21
-123.175
0
LINE
8
Black
10
134.068
20
-123.175
11
134.354
21
-123.032
0
LINE
8
Black
10
134.354
20
-123.032
11
134.782
21
-123.032
0
LINE
8
Black
10
134.782
20
-123.032
11
135.068
21
-123.175
0
LINE
8
Black
10
135.068
20
-123.175
11
135.211
21
-123.461
0
LINE
8
Black
10
135.211
20
-123.461
11
135.211
21
-125.032
0
LINE
8
Black
10
141.068
20
-121.889
11
138.496
21
-125.746
0
LINE
8
Black
10
144.925
20
-122.032
11
145.211
21
-122.032
0
LINE
8
Black
10
145.211
20
-122.032
11
145.496
21
-122.175
0
LINE
8
Black
10
145.496
20
-122.175
11
145.639
21
-122.318
0
LINE
8
Black
10
145.639
20
-122.318
11
145.782
21
-122.604
0
LINE
8
Black
10
145.782
20
-122.604
11
145.925
21
-123.175
0
LINE
8
Black
10
145.925
20
-123.175
11
145.925
21
-123.889
0
LINE
8
Black
10
145.925
20
-123.889
11
145.782
21
-124.461
0
LINE
8
Black
10
145.782
20
-124.461
11
145.639
21
-124.746
0
LINE
8
Black
10
145.639
20
-124.746
11
145.496
21
-124.889
0
LINE
8
Black
10
145.496
20
-124.889
11
145.211
21
-125.032
0
LINE
8
Black
10
145.211
20
-125.032
11
144.925
21
-125.032
0
LINE
8
Black
10
144.925
20
-125.032
11
144.639
21
-124.889
0
LINE
8
Black
10
144.639
20
-124.889
11
144.496
21
-124.746
0
LINE
8
Black
10
144.496
20
-124.746
11
144.354
21
-124.461
0
LINE
8
Black
10
144.354
20
-124.461
11
144.211
21
-123.889
0
LINE
8
Black
10
144.211
20
-123.889
11
144.211
21
-123.175
0
LINE
8
Black
10
144.211
20
-123.175
11
144.354
21
-122.604
0
LINE
8
Black
10
144.354
20
-122.604
11
144.496
21
-122.318
0
LINE
8
Black
10
144.496
20
-122.318
11
144.639
21
-122.175
0
LINE
8
Black
10
144.639
20
-122.175
11
144.925
21
-122.032
0
LINE
8
Black
10
147.211
20
-124.746
11
147.354
21
-124.889
0
LINE
8
Black
10
147.354
20
-124.889
11
147.211
21
-125.032
0
LINE
8
Black
10
147.211
20
-125.032
11
147.068
21
-124.889
0
LINE
8
Black
10
147.068
20
-124.889
11
147.211
21
-124.746
0
LINE
8
Black
10
147.211
20
-124.746
11
147.211
21
-125.032
0
LINE
8
Black
10
149.211
20
-122.032
11
149.496
21
-122.032
0
LINE
8
Black
10
149.496
20
-122.032
11
149.782
21
-122.175
0
LINE
8
Black
10
149.782
20
-122.175
11
149.925
21
-122.318
0
LINE
8
Black
10
149.925
20
-122.318
11
150.068
21
-122.604
0
LINE
8
Black
10
150.068
20
-122.604
11
150.211
21
-123.175
0
LINE
8
Black
10
150.211
20
-123.175
11
150.211
21
-123.889
0
LINE
8
Black
10
150.211
20
-123.889
11
150.068
21
-124.461
0
LINE
8
Black
10
150.068
20
-124.461
11
149.925
21
-124.746
0
LINE
8
Black
10
149.925
20
-124.746
11
149.782
21
-124.889
0
LINE
8
Black
10
149.782
20
-124.889
11
149.496
21
-125.032
0
LINE
8
Black
10
149.496
20
-125.032
11
149.211
21
-125.032
0
LINE
8
Black
10
149.211
20
-125.032
11
148.925
21
-124.889
0
LINE
8
Black
10
148.925
20
-124.889
11
148.782
21
-124.746
0
LINE
8
Black
10
148.782
20
-124.746
11
148.639
21
-124.461
0
LINE
8
Black
10
148.639
20
-124.461
11
148.496
21
-123.889
0
LINE
8
Black
10
148.496
20
-123.889
11
148.496
21
-123.175
0
LINE
8
Black
10
148.496
20
-123.175
11
148.639
21
-122.604
0
LINE
8
Black
10
148.639
20
-122.604
11
148.782
21
-122.318
0
LINE
8
Black
10
148.782
20
-122.318
11
148.925
21
-122.175
0
LINE
8
Black
10
148.925
20
-122.175
11
149.211
21
-122.032
0
LINE
8
Black
10
151.354
20
-122.318
11
151.496
21
-122.175
0
LINE
8
Black
10
151.496
20
-122.175
11
151.782
21
-122.032
0
LINE
8
Black
10
151.782
20
-122.032
11
152.496
21
-122.032
0
LINE
8
Black
10
152.496
20
-122.032
11
152.782
21
-122.175
0
LINE
8
Black
10
152.782
20
-122.175
11
152.925
21
-122.318
0
LINE
8
Black
10
152.925
20
-122.318
11
153.068
21
-122.604
0
LINE
8
Black
10
153.068
20
-122.604
11
153.068
21
-122.889
0
LINE
8
Black
10
153.068
20
-122.889
11
152.925
21
-123.318
0
LINE
8
Black
10
152.925
20
-123.318
11
151.211
21
-125.032
0
LINE
8
Black
10
151.211
20
-125.032
11
153.068
21
-125.032
0
LINE
8
Black
10
154.782
20
-123.318
11
154.496
21
-123.175
0
LINE
8
Black
10
154.496
20
-123.175
11
154.354
21
-123.032
0
LINE
8
Black
10
154.354
20
-123.032
11
154.211
21
-122.746
0
LINE
8
Black
10
154.211
20
-122.746
11
154.211
21
-122.604
0
LINE
8
Black
10
154.211
20
-122.604
11
154.354
21
-122.318
0
LINE
8
Black
10
154.354
20
-122.318
11
154.496
21
-122.175
0
LINE
8
Black
10
154.496
20
-122.175
11
154.782
21
-122.032
0
LINE
8
Black
10
154.782
20
-122.032
11
155.354
21
-122.032
0
LINE
8
Black
10
155.354
20
-122.032
11
155.639
21
-122.175
0
LINE
8
Black
10
155.639
20
-122.175
11
155.782
21
-122.318
0
LINE
8
Black
10
155.782
20
-122.318
11
155.925
21
-122.604
0
LINE
8
Black
10
155.925
20
-122.604
11
155.925
21
-122.746
0
LINE
8
Black
10
155.925
20
-122.746
11
155.782
21
-123.032
0
LINE
8
Black
10
155.782
20
-123.032
11
155.639
21
-123.175
0
LINE
8
Black
10
155.639
20
-123.175
11
155.354
21
-123.318
0
LINE
8
Black
10
155.354
20
-123.318
11
154.782
21
-123.318
0
LINE
8
Black
10
154.782
20
-123.318
11
154.496
21
-123.461
0
LINE
8
Black
10
154.496
20
-123.461
11
154.354
21
-123.604
0
LINE
8
Black
10
154.354
20
-123.604
11
154.211
21
-123.889
0
LINE
8
Black
10
154.211
20
-123.889
11
154.211
21
-124.461
0
LINE
8
Black
10
154.211
20
-124.461
11
154.354
21
-124.746
0
LINE
8
Black
10
154.354
20
-124.746
11
154.496
21
-124.889
0
LINE
8
Black
10
154.496
20
-124.889
11
154.782
21
-125.032
0
LINE
8
Black
10
154.782
20
-125.032
11
155.354
21
-125.032
0
LINE
8
Black
10
155.354
20
-125.032
11
155.639
21
-124.889
0
LINE
8
Black
10
155.639
20
-124.889
11
155.782
21
-124.746
0
LINE
8
Black
10
155.782
20
-124.746
11
155.925
21
-124.461
0
LINE
8
Black
10
155.925
20
-124.461
11
155.925
21
-123.889
0
LINE
8
Black
10
155.925
20
-123.889
11
155.782
21
-123.604
0
LINE
8
Black
10
155.782
20
-123.604
11
155.639
21
-123.461
0
LINE
8
Black
10
155.639
20
-123.461
11
155.354
21
-123.318
0
LINE
8
Black
10
157.068
20
-122.032
11
157.068
21
-122.604
0
LINE
8
Black
10
158.211
20
-122.032
11
158.211
21
-122.604
0
LINE
8
Black
10
162.639
20
-126.175
11
162.496
21
-126.032
0
LINE
8
Black
10
162.496
20
-126.032
11
162.211
21
-125.604
0
LINE
8
Black
10
162.211
20
-125.604
11
162.068
21
-125.318
0
LINE
8
Black
10
162.068
20
-125.318
11
161.925
21
-124.889
0
LINE
8
Black
10
161.925
20
-124.889
11
161.782
21
-124.175
0
LINE
8
Black
10
161.782
20
-124.175
11
161.782
21
-123.604
0
LINE
8
Black
10
161.782
20
-123.604
11
161.925
21
-122.889
0
LINE
8
Black
10
161.925
20
-122.889
11
162.068
21
-122.461
0
LINE
8
Black
10
162.068
20
-122.461
11
162.211
21
-122.175
0
LINE
8
Black
10
162.211
20
-122.175
11
162.496
21
-121.746
0
LINE
8
Black
10
162.496
20
-121.746
11
162.639
21
-121.604
0
LINE
8
Black
10
165.068
20
-123.032
11
165.068
21
-125.032
0
LINE
8
Black
10
164.354
20
-121.889
11
163.639
21
-124.032
0
LINE
8
Black
10
163.639
20
-124.032
11
165.496
21
-124.032
0
LINE
8
Black
10
168.925
20
-125.032
11
168.925
21
-122.032
0
LINE
8
Black
10
170.211
20
-125.032
11
170.211
21
-123.461
0
LINE
8
Black
10
170.211
20
-123.461
11
170.068
21
-123.175
0
LINE
8
Black
10
170.068
20
-123.175
11
169.782
21
-123.032
0
LINE
8
Black
10
169.782
20
-123.032
11
169.354
21
-123.032
0
LINE
8
Black
10
169.354
20
-123.032
11
169.068
21
-123.175
0
LINE
8
Black
10
169.068
20
-123.175
11
168.925
21
-123.318
0
LINE
8
Black
10
172.068
20
-125.032
11
171.782
21
-124.889
0
LINE
8
Black
10
171.782
20
-124.889
11
171.639
21
-124.746
0
LINE
8
Black
10
171.639
20
-124.746
11
171.496
21
-124.461
0
LINE
8
Black
10
171.496
20
-124.461
11
171.496
21
-123.604
0
LINE
8
Black
10
171.496
20
-123.604
11
171.639
21
-123.318
0
LINE
8
Black
10
171.639
20
-123.318
11
171.782
21
-123.175
0
LINE
8
Black
10
171.782
20
-123.175
11
172.068
21
-123.032
0
LINE
8
Black
10
172.068
20
-123.032
11
172.496
21
-123.032
0
LINE
8
Black
10
172.496
20
-123.032
11
172.782
21
-123.175
0
LINE
8
Black
10
172.782
20
-123.175
11
172.925
21
-123.318
0
LINE
8
Black
10
172.925
20
-123.318
11
173.068
21
-123.604
0
LINE
8
Black
10
173.068
20
-123.604
11
173.068
21
-124.461
0
LINE
8
Black
10
173.068
20
-124.461
11
172.925
21
-124.746
0
LINE
8
Black
10
172.925
20
-124.746
11
172.782
21
-124.889
0
LINE
8
Black
10
172.782
20
-124.889
11
172.496
21
-125.032
0
LINE
8
Black
10
172.496
20
-125.032
11
172.068
21
-125.032
0
LINE
8
Black
10
174.782
20
-125.032
11
174.496
21
-124.889
0
LINE
8
Black
10
174.496
20
-124.889
11
174.354
21
-124.604
0
LINE
8
Black
10
174.354
20
-124.604
11
174.354
21
-122.032
0
LINE
8
Black
10
177.068
20
-124.889
11
176.782
21
-125.032
0
LINE
8
Black
10
176.782
20
-125.032
11
176.211
21
-125.032
0
LINE
8
Black
10
176.211
20
-125.032
11
175.925
21
-124.889
0
LINE
8
Black
10
175.925
20
-124.889
11
175.782
21
-124.604
0
LINE
8
Black
10
175.782
20
-124.604
11
175.782
21
-123.461
0
LINE
8
Black
10
175.782
20
-123.461
11
175.925
21
-123.175
0
LINE
8
Black
10
175.925
20
-123.175
11
176.211
21
-123.032
0
LINE
8
Black
10
176.211
20
-123.032
11
176.782
21
-123.032
0
LINE
8
Black
10
176.782
20
-123.032
11
177.068
21
-123.175
0
LINE
8
Black
10
177.068
20
-123.175
11
177.211
21
-123.461
0
LINE
8
Black
10
177.211
20
-123.461
11
177.211
21
-123.746
0
LINE
8
Black
10
177.211
20
-123.746
11
175.782
21
-124.032
0
LINE
8
Black
10
178.354
20
-124.889
11
178.639
21
-125.032
0
LINE
8
Black
10
178.639
20
-125.032
11
179.211
21
-125.032
0
LINE
8
Black
10
179.211
20
-125.032
11
179.496
21
-124.889
0
LINE
8
Black
10
179.496
20
-124.889
11
179.639
21
-124.604
0
LINE
8
Black
10
179.639
20
-124.604
11
179.639
21
-124.461
0
LINE
8
Black
10
179.639
20
-124.461
11
179.496
21
-124.175
0
LINE
8
Black
10
179.496
20
-124.175
11
179.211
21
-124.032
0
LINE
8
Black
10
179.211
20
-124.032
11
178.782
21
-124.032
0
LINE
8
Black
10
178.782
20
-124.032
11
178.496
21
-123.889
0
LINE
8
Black
10
178.496
20
-123.889
11
178.354
21
-123.604
0
LINE
8
Black
10
178.354
20
-123.604
11
178.354
21
-123.461
0
LINE
8
Black
10
178.354
20
-123.461
11
178.496
21
-123.175
0
LINE
8
Black
10
178.496
20
-123.175
11
178.782
21
-123.032
0
LINE
8
Black
10
178.782
20
-123.032
11
179.211
21
-123.032
0
LINE
8
Black
10
179.211
20
-123.032
11
179.496
21
-123.175
0
LINE
8
Black
10
180.639
20
-126.175
11
180.782
21
-126.032
0
LINE
8
Black
10
180.782
20
-126.032
11
181.068
21
-125.604
0
LINE
8
Black
10
181.068
20
-125.604
11
181.211
21
-125.318
0
LINE
8
Black
10
181.211
20
-125.318
11
181.354
21
-124.889
0
LINE
8
Black
10
181.354
20
-124.889
11
181.496
21
-124.175
0
LINE
8
Black
10
181.496
20
-124.175
11
181.496
21
-123.604
0
LINE
8
Black
10
181.496
20
-123.604
11
181.354
21
-122.889
0
LINE
8
Black
10
181.354
20
-122.889
11
181.211
21
-122.461
0
LINE
8
Black
10
181.211
20
-122.461
11
181.068
21
-122.175
0
LINE
8
Black
10
181.068
20
-122.175
11
180.782
21
-121.746
0
LINE
8
Black
10
180.782
20
-121.746
11
180.639
21
-121.604
0
CIRCLE
8
Black
10
115.425
20
-127.635
40
0.5
0
LINE
8
Black
10
120.211
20
-128.992
11
118.496
21
-128.992
0
LINE
8
Black
10
119.354
20
-128.992
11
119.354
21
-125.992
0
LINE
8
Black
10
119.354
20
-125.992
11
119.068
21
-126.421
0
LINE
8
Black
10
119.068
20
-126.421
11
118.782
21
-126.706
0
LINE
8
Black
10
118.782
20
-126.706
11
118.496
21
-126.849
0
LINE
8
Black
10
121.496
20
-128.706
11
121.639
21
-128.849
0
LINE
8
Black
10
121.639
20
-128.849
11
121.496
21
-128.992
0
LINE
8
Black
10
121.496
20
-128.992
11
121.354
21
-128.849
0
LINE
8
Black
10
121.354
20
-128.849
11
121.496
21
-128.706
0
LINE
8
Black
10
121.496
20
-128.706
11
121.496
21
-128.992
0
LINE
8
Black
10
123.496
20
-125.992
11
123.782
21
-125.992
0
LINE
8
Black
10
123.782
20
-125.992
11
124.068
21
-126.135
0
LINE
8
Black
10
124.068
20
-126.135
11
124.211
21
-126.278
0
LINE
8
Black
10
124.211
20
-126.278
11
124.354
21
-126.564
0
LINE
8
Black
10
124.354
20
-126.564
11
124.496
21
-127.135
0
LINE
8
Black
10
124.496
20
-127.135
11
124.496
21
-127.849
0
LINE
8
Black
10
124.496
20
-127.849
11
124.354
21
-128.421
0
LINE
8
Black
10
124.354
20
-128.421
11
124.211
21
-128.706
0
LINE
8
Black
10
124.211
20
-128.706
11
124.068
21
-128.849
0
LINE
8
Black
10
124.068
20
-128.849
11
123.782
21
-128.992
0
LINE
8
Black
10
123.782
20
-128.992
11
123.496
21
-128.992
0
LINE
8
Black
10
123.496
20
-128.992
11
123.211
21
-128.849
0
LINE
8
Black
10
123.211
20
-128.849
11
123.068
21
-128.706
0
LINE
8
Black
10
123.068
20
-128.706
11
122.925
21
-128.421
0
LINE
8
Black
10
122.925
20
-128.421
11
122.782
21
-127.849
0
LINE
8
Black
10
122.782
20
-127.849
11
122.782
21
-127.135
0
LINE
8
Black
10
122.782
20
-127.135
11
122.925
21
-126.564
0
LINE
8
Black
10
122.925
20
-126.564
11
123.068
21
-126.278
0
LINE
8
Black
10
123.068
20
-126.278
11
123.211
21
-126.135
0
LINE
8
Black
10
123.211
20
-126.135
11
123.496
21
-125.992
0
LINE
8
Black
10
126.354
20
-125.992
11
126.639
21
-125.992
0
LINE
8
Black
10
126.639
20
-125.992
11
126.925
21
-126.135
0
LINE
8
Black
10
126.925
20
-126.135
11
127.068
21
-126.278
0
LINE
8
Black
10
127.068
20
-126.278
11
127.211
21
-126.564
0
LINE
8
Black
10
127.211
20
-126.564
11
127.354
21
-127.135
0
LINE
8
Black
10
127.354
20
-127.135
11
127.354
21
-127.849
0
LINE
8
Black
10
127.354
20
-127.849
11
127.211
21
-128.421
0
LINE
8
Black
10
127.211
20
-128.421
11
127.068
21
-128.706
0
LINE
8
Black
10
127.068
20
-128.706
11
126.925
21
-128.849
0
LINE
8
Black
10
126.925
20
-128.849
11
126.639
21
-128.992
0
LINE
8
Black
10
126.639
20
-128.992
11
126.354
21
-128.992
0
LINE
8
Black
10
126.354
20
-128.992
11
126.068
21
-128.849
0
LINE
8
Black
10
126.068
20
-128.849
11
125.925
21
-128.706
0
LINE
8
Black
10
125.925
20
-128.706
11
125.782
21
-128.421
0
LINE
8
Black
10
125.782
20
-128.421
11
125.639
21
-127.849
0
LINE
8
Black
10
125.639
20
-127.849
11
125.639
21
-127.135
0
LINE
8
Black
10
125.639
20
-127.135
11
125.782
21
-126.564
0
LINE
8
Black
10
125.782
20
-126.564
11
125.925
21
-126.278
0
LINE
8
Black
10
125.925
20
-126.278
11
126.068
21
-126.135
0
LINE
8
Black
10
126.068
20
-126.135
11
126.354
21
-125.992
0
LINE
8
Black
10
128.639
20
-128.992
11
128.639
21
-126.992
0
LINE
8
Black
10
128.639
20
-127.278
11
128.782
21
-127.135
0
LINE
8
Black
10
128.782
20
-127.135
11
129.068
21
-126.992
0
LINE
8
Black
10
129.068
20
-126.992
11
129.496
21
-126.992
0
LINE
8
Black
10
129.496
20
-126.992
11
129.782
21
-127.135
0
LINE
8
Black
10
129.782
20
-127.135
11
129.925
21
-127.421
0
LINE
8
Black
10
129.925
20
-127.421
11
129.925
21
-128.992
0
LINE
8
Black
10
129.925
20
-127.421
11
130.068
21
-127.135
0
LINE
8
Black
10
130.068
20
-127.135
11
130.354
21
-126.992
0
LINE
8
Black
10
130.354
20
-126.992
11
130.782
21
-126.992
0
LINE
8
Black
10
130.782
20
-126.992
11
131.068
21
-127.135
0
LINE
8
Black
10
131.068
20
-127.135
11
131.211
21
-127.421
0
LINE
8
Black
10
131.211
20
-127.421
11
131.211
21
-128.992
0
LINE
8
Black
10
132.639
20
-128.992
11
132.639
21
-126.992
0
LINE
8
Black
10
132.639
20
-127.278
11
132.782
21
-127.135
0
LINE
8
Black
10
132.782
20
-127.135
11
133.068
21
-126.992
0
LINE
8
Black
10
133.068
20
-126.992
11
133.496
21
-126.992
0
LINE
8
Black
10
133.496
20
-126.992
11
133.782
21
-127.135
0
LINE
8
Black
10
133.782
20
-127.135
11
133.925
21
-127.421
0
LINE
8
Black
10
133.925
20
-127.421
11
133.925
21
-128.992
0
LINE
8
Black
10
133.925
20
-127.421
11
134.068
21
-127.135
0
LINE
8
Black
10
134.068
20
-127.135
11
134.354
21
-126.992
0
LINE
8
Black
10
134.354
20
-126.992
11
134.782
21
-126.992
0
LINE
8
Black
10
134.782
20
-126.992
11
135.068
21
-127.135
0
LINE
8
Black
10
135.068
20
-127.135
11
135.211
21
-127.421
0
LINE
8
Black
10
135.211
20
-127.421
11
135.211
21
-128.992
0
LINE
8
Black
10
141.068
20
-125.849
11
138.496
21
-129.706
0
LINE
8
Black
10
144.925
20
-125.992
11
145.211
21
-125.992
0
LINE
8
Black
10
145.211
20
-125.992
11
145.496
21
-126.135
0
LINE
8
Black
10
145.496
20
-126.135
11
145.639
21
-126.278
0
LINE
8
Black
10
145.639
20
-126.278
11
145.782
21
-126.564
0
LINE
8
Black
10
145.782
20
-126.564
11
145.925
21
-127.135
0
LINE
8
Black
10
145.925
20
-127.135
11
145.925
21
-127.849
0
LINE
8
Black
10
145.925
20
-127.849
11
145.782
21
-128.421
0
LINE
8
Black
10
145.782
20
-128.421
11
145.639
21
-128.706
0
LINE
8
Black
10
145.639
20
-128.706
11
145.496
21
-128.849
0
LINE
8
Black
10
145.496
20
-128.849
11
145.211
21
-128.992
0
LINE
8
Black
10
145.211
20
-128.992
11
144.925
21
-128.992
0
LINE
8
Black
10
144.925
20
-128.992
11
144.639
21
-128.849
0
LINE
8
Black
10
144.639
20
-128.849
11
144.496
21
-128.706
0
LINE
8
Black
10
144.496
20
-128.706
11
144.354
21
-128.421
0
LINE
8
Black
10
144.354
20
-128.421
11
144.211
21
-127.849
0
LINE
8
Black
10
144.211
20
-127.849
11
144.211
21
-127.135
0
LINE
8
Black
10
144.211
20
-127.135
11
144.354
21
-126.564
0
LINE
8
Black
10
144.354
20
-126.564
11
144.496
21
-126.278
0
LINE
8
Black
10
144.496
20
-126.278
11
144.639
21
-126.135
0
LINE
8
Black
10
144.639
20
-126.135
11
144.925
21
-125.992
0
LINE
8
Black
10
147.211
20
-128.706
11
147.354
21
-128.849
0
LINE
8
Black
10
147.354
20
-128.849
11
147.211
21
-128.992
0
LINE
8
Black
10
147.211
20
-128.992
11
147.068
21
-128.849
0
LINE
8
Black
10
147.068
20
-128.849
11
147.211
21
-128.706
0
LINE
8
Black
10
147.211
20
-128.706
11
147.211
21
-128.992
0
LINE
8
Black
10
149.211
20
-125.992
11
149.496
21
-125.992
0
LINE
8
Black
10
149.496
20
-125.992
11
149.782
21
-126.135
0
LINE
8
Black
10
149.782
20
-126.135
11
149.925
21
-126.278
0
LINE
8
Black
10
149.925
20
-126.278
11
150.068
21
-126.564
0
LINE
8
Black
10
150.068
20
-126.564
11
150.211
21
-127.135
0
LINE
8
Black
10
150.211
20
-127.135
11
150.211
21
-127.849
0
LINE
8
Black
10
150.211
20
-127.849
11
150.068
21
-128.421
0
LINE
8
Black
10
150.068
20
-128.421
11
149.925
21
-128.706
0
LINE
8
Black
10
149.925
20
-128.706
11
149.782
21
-128.849
0
LINE
8
Black
10
149.782
20
-128.849
11
149.496
21
-128.992
0
LINE
8
Black
10
149.496
20
-128.992
11
149.211
21
-128.992
0
LINE
8
Black
10
149.211
20
-128.992
11
148.925
21
-128.849
0
LINE
8
Black
10
148.925
20
-128.849
11
148.782
21
-128.706
0
LINE
8
Black
10
148.782
20
-128.706
11
148.639
21
-128.421
0
LINE
8
Black
10
148.639
20
-128.421
11
148.496
21
-127.849
0
LINE
8
Black
10
148.496
20
-127.849
11
148.496
21
-127.135
0
LINE
8
Black
10
148.496
20
-127.135
11
148.639
21
-126.564
0
LINE
8
Black
10
148.639
20
-126.564
11
148.782
21
-126.278
0
LINE
8
Black
10
148.782
20
-126.278
11
148.925
21
-126.135
0
LINE
8
Black
10
148.925
20
-126.135
11
149.211
21
-125.992
0
LINE
8
Black
10
151.211
20
-125.992
11
153.068
21
-125.992
0
LINE
8
Black
10
153.068
20
-125.992
11
152.068
21
-127.135
0
LINE
8
Black
10
152.068
20
-127.135
11
152.496
21
-127.135
0
LINE
8
Black
10
152.496
20
-127.135
11
152.782
21
-127.278
0
LINE
8
Black
10
152.782
20
-127.278
11
152.925
21
-127.421
0
LINE
8
Black
10
152.925
20
-127.421
11
153.068
21
-127.706
0
LINE
8
Black
10
153.068
20
-127.706
11
153.068
21
-128.421
0
LINE
8
Black
10
153.068
20
-128.421
11
152.925
21
-128.706
0
LINE
8
Black
10
152.925
20
-128.706
11
152.782
21
-128.849
0
LINE
8
Black
10
152.782
20
-128.849
11
152.496
21
-128.992
0
LINE
8
Black
10
152.496
20
-128.992
11
151.639
21
-128.992
0
LINE
8
Black
10
151.639
20
-128.992
11
151.354
21
-128.849
0
LINE
8
Black
10
151.354
20
-128.849
11
151.211
21
-128.706
0
LINE
8
Black
10
154.496
20
-128.992
11
155.068
21
-128.992
0
LINE
8
Black
10
155.068
20
-128.992
11
155.354
21
-128.849
0
LINE
8
Black
10
155.354
20
-128.849
11
155.496
21
-128.706
0
LINE
8
Black
10
155.496
20
-128.706
11
155.782
21
-128.278
0
LINE
8
Black
10
155.782
20
-128.278
11
155.925
21
-127.706
0
LINE
8
Black
10
155.925
20
-127.706
11
155.925
21
-126.564
0
LINE
8
Black
10
155.925
20
-126.564
11
155.782
21
-126.278
0
LINE
8
Black
10
155.782
20
-126.278
11
155.639
21
-126.135
0
LINE
8
Black
10
155.639
20
-126.135
11
155.354
21
-125.992
0
LINE
8
Black
10
155.354
20
-125.992
11
154.782
21
-125.992
0
LINE
8
Black
10
154.782
20
-125.992
11
154.496
21
-126.135
0
LINE
8
Black
10
154.496
20
-126.135
11
154.354
21
-126.278
0
LINE
8
Black
10
154.354
20
-126.278
11
154.211
21
-126.564
0
LINE
8
Black
10
154.211
20
-126.564
11
154.211
21
-127.278
0
LINE
8
Black
10
154.211
20
-127.278
11
154.354
21
-127.564
0
LINE
8
Black
10
154.354
20
-127.564
11
154.496
21
-127.706
0
LINE
8
Black
10
154.496
20
-127.706
11
154.782
21
-127.849
0
LINE
8
Black
10
154.782
20
-127.849
11
155.354
21
-127.849
0
LINE
8
Black
10
155.354
20
-127.849
11
155.639
21
-127.706
0
LINE
8
Black
10
155.639
20
-127.706
11
155.782
21
-127.564
0
LINE
8
Black
10
155.782
20
-127.564
11
155.925
21
-127.278
0
LINE
8
Black
10
157.068
20
-125.992
11
157.068
21
-126.564
0
LINE
8
Black
10
158.211
20
-125.992
11
158.211
21
-126.564
0
LINE
8
Black
10
162.639
20
-130.135
11
162.496
21
-129.992
0
LINE
8
Black
10
162.496
20
-129.992
11
162.211
21
-129.564
0
LINE
8
Black
10
162.211
20
-129.564
11
162.068
21
-129.278
0
LINE
8
Black
10
162.068
20
-129.278
11
161.925
21
-128.849
0
LINE
8
Black
10
161.925
20
-128.849
11
161.782
21
-128.135
0
LINE
8
Black
10
161.782
20
-128.135
11
161.782
21
-127.564
0
LINE
8
Black
10
161.782
20
-127.564
11
161.925
21
-126.849
0
LINE
8
Black
10
161.925
20
-126.849
11
162.068
21
-126.421
0
LINE
8
Black
10
162.068
20
-126.421
11
162.211
21
-126.135
0
LINE
8
Black
10
162.211
20
-126.135
11
162.496
21
-125.706
0
LINE
8
Black
10
162.496
20
-125.706
11
162.639
21
-125.564
0
LINE
8
Black
10
165.068
20
-125.992
11
164.496
21
-125.992
0
LINE
8
Black
10
164.496
20
-125.992
11
164.211
21
-126.135
0
LINE
8
Black
10
164.211
20
-126.135
11
164.068
21
-126.278
0
LINE
8
Black
10
164.068
20
-126.278
11
163.782
21
-126.706
0
LINE
8
Black
10
163.782
20
-126.706
11
163.639
21
-127.278
0
LINE
8
Black
10
163.639
20
-127.278
11
163.639
21
-128.421
0
LINE
8
Black
10
163.639
20
-128.421
11
163.782
21
-128.706
0
LINE
8
Black
10
163.782
20
-128.706
11
163.925
21
-128.849
0
LINE
8
Black
10
163.925
20
-128.849
11
164.211
21
-128.992
0
LINE
8
Black
10
164.211
20
-128.992
11
164.782
21
-128.992
0
LINE
8
Black
10
164.782
20
-128.992
11
165.068
21
-128.849
0
LINE
8
Black
10
165.068
20
-128.849
11
165.211
21
-128.706
0
LINE
8
Black
10
165.211
20
-128.706
11
165.354
21
-128.421
0
LINE
8
Black
10
165.354
20
-128.421
11
165.354
21
-127.706
0
LINE
8
Black
10
165.354
20
-127.706
11
165.211
21
-127.421
0
LINE
8
Black
10
165.211
20
-127.421
11
165.068
21
-127.278
0
LINE
8
Black
10
165.068
20
-127.278
11
164.782
21
-127.135
0
LINE
8
Black
10
164.782
20
-127.135
11
164.211
21
-127.135
0
LINE
8
Black
10
164.211
20
-127.135
11
163.925
21
-127.278
0
LINE
8
Black
10
163.925
20
-127.278
11
163.782
21
-127.421
0
LINE
8
Black
10
163.782
20
-127.421
11
163.639
21
-127.706
0
LINE
8
Black
10
168.925
20
-128.992
11
168.925
21
-125.992
0
LINE
8
Black
10
170.211
20
-128.992
11
170.211
21
-127.421
0
LINE
8
Black
10
170.211
20
-127.421
11
170.068
21
-127.135
0
LINE
8
Black
10
170.068
20
-127.135
11
169.782
21
-126.992
0
LINE
8
Black
10
169.782
20
-126.992
11
169.354
21
-126.992
0
LINE
8
Black
10
169.354
20
-126.992
11
169.068
21
-127.135
0
LINE
8
Black
10
169.068
20
-127.135
11
168.925
21
-127.278
0
LINE
8
Black
10
172.068
20
-128.992
11
171.782
21
-128.849
0
LINE
8
Black
10
171.782
20
-128.849
11
171.639
21
-128.706
0
LINE
8
Black
10
171.639
20
-128.706
11
171.496
21
-128.421
0
LINE
8
Black
10
171.496
20
-128.421
11
171.496
21
-127.564
0
LINE
8
Black
10
171.496
20
-127.564
11
171.639
21
-127.278
0
LINE
8
Black
10
171.639
20
-127.278
11
171.782
21
-127.135
0
LINE
8
Black
10
171.782
20
-127.135
11
172.068
21
-126.992
0
LINE
8
Black
10
172.068
20
-126.992
11
172.496
21
-126.992
0
LINE
8
Black
10
172.496
20
-126.992
11
172.782
21
-127.135
0
LINE
8
Black
10
172.782
20
-127.135
11
172.925
21
-127.278
0
LINE
8
Black
10
172.925
20
-127.278
11
173.068
21
-127.564
0
LINE
8
Black
10
173.068
20
-127.564
11
173.068
21
-128.421
0
LINE
8
Black
10
173.068
20
-128.421
11
172.925
21
-128.706
0
LINE
8
Black
10
172.925
20
-128.706
11
172.782
21
-128.849
0
LINE
8
Black
10
172.782
20
-128.849
11
172.496
21
-128.992
0
LINE
8
Black
10
172.496
20
-128.992
11
172.068
21
-128.992
0
LINE
8
Black
10
174.782
20
-128.992
11
174.496
21
-128.849
0
LINE
8
Black
10
174.496
20
-128.849
11
174.354
21
-128.564
0
LINE
8
Black
10
174.354
20
-128.564
11
174.354
21
-125.992
0
LINE
8
Black
10
177.068
20
-128.849
11
176.782
21
-128.992
0
LINE
8
Black
10
176.782
20
-128.992
11
176.211
21
-128.992
0
LINE
8
Black
10
176.211
20
-128.992
11
175.925
21
-128.849
0
LINE
8
Black
10
175.925
20
-128.849
11
175.782
21
-128.564
0
LINE
8
Black
10
175.782
20
-128.564
11
175.782
21
-127.421
0
LINE
8
Black
10
175.782
20
-127.421
11
175.925
21
-127.135
0
LINE
8
Black
10
175.925
20
-127.135
11
176.211
21
-126.992
0
LINE
8
Black
10
176.211
20
-126.992
11
176.782
21
-126.992
0
LINE
8
Black
10
176.782
20
-126.992
11
177.068
21
-127.135
0
LINE
8
Black
10
177.068
20
-127.135
11
177.211
21
-127.421
0
LINE
8
Black
10
177.211
20
-127.421
11
177.211
21
-127.706
0
LINE
8
Black
10
177.211
20
-127.706
11
175.782
21
-127.992
0
LINE
8
Black
10
178.354
20
-128.849
11
178.639
21
-128.992
0
LINE
8
Black
10
178.639
20
-128.992
11
179.211
21
-128.992
0
LINE
8
Black
10
179.211
20
-128.992
11
179.496
21
-128.849
0
LINE
8
Black
10
179.496
20
-128.849
11
179.639
21
-128.564
0
LINE
8
Black
10
179.639
20
-128.564
11
179.639
21
-128.421
0
LINE
8
Black
10
179.639
20
-128.421
11
179.496
21
-128.135
0
LINE
8
Black
10
179.496
20
-128.135
11
179.211
21
-127.992
0
LINE
8
Black
10
179.211
20
-127.992
11
178.782
21
-127.992
0
LINE
8
Black
10
178.782
20
-127.992
11
178.496
21
-127.849
0
LINE
8
Black
10
178.496
20
-127.849
11
178.354
21
-127.564
0
LINE
8
Black
10
178.354
20
-127.564
11
178.354
21
-127.421
0
LINE
8
Black
10
178.354
20
-127.421
11
178.496
21
-127.135
0
LINE
8
Black
10
178.496
20
-127.135
11
178.782
21
-126.992
0
LINE
8
Black
10
178.782
20
-126.992
11
179.211
21
-126.992
0
LINE
8
Black
10
179.211
20
-126.992
11
179.496
21
-127.135
0
LINE
8
Black
10
180.639
20
-130.135
11
180.782
21
-129.992
0
LINE
8
Black
10
180.782
20
-129.992
11
181.068
21
-129.564
0
LINE
8
Black
10
181.068
20
-129.564
11
181.211
21
-129.278
0
LINE
8
Black
10
181.211
20
-129.278
11
181.354
21
-128.849
0
LINE
8
Black
10
181.354
20
-128.849
11
181.496
21
-128.135
0
LINE
8
Black
10
181.496
20
-128.135
11
181.496
21
-127.564
0
LINE
8
Black
10
181.496
20
-127.564
11
181.354
21
-126.849
0
LINE
8
Black
10
181.354
20
-126.849
11
181.211
21
-126.421
0
LINE
8
Black
10
181.211
20
-126.421
11
181.068
21
-126.135
0
LINE
8
Black
10
181.068
20
-126.135
11
180.782
21
-125.706
0
LINE
8
Black
10
180.782
20
-125.706
11
180.639
21
-125.564
0
LINE
8
Black
10
114.425
20
-130.095
11
114.425
21
-133.095
0
LINE
8
Black
10
112.925
20
-131.595
11
115.925
21
-131.595
0
LINE
8
Black
10
118.354
20
-129.952
11
120.211
21
-129.952
0
LINE
8
Black
10
120.211
20
-129.952
11
119.211
21
-131.095
0
LINE
8
Black
10
119.211
20
-131.095
11
119.639
21
-131.095
0
LINE
8
Black
10
119.639
20
-131.095
11
119.925
21
-131.238
0
LINE
8
Black
10
119.925
20
-131.238
11
120.068
21
-131.381
0
LINE
8
Black
10
120.068
20
-131.381
11
120.211
21
-131.666
0
LINE
8
Black
10
120.211
20
-131.666
11
120.211
21
-132.381
0
LINE
8
Black
10
120.211
20
-132.381
11
120.068
21
-132.666
0
LINE
8
Black
10
120.068
20
-132.666
11
119.925
21
-132.809
0
LINE
8
Black
10
119.925
20
-132.809
11
119.639
21
-132.952
0
LINE
8
Black
10
119.639
20
-132.952
11
118.782
21
-132.952
0
LINE
8
Black
10
118.782
20
-132.952
11
118.496
21
-132.809
0
LINE
8
Black
10
118.496
20
-132.809
11
118.354
21
-132.666
0
LINE
8
Black
10
121.496
20
-132.666
11
121.639
21
-132.809
0
LINE
8
Black
10
121.639
20
-132.809
11
121.496
21
-132.952
0
LINE
8
Black
10
121.496
20
-132.952
11
121.354
21
-132.809
0
LINE
8
Black
10
121.354
20
-132.809
11
121.496
21
-132.666
0
LINE
8
Black
10
121.496
20
-132.666
11
121.496
21
-132.952
0
LINE
8
Black
10
123.496
20
-129.952
11
123.782
21
-129.952
0
LINE
8
Black
10
123.782
20
-129.952
11
124.068
21
-130.095
0
LINE
8
Black
10
124.068
20
-130.095
11
124.211
21
-130.238
0
LINE
8
Black
10
124.211
20
-130.238
11
124.354
21
-130.524
0
LINE
8
Black
10
124.354
20
-130.524
11
124.496
21
-131.095
0
LINE
8
Black
10
124.496
20
-131.095
11
124.496
21
-131.809
0
LINE
8
Black
10
124.496
20
-131.809
11
124.354
21
-132.381
0
LINE
8
Black
10
124.354
20
-132.381
11
124.211
21
-132.666
0
LINE
8
Black
10
124.211
20
-132.666
11
124.068
21
-132.809
0
LINE
8
Black
10
124.068
20
-132.809
11
123.782
21
-132.952
0
LINE
8
Black
10
123.782
20
-132.952
11
123.496
21
-132.952
0
LINE
8
Black
10
123.496
20
-132.952
11
123.211
21
-132.809
0
LINE
8
Black
10
123.211
20
-132.809
11
123.068
21
-132.666
0
LINE
8
Black
10
123.068
20
-132.666
11
122.925
21
-132.381
0
LINE
8
Black
10
122.925
20
-132.381
11
122.782
21
-131.809
0
LINE
8
Black
10
122.782
20
-131.809
11
122.782
21
-131.095
0
LINE
8
Black
10
122.782
20
-131.095
11
122.925
21
-130.524
0
LINE
8
Black
10
122.925
20
-130.524
11
123.068
21
-130.238
0
LINE
8
Black
10
123.068
20
-130.238
11
123.211
21
-130.095
0
LINE
8
Black
10
123.211
20
-130.095
11
123.496
21
-129.952
0
LINE
8
Black
10
126.354
20
-129.952
11
126.639
21
-129.952
0
LINE
8
Black
10
126.639
20
-129.952
11
126.925
21
-130.095
0
LINE
8
Black
10
126.925
20
-130.095
11
127.068
21
-130.238
0
LINE
8
Black
10
127.068
20
-130.238
11
127.211
21
-130.524
0
LINE
8
Black
10
127.211
20
-130.524
11
127.354
21
-131.095
0
LINE
8
Black
10
127.354
20
-131.095
11
127.354
21
-131.809
0
LINE
8
Black
10
127.354
20
-131.809
11
127.211
21
-132.381
0
LINE
8
Black
10
127.211
20
-132.381
11
127.068
21
-132.666
0
LINE
8
Black
10
127.068
20
-132.666
11
126.925
21
-132.809
0
LINE
8
Black
10
126.925
20
-132.809
11
126.639
21
-132.952
0
LINE
8
Black
10
126.639
20
-132.952
11
126.354
21
-132.952
0
LINE
8
Black
10
126.354
20
-132.952
11
126.068
21
-132.809
0
LINE
8
Black
10
126.068
20
-132.809
11
125.925
21
-132.666
0
LINE
8
Black
10
125.925
20
-132.666
11
125.782
21
-132.381
0
LINE
8
Black
10
125.782
20
-132.381
11
125.639
21
-131.809
0
LINE
8
Black
10
125.639
20
-131.809
11
125.639
21
-131.095
0
LINE
8
Black
10
125.639
20
-131.095
11
125.782
21
-130.524
0
LINE
8
Black
10
125.782
20
-130.524
11
125.925
21
-130.238
0
LINE
8
Black
10
125.925
20
-130.238
11
126.068
21
-130.095
0
LINE
8
Black
10
126.068
20
-130.095
11
126.354
21
-129.952
0
LINE
8
Black
10
128.639
20
-132.952
11
128.639
21
-130.952
0
LINE
8
Black
10
128.639
20
-131.238
11
128.782
21
-131.095
0
LINE
8
Black
10
128.782
20
-131.095
11
129.068
21
-130.952
0
LINE
8
Black
10
129.068
20
-130.952
11
129.496
21
-130.952
0
LINE
8
Black
10
129.496
20
-130.952
11
129.782
21
-131.095
0
LINE
8
Black
10
129.782
20
-131.095
11
129.925
21
-131.381
0
LINE
8
Black
10
129.925
20
-131.381
11
129.925
21
-132.952
0
LINE
8
Black
10
129.925
20
-131.381
11
130.068
21
-131.095
0
LINE
8
Black
10
130.068
20
-131.095
11
130.354
21
-130.952
0
LINE
8
Black
10
130.354
20
-130.952
11
130.782
21
-130.952
0
LINE
8
Black
10
130.782
20
-130.952
11
131.068
21
-131.095
0
LINE
8
Black
10
131.068
20
-131.095
11
131.211
21
-131.381
0
LINE
8
Black
10
131.211
20
-131.381
11
131.211
21
-132.952
0
LINE
8
Black
10
132.639
20
-132.952
11
132.639
21
-130.952
0
LINE
8
Black
10
132.639
20
-131.238
11
132.782
21
-131.095
0
LINE
8
Black
10
132.782
20
-131.095
11
133.068
21
-130.952
0
LINE
8
Black
10
133.068
20
-130.952
11
133.496
21
-130.952
0
LINE
8
Black
10
133.496
20
-130.952
11
133.782
21
-131.095
0
LINE
8
Black
10
133.782
20
-131.095
11
133.925
21
-131.381
0
LINE
8
Black
10
133.925
20
-131.381
11
133.925
21
-132.952
0
LINE
8
Black
10
133.925
20
-131.381
11
134.068
21
-131.095
0
LINE
8
Black
10
134.068
20
-131.095
11
134.354
21
-130.952
0
LINE
8
Black
10
134.354
20
-130.952
11
134.782
21
-130.952
0
LINE
8
Black
10
134.782
20
-130.952
11
135.068
21
-131.095
0
LINE
8
Black
10
135.068
20
-131.095
11
135.211
21
-131.381
0
LINE
8
Black
10
135.211
20
-131.381
11
135.211
21
-132.952
0
LINE
8
Black
10
141.068
20
-129.809
11
138.496
21
-133.666
0
LINE
8
Black
10
144.925
20
-129.952
11
145.211
21
-129.952
0
LINE
8
Black
10
145.211
20
-129.952
11
145.496
21
-130.095
0
LINE
8
Black
10
145.496
20
-130.095
11
145.639
21
-130.238
0
LINE
8
Black
10
145.639
20
-130.238
11
145.782
21
-130.524
0
LINE
8
Black
10
145.782
20
-130.524
11
145.925
21
-131.095
0
LINE
8
Black
10
145.925
20
-131.095
11
145.925
21
-131.809
0
LINE
8
Black
10
145.925
20
-131.809
11
145.782
21
-132.381
0
LINE
8
Black
10
145.782
20
-132.381
11
145.639
21
-132.666
0
LINE
8
Black
10
145.639
20
-132.666
11
145.496
21
-132.809
0
LINE
8
Black
10
145.496
20
-132.809
11
145.211
21
-132.952
0
LINE
8
Black
10
145.211
20
-132.952
11
144.925
21
-132.952
0
LINE
8
Black
10
144.925
20
-132.952
11
144.639
21
-132.809
0
LINE
8
Black
10
144.639
20
-132.809
11
144.496
21
-132.666
0
LINE
8
Black
10
144.496
20
-132.666
11
144.354
21
-132.381
0
LINE
8
Black
10
144.354
20
-132.381
11
144.211
21
-131.809
0
LINE
8
Black
10
144.211
20
-131.809
11
144.211
21
-131.095
0
LINE
8
Black
10
144.211
20
-131.095
11
144.354
21
-130.524
0
LINE
8
Black
10
144.354
20
-130.524
11
144.496
21
-130.238
0
LINE
8
Black
10
144.496
20
-130.238
11
144.639
21
-130.095
0
LINE
8
Black
10
144.639
20
-130.095
11
144.925
21
-129.952
0
LINE
8
Black
10
147.211
20
-132.666
11
147.354
21
-132.809
0
LINE
8
Black
10
147.354
20
-132.809
11
147.211
21
-132.952
0
LINE
8
Black
10
147.211
20
-132.952
11
147.068
21
-132.809
0
LINE
8
Black
10
147.068
20
-132.809
11
147.211
21
-132.666
0
LINE
8
Black
10
147.211
20
-132.666
11
147.211
21
-132.952
0
LINE
8
Black
10
150.211
20
-132.952
11
148.496
21
-132.952
0
LINE
8
Black
10
149.354
20
-132.952
11
149.354
21
-129.952
0
LINE
8
Black
10
149.354
20
-129.952
11
149.068
21
-130.381
0
LINE
8
Black
10
149.068
20
-130.381
11
148.782
21
-130.666
0
LINE
8
Black
10
148.782
20
-130.666
11
148.496
21
-130.809
0
LINE
8
Black
10
153.068
20
-132.952
11
151.354
21
-132.952
0
LINE
8
Black
10
152.211
20
-132.952
11
152.211
21
-129.952
0
LINE
8
Black
10
152.211
20
-129.952
11
151.925
21
-130.381
0
LINE
8
Black
10
151.925
20
-130.381
11
151.639
21
-130.666
0
LINE
8
Black
10
151.639
20
-130.666
11
151.354
21
-130.809
0
LINE
8
Black
10
154.782
20
-131.238
11
154.496
21
-131.095
0
LINE
8
Black
10
154.496
20
-131.095
11
154.354
21
-130.952
0
LINE
8
Black
10
154.354
20
-130.952
11
154.211
21
-130.666
0
LINE
8
Black
10
154.211
20
-130.666
11
154.211
21
-130.524
0
LINE
8
Black
10
154.211
20
-130.524
11
154.354
21
-130.238
0
LINE
8
Black
10
154.354
20
-130.238
11
154.496
21
-130.095
0
LINE
8
Black
10
154.496
20
-130.095
11
154.782
21
-129.952
0
LINE
8
Black
10
154.782
20
-129.952
11
155.354
21
-129.952
0
LINE
8
Black
10
155.354
20
-129.952
11
155.639
21
-130.095
0
LINE
8
Black
10
155.639
20
-130.095
11
155.782
21
-130.238
0
LINE
8
Black
10
155.782
20
-130.238
11
155.925
21
-130.524
0
LINE
8
Black
10
155.925
20
-130.524
11
155.925
21
-130.666
0
LINE
8
Black
10
155.925
20
-130.666
11
155.782
21
-130.952
0
LINE
8
Black
10
155.782
20
-130.952
11
155.639
21
-131.095
0
LINE
8
Black
10
155.639
20
-131.095
11
155.354
21
-131.238
0
LINE
8
Black
10
155.354
20
-131.238
11
154.782
21
-131.238
0
LINE
8
Black
10
154.782
20
-131.238
11
154.496
21
-131.381
0
LINE
8
Black
10
154.496
20
-131.381
11
154.354
21
-131.524
0
LINE
8
Black
10
154.354
20
-131.524
11
154.211
21
-131.809
0
LINE
8
Black
10
154.211
20
-131.809
11
154.211
21
-132.381
0
LINE
8
Black
10
154.211
20
-132.381
11
154.354
21
-132.666
0
LINE
8
Black
10
154.354
20
-132.666
11
154.496
21
-132.809
0
LINE
8
Black
10
154.496
20
-132.809
11
154.782
21
-132.952
0
LINE
8
Black
10
154.782
20
-132.952
11
155.354
21
-132.952
0
LINE
8
Black
10
155.354
20
-132.952
11
155.639
21
-132.809
0
LINE
8
Black
10
155.639
20
-132.809
11
155.782
21
-132.666
0
LINE
8
Black
10
155.782
20
-132.666
11
155.925
21
-132.381
0
LINE
8
Black
10
155.925
20
-132.381
11
155.925
21
-131.809
0
LINE
8
Black
10
155.925
20
-131.809
11
155.782
21
-131.524
0
LINE
8
Black
10
155.782
20
-131.524
11
155.639
21
-131.381
0
LINE
8
Black
10
155.639
20
-131.381
11
155.354
21
-131.238
0
LINE
8
Black
10
157.068
20
-129.952
11
157.068
21
-130.524
0
LINE
8
Black
10
158.211
20
-129.952
11
158.211
21
-130.524
0
LINE
8
Black
10
162.639
20
-134.095
11
162.496
21
-133.952
0
LINE
8
Black
10
162.496
20
-133.952
11
162.211
21
-133.524
0
LINE
8
Black
10
162.211
20
-133.524
11
162.068
21
-133.238
0
LINE
8
Black
10
162.068
20
-133.238
11
161.925
21
-132.809
0
LINE
8
Black
10
161.925
20
-132.809
11
161.782
21
-132.095
0
LINE
8
Black
10
161.782
20
-132.095
11
161.782
21
-131.524
0
LINE
8
Black
10
161.782
20
-131.524
11
161.925
21
-130.809
0
LINE
8
Black
10
161.925
20
-130.809
11
162.068
21
-130.381
0
LINE
8
Black
10
162.068
20
-130.381
11
162.211
21
-130.095
0
LINE
8
Black
10
162.211
20
-130.095
11
162.496
21
-129.666
0
LINE
8
Black
10
162.496
20
-129.666
11
162.639
21
-129.524
0
LINE
8
Black
10
163.639
20
-130.238
11
163.782
21
-130.095
0
LINE
8
Black
10
163.782
20
-130.095
11
164.068
21
-129.952
0
LINE
8
Black
10
164.068
20
-129.952
11
164.782
21
-129.952
0
LINE
8
Black
10
164.782
20
-129.952
11
165.068
21
-130.095
0
LINE
8
Black
10
165.068
20
-130.095
11
165.211
21
-130.238
0
LINE
8
Black
10
165.211
20
-130.238
11
165.354
21
-130.524
0
LINE
8
Black
10
165.354
20
-130.524
11
165.354
21
-130.809
0
LINE
8
Black
10
165.354
20
-130.809
11
165.211
21
-131.238
0
LINE
8
Black
10
165.211
20
-131.238
11
163.496
21
-132.952
0
LINE
8
Black
10
163.496
20
-132.952
11
165.354
21
-132.952
0
LINE
8
Black
10
168.925
20
-132.952
11
168.925
21
-129.952
0
LINE
8
Black
10
170.211
20
-132.952
11
170.211
21
-131.381
0
LINE
8
Black
10
170.211
20
-131.381
11
170.068
21
-131.095
0
LINE
8
Black
10
170.068
20
-131.095
11
169.782
21
-130.952
0
LINE
8
Black
10
169.782
20
-130.952
11
169.354
21
-130.952
0
LINE
8
Black
10
169.354
20
-130.952
11
169.068
21
-131.095
0
LINE
8
Black
10
169.068
20
-131.095
11
168.925
21
-131.238
0
LINE
8
Black
10
172.068
20
-132.952
11
171.782
21
-132.809
0
LINE
8
Black
10
171.782
20
-132.809
11
171.639
21
-132.666
0
LINE
8
Black
10
171.639
20
-132.666
11
171.496
21
-132.381
0
LINE
8
Black
10
171.496
20
-132.381
11
171.496
21
-131.524
0
LINE
8
Black
10
171.496
20
-131.524
11
171.639
21
-131.238
0
LINE
8
Black
10
171.639
20
-131.238
11
171.782
21
-131.095
0
LINE
8
Black
10
171.782
20
-131.095
11
172.068
21
-130.952
0
LINE
8
Black
10
172.068
20
-130.952
11
172.496
21
-130.952
0
LINE
8
Black
10
172.496
20
-130.952
11
172.782
21
-131.095
0
LINE
8
Black
10
172.782
20
-131.095
11
172.925
21
-131.238
0
LINE
8
Black
10
172.925
20
-131.238
11
173.068
21
-131.524
0
LINE
8
Black
10
173.068
20
-131.524
11
173.068
21
-132.381
0
LINE
8
Black
10
173.068
20
-132.381
11
172.925
21
-132.666
0
LINE
8
Black
10
172.925
20
-132.666
11
172.782
21
-132.809
0
LINE
8
Black
10
172.782
20
-132.809
11
172.496
21
-132.952
0
LINE
8
Black
10
172.496
20
-132.952
11
172.068
21
-132.952
0
LINE
8
Black
10
174.782
20
-132.952
11
174.496
21
-132.809
0
LINE
8
Black
10
174.496
20
-132.809
11
174.354
21
-132.524
0
LINE
8
Black
10
174.354
20
-132.524
11
174.354
21
-129.952
0
LINE
8
Black
10
177.068
20
-132.809
11
176.782
21
-132.952
0
LINE
8
Black
10
176.782
20
-132.952
11
176.211
21
-132.952
0
LINE
8
Black
10
176.211
20
-132.952
11
175.925
21
-132.809
0
LINE
8
Black
10
175.925
20
-132.809
11
175.782
21
-132.524
0
LINE
8
Black
10
175.782
20
-132.524
11
175.782
21
-131.381
0
LINE
8
Black
10
175.782
20
-131.381
11
175.925
21
-131.095
0
LINE
8
Black
10
175.925
20
-131.095
11
176.211
21
-130.952
0
LINE
8
Black
10
176.211
20
-130.952
11
176.782
21
-130.952
0
LINE
8
Black
10
176.782
20
-130.952
11
177.068
21
-131.095
0
LINE
8
Black
10
177.068
20
-131.095
11
177.211
21
-131.381
0
LINE
8
Black
10
177.211
20
-131.381
11
177.211
21
-131.666
0
LINE
8
Black
10
177.211
20
-131.666
11
175.782
21
-131.952
0
LINE
8
Black
10
178.354
20
-132.809
11
178.639
21
-132.952
0
LINE
8
Black
10
178.639
20
-132.952
11
179.211
21
-132.952
0
LINE
8
Black
10
179.211
20
-132.952
11
179.496
21
-132.809
0
LINE
8
Black
10
179.496
20
-132.809
11
179.639
21
-132.524
0
LINE
8
Black
10
179.639
20
-132.524
11
179.639
21
-132.381
0
LINE
8
Black
10
179.639
20
-132.381
11
179.496
21
-132.095
0
LINE
8
Black
10
179.496
20
-132.095
11
179.211
21
-131.952
0
LINE
8
Black
10
179.211
20
-131.952
11
178.782
21
-131.952
0
LINE
8
Black
10
178.782
20
-131.952
11
178.496
21
-131.809
0
LINE
8
Black
10
178.496
20
-131.809
11
178.354
21
-131.524
0
LINE
8
Black
10
178.354
20
-131.524
11
178.354
21
-131.381
0
LINE
8
Black
10
178.354
20
-131.381
11
178.496
21
-131.095
0
LINE
8
Black
10
178.496
20
-131.095
11
178.782
21
-130.952
0
LINE
8
Black
10
178.782
20
-130.952
11
179.211
21
-130.952
0
LINE
8
Black
10
179.211
20
-130.952
11
179.496
21
-131.095
0
LINE
8
Black
10
180.639
20
-134.095
11
180.782
21
-133.952
0
LINE
8
Black
10
180.782
20
-133.952
11
181.068
21
-133.524
0
LINE
8
Black
10
181.068
20
-133.524
11
181.211
21
-133.238
0
LINE
8
Black
10
181.211
20
-133.238
11
181.354
21
-132.809
0
LINE
8
Black
10
181.354
20
-132.809
11
181.496
21
-132.095
0
LINE
8
Black
10
181.496
20
-132.095
11
181.496
21
-131.524
0
LINE
8
Black
10
181.496
20
-131.524
11
181.354
21
-130.809
0
LINE
8
Black
10
181.354
20
-130.809
11
181.211
21
-130.381
0
LINE
8
Black
10
181.211
20
-130.381
11
181.068
21
-130.095
0
LINE
8
Black
10
181.068
20
-130.095
11
180.782
21
-129.666
0
LINE
8
Black
10
180.782
20
-129.666
11
180.639
21
-129.524
0
LINE
8
Black
10
186.068
20
-134.095
11
185.925
21
-133.952
0
LINE
8
Black
10
185.925
20
-133.952
11
185.639
21
-133.524
0
LINE
8
Black
10
185.639
20
-133.524
11
185.496
21
-133.238
0
LINE
8
Black
10
185.496
20
-133.238
11
185.354
21
-132.809
0
LINE
8
Black
10
185.354
20
-132.809
11
185.211
21
-132.095
0
LINE
8
Black
10
185.211
20
-132.095
11
185.211
21
-131.524
0
LINE
8
Black
10
185.211
20
-131.524
11
185.354
21
-130.809
0
LINE
8
Black
10
185.354
20
-130.809
11
185.496
21
-130.381
0
LINE
8
Black
10
185.496
20
-130.381
11
185.639
21
-130.095
0
LINE
8
Black
10
185.639
20
-130.095
11
185.925
21
-129.666
0
LINE
8
Black
10
185.925
20
-129.666
11
186.068
21
-129.524
0
LINE
8
Black
10
187.211
20
-130.952
11
187.211
21
-132.952
0
LINE
8
Black
10
187.211
20
-131.238
11
187.354
21
-131.095
0
LINE
8
Black
10
187.354
20
-131.095
11
187.639
21
-130.952
0
LINE
8
Black
10
187.639
20
-130.952
11
188.068
21
-130.952
0
LINE
8
Black
10
188.068
20
-130.952
11
188.354
21
-131.095
0
LINE
8
Black
10
188.354
20
-131.095
11
188.496
21
-131.381
0
LINE
8
Black
10
188.496
20
-131.381
11
188.496
21
-132.952
0
LINE
8
Black
10
190.354
20
-132.952
11
190.068
21
-132.809
0
LINE
8
Black
10
190.068
20
-132.809
11
189.925
21
-132.666
0
LINE
8
Black
10
189.925
20
-132.666
11
189.782
21
-132.381
0
LINE
8
Black
10
189.782
20
-132.381
11
189.782
21
-131.524
0
LINE
8
Black
10
189.782
20
-131.524
11
189.925
21
-131.238
0
LINE
8
Black
10
189.925
20
-131.238
11
190.068
21
-131.095
0
LINE
8
Black
10
190.068
20
-131.095
11
190.354
21
-130.952
0
LINE
8
Black
10
190.354
20
-130.952
11
190.782
21
-130.952
0
LINE
8
Black
10
190.782
20
-130.952
11
191.068
21
-131.095
0
LINE
8
Black
10
191.068
20
-131.095
11
191.211
21
-131.238
0
LINE
8
Black
10
191.211
20
-131.238
11
191.354
21
-131.524
0
LINE
8
Black
10
191.354
20
-131.524
11
191.354
21
-132.381
0
LINE
8
Black
10
191.354
20
-132.381
11
191.211
21
-132.666
0
LINE
8
Black
10
191.211
20
-132.666
11
191.068
21
-132.809
0
LINE
8
Black
10
191.068
20
-132.809
11
190.782
21
-132.952
0
LINE
8
Black
10
190.782
20
-132.952
11
190.354
21
-132.952
0
LINE
8
Black
10
192.211
20
-130.952
11
193.354
21
-130.952
0
LINE
8
Black
10
192.639
20
-129.952
11
192.639
21
-132.524
0
LINE
8
Black
10
192.639
20
-132.524
11
192.782
21
-132.809
0
LINE
8
Black
10
192.782
20
-132.809
11
193.068
21
-132.952
0
LINE
8
Black
10
193.068
20
-132.952
11
193.354
21
-132.952
0
LINE
8
Black
10
196.639
20
-130.952
11
196.639
21
-133.952
0
LINE
8
Black
10
196.639
20
-131.095
11
196.925
21
-130.952
0
LINE
8
Black
10
196.925
20
-130.952
11
197.496
21
-130.952
0
LINE
8
Black
10
197.496
20
-130.952
11
197.782
21
-131.095
0
LINE
8
Black
10
197.782
20
-131.095
11
197.925
21
-131.238
0
LINE
8
Black
10
197.925
20
-131.238
11
198.068
21
-131.524
0
LINE
8
Black
10
198.068
20
-131.524
11
198.068
21
-132.381
0
LINE
8
Black
10
198.068
20
-132.381
11
197.925
21
-132.666
0
LINE
8
Black
10
197.925
20
-132.666
11
197.782
21
-132.809
0
LINE
8
Black
10
197.782
20
-132.809
11
197.496
21
-132.952
0
LINE
8
Black
10
197.496
20
-132.952
11
196.925
21
-132.952
0
LINE
8
Black
10
196.925
20
-132.952
11
196.639
21
-132.809
0
LINE
8
Black
10
199.782
20
-132.952
11
199.496
21
-132.809
0
LINE
8
Black
10
199.496
20
-132.809
11
199.354
21
-132.524
0
LINE
8
Black
10
199.354
20
-132.524
11
199.354
21
-129.952
0
LINE
8
Black
10
202.211
20
-132.952
11
202.211
21
-131.381
0
LINE
8
Black
10
202.211
20
-131.381
11
202.068
21
-131.095
0
LINE
8
Black
10
202.068
20
-131.095
11
201.782
21
-130.952
0
LINE
8
Black
10
201.782
20
-130.952
11
201.211
21
-130.952
0
LINE
8
Black
10
201.211
20
-130.952
11
200.925
21
-131.095
0
LINE
8
Black
10
202.211
20
-132.809
11
201.925
21
-132.952
0
LINE
8
Black
10
201.925
20
-132.952
11
201.211
21
-132.952
0
LINE
8
Black
10
201.211
20
-132.952
11
200.925
21
-132.809
0
LINE
8
Black
10
200.925
20
-132.809
11
200.782
21
-132.524
0
LINE
8
Black
10
200.782
20
-132.524
11
200.782
21
-132.238
0
LINE
8
Black
10
200.782
20
-132.238
11
200.925
21
-131.952
0
LINE
8
Black
10
200.925
20
-131.952
11
201.211
21
-131.809
0
LINE
8
Black
10
201.211
20
-131.809
11
201.925
21
-131.809
0
LINE
8
Black
10
201.925
20
-131.809
11
202.211
21
-131.666
0
LINE
8
Black
10
203.211
20
-130.952
11
204.354
21
-130.952
0
LINE
8
Black
10
203.639
20
-129.952
11
203.639
21
-132.524
0
LINE
8
Black
10
203.639
20
-132.524
11
203.782
21
-132.809
0
LINE
8
Black
10
203.782
20
-132.809
11
204.068
21
-132.952
0
LINE
8
Black
10
204.068
20
-132.952
11
204.354
21
-132.952
0
LINE
8
Black
10
206.496
20
-132.809
11
206.211
21
-132.952
0
LINE
8
Black
10
206.211
20
-132.952
11
205.639
21
-132.952
0
LINE
8
Black
10
205.639
20
-132.952
11
205.354
21
-132.809
0
LINE
8
Black
10
205.354
20
-132.809
11
205.211
21
-132.524
0
LINE
8
Black
10
205.211
20
-132.524
11
205.211
21
-131.381
0
LINE
8
Black
10
205.211
20
-131.381
11
205.354
21
-131.095
0
LINE
8
Black
10
205.354
20
-131.095
11
205.639
21
-130.952
0
LINE
8
Black
10
205.639
20
-130.952
11
206.211
21
-130.952
0
LINE
8
Black
10
206.211
20
-130.952
11
206.496
21
-131.095
0
LINE
8
Black
10
206.496
20
-131.095
11
206.639
21
-131.381
0
LINE
8
Black
10
206.639
20
-131.381
11
206.639
21
-131.666
0
LINE
8
Black
10
206.639
20
-131.666
11
205.211
21
-131.952
0
LINE
8
Black
10
209.211
20
-132.952
11
209.211
21
-129.952
0
LINE
8
Black
10
209.211
20
-132.809
11
208.925
21
-132.952
0
LINE
8
Black
10
208.925
20
-132.952
11
208.354
21
-132.952
0
LINE
8
Black
10
208.354
20
-132.952
11
208.068
21
-132.809
0
LINE
8
Black
10
208.068
20
-132.809
11
207.925
21
-132.666
0
LINE
8
Black
10
207.925
20
-132.666
11
207.782
21
-132.381
0
LINE
8
Black
10
207.782
20
-132.381
11
207.782
21
-131.524
0
LINE
8
Black
10
207.782
20
-131.524
11
207.925
21
-131.238
0
LINE
8
Black
10
207.925
20
-131.238
11
208.068
21
-131.095
0
LINE
8
Black
10
208.068
20
-131.095
11
208.354
21
-130.952
0
LINE
8
Black
10
208.354
20
-130.952
11
208.925
21
-130.952
0
LINE
8
Black
10
208.925
20
-130.952
11
209.211
21
-131.095
0
LINE
8
Black
10
210.354
20
-134.095
11
210.496
21
-133.952
0
LINE
8
Black
10
210.496
20
-133.952
11
210.782
21
-133.524
0
LINE
8
Black
10
210.782
20
-133.524
11
210.925
21
-133.238
0
LINE
8
Black
10
210.925
20
-133.238
11
211.068
21
-132.809
0
LINE
8
Black
10
211.068
20
-132.809
11
211.211
21
-132.095
0
LINE
8
Black
10
211.211
20
-132.095
11
211.211
21
-131.524
0
LINE
8
Black
10
211.211
20
-131.524
11
211.068
21
-130.809
0
LINE
8
Black
10
211.068
20
-130.809
11
210.925
21
-130.381
0
LINE
8
Black
10
210.925
20
-130.381
11
210.782
21
-130.095
0
LINE
8
Black
10
210.782
20
-130.095
11
210.496
21
-129.666
0
LINE
8
Black
10
210.496
20
-129.666
11
210.354
21
-129.524
  0
ENDSEC
  0
EOF
