G04 #@! TF.FileFunction,Copper,L1,Top,Signal*
%FSLAX46Y46*%
G04 Gerber Fmt 4.6, Leading zero omitted, Abs format (unit mm)*
G04 Created by KiCad (PCBNEW 4.0.6) date 03/22/18 19:19:45*
%MOMM*%
%LPD*%
G01*
G04 APERTURE LIST*
%ADD10C,0.100000*%
%ADD11R,2.000000X1.600000*%
%ADD12R,1.600000X2.000000*%
%ADD13R,1.200000X1.700000*%
%ADD14O,1.200000X1.700000*%
%ADD15R,1.500000X1.300000*%
%ADD16R,0.600000X1.500000*%
%ADD17C,1.700000*%
%ADD18C,0.500000*%
%ADD19C,0.254000*%
G04 APERTURE END LIST*
D10*
D11*
X21800000Y-12500000D03*
X17800000Y-12500000D03*
D12*
X-9000000Y-16500000D03*
X-9000000Y-12500000D03*
D13*
X14800000Y-6800000D03*
D14*
X16800000Y-6800000D03*
X18800000Y-6800000D03*
X20800000Y-6800000D03*
D15*
X2250000Y-7750000D03*
X4950000Y-7750000D03*
X6750000Y-10500000D03*
X9450000Y-10500000D03*
D16*
X-5560000Y-17450000D03*
X-4290000Y-17450000D03*
X-3020000Y-17450000D03*
X-1750000Y-17450000D03*
X-480000Y-17450000D03*
X790000Y-17450000D03*
X2060000Y-17450000D03*
X2060000Y-12050000D03*
X790000Y-12050000D03*
X-480000Y-12050000D03*
X-1750000Y-12050000D03*
X-3020000Y-12050000D03*
X-4290000Y-12050000D03*
X-5560000Y-12050000D03*
D10*
G36*
X14789283Y-17135702D02*
X15402118Y-16621472D01*
X15980627Y-17310912D01*
X15367792Y-17825142D01*
X14789283Y-17135702D01*
X14789283Y-17135702D01*
G37*
G36*
X13333798Y-18356999D02*
X13946633Y-17842769D01*
X14525142Y-18532209D01*
X13912307Y-19046439D01*
X13333798Y-18356999D01*
X13333798Y-18356999D01*
G37*
G36*
X15347116Y-19278439D02*
X15959951Y-18764209D01*
X16538460Y-19453649D01*
X15925625Y-19967879D01*
X15347116Y-19278439D01*
X15347116Y-19278439D01*
G37*
G36*
X10085673Y-20253414D02*
X10810719Y-19915319D01*
X11191075Y-20730996D01*
X10466029Y-21069091D01*
X10085673Y-20253414D01*
X10085673Y-20253414D01*
G37*
G36*
X8363688Y-21056389D02*
X9088734Y-20718294D01*
X9469090Y-21533971D01*
X8744044Y-21872066D01*
X8363688Y-21056389D01*
X8363688Y-21056389D01*
G37*
G36*
X10069917Y-22467517D02*
X10794963Y-22129422D01*
X11175319Y-22945099D01*
X10450273Y-23283194D01*
X10069917Y-22467517D01*
X10069917Y-22467517D01*
G37*
G36*
X4789854Y-22076522D02*
X5577700Y-21937603D01*
X5733984Y-22823930D01*
X4946138Y-22962849D01*
X4789854Y-22076522D01*
X4789854Y-22076522D01*
G37*
G36*
X2918719Y-22406454D02*
X3706565Y-22267535D01*
X3862849Y-23153862D01*
X3075003Y-23292781D01*
X2918719Y-22406454D01*
X2918719Y-22406454D01*
G37*
G36*
X4201583Y-24211104D02*
X4989429Y-24072185D01*
X5145713Y-24958512D01*
X4357867Y-25097431D01*
X4201583Y-24211104D01*
X4201583Y-24211104D01*
G37*
G36*
X-874867Y-22580772D02*
X-75963Y-22622641D01*
X-123065Y-23521408D01*
X-921969Y-23479539D01*
X-874867Y-22580772D01*
X-874867Y-22580772D01*
G37*
G36*
X-2772263Y-22481333D02*
X-1973359Y-22523202D01*
X-2020461Y-23421969D01*
X-2819365Y-23380100D01*
X-2772263Y-22481333D01*
X-2772263Y-22481333D01*
G37*
G36*
X-1928237Y-24528312D02*
X-1129333Y-24570181D01*
X-1176435Y-25468948D01*
X-1975339Y-25427079D01*
X-1928237Y-24528312D01*
X-1928237Y-24528312D01*
G37*
G36*
X-6450094Y-21674162D02*
X-5685050Y-21908060D01*
X-5948184Y-22768734D01*
X-6713228Y-22534836D01*
X-6450094Y-21674162D01*
X-6450094Y-21674162D01*
G37*
G36*
X-8267073Y-21118656D02*
X-7502029Y-21352554D01*
X-7765163Y-22213228D01*
X-8530207Y-21979330D01*
X-8267073Y-21118656D01*
X-8267073Y-21118656D01*
G37*
G36*
X-7943327Y-23309019D02*
X-7178283Y-23542917D01*
X-7441417Y-24403591D01*
X-8206461Y-24169693D01*
X-7943327Y-23309019D01*
X-7943327Y-23309019D01*
G37*
G36*
X-22890020Y-18092102D02*
X-24092102Y-19294184D01*
X-25294184Y-18092102D01*
X-24092102Y-16890020D01*
X-22890020Y-18092102D01*
X-22890020Y-18092102D01*
G37*
D17*
X-22296051Y-16296051D02*
X-22296051Y-16296051D01*
X-20500000Y-14500000D02*
X-20500000Y-14500000D01*
X-18703948Y-12703948D02*
X-18703948Y-12703948D01*
X-16907897Y-10907897D02*
X-16907897Y-10907897D01*
X-15111846Y-9111846D02*
X-15111846Y-9111846D01*
D18*
X-1552336Y-24998630D02*
X-6550047Y-24998630D01*
X-6550047Y-24998630D02*
X-7692372Y-23856305D01*
X-1552336Y-24998630D02*
X4259826Y-24998630D01*
X4259826Y-24998630D02*
X4673648Y-24584808D01*
X5264626Y-24500000D02*
X8828926Y-24500000D01*
X8828926Y-24500000D02*
X10622618Y-22706308D01*
X4673648Y-24584808D02*
X5179818Y-24584808D01*
X5179818Y-24584808D02*
X5264626Y-24500000D01*
X14000000Y-21308832D02*
X12020094Y-21308832D01*
X12020094Y-21308832D02*
X10622618Y-22706308D01*
X15942788Y-19366044D02*
X14000000Y-21308832D01*
X-15413967Y-6500000D02*
X-13500000Y-6500000D01*
X-13500000Y-6500000D02*
X-9000000Y-11000000D01*
X-9000000Y-11000000D02*
X-9000000Y-12500000D01*
X-20500000Y-14500000D02*
X-20500000Y-11586033D01*
X-20500000Y-11586033D02*
X-15413967Y-6500000D01*
X-460000Y-6500000D02*
X-5560000Y-11600000D01*
X2750000Y-6500000D02*
X-460000Y-6500000D01*
X-5560000Y-11600000D02*
X-5560000Y-12050000D01*
X3800000Y-5450000D02*
X2750000Y-6500000D01*
X18800000Y-6800000D02*
X18800000Y-6550000D01*
X18800000Y-6550000D02*
X17700000Y-5450000D01*
X17700000Y-5450000D02*
X3800000Y-5450000D01*
X-9000000Y-12500000D02*
X-6010000Y-12500000D01*
X-6010000Y-12500000D02*
X-5560000Y-12050000D01*
X17800000Y-12500000D02*
X17800000Y-7800000D01*
X17800000Y-7800000D02*
X18800000Y-6800000D01*
X9450000Y-10500000D02*
X13350000Y-10500000D01*
X13350000Y-10500000D02*
X16800000Y-7050000D01*
X16800000Y-7050000D02*
X16800000Y-6800000D01*
X13929470Y-18444604D02*
X12194604Y-18444604D01*
X12194604Y-18444604D02*
X3500000Y-9750000D01*
X3500000Y-9750000D02*
X1510033Y-9750000D01*
X1510033Y-9750000D02*
X1010033Y-10250000D01*
X1010033Y-10250000D02*
X870000Y-10250000D01*
X870000Y-10250000D02*
X-480000Y-11600000D01*
X-480000Y-11600000D02*
X-480000Y-12050000D01*
X8916389Y-21295180D02*
X8916389Y-16666389D01*
X8916389Y-16666389D02*
X3099999Y-10849999D01*
X1399999Y-10849999D02*
X790000Y-11459998D01*
X3099999Y-10849999D02*
X1399999Y-10849999D01*
X790000Y-11459998D02*
X790000Y-12050000D01*
X-19500000Y-25750000D02*
X-25744194Y-19505806D01*
X-25744194Y-19505806D02*
X-25744194Y-17905700D01*
X-24134545Y-16296051D02*
X-23498132Y-16296051D01*
X-25744194Y-17905700D02*
X-24134545Y-16296051D01*
X-23498132Y-16296051D02*
X-22296051Y-16296051D01*
X-12000000Y-25750000D02*
X-19500000Y-25750000D01*
X-8913238Y-22663238D02*
X-12000000Y-25750000D01*
X-6199139Y-22221448D02*
X-6640929Y-22663238D01*
X-6640929Y-22663238D02*
X-8913238Y-22663238D01*
X13507795Y-20492205D02*
X13507795Y-20481348D01*
X13507795Y-20481348D02*
X15384955Y-18604188D01*
X15384955Y-18604188D02*
X15384955Y-17910740D01*
X15384955Y-17910740D02*
X15384955Y-17223307D01*
X10638374Y-20492205D02*
X13507795Y-20492205D01*
X5261919Y-22450226D02*
X5721076Y-22909383D01*
X5721076Y-22909383D02*
X8730089Y-22909383D01*
X8730089Y-22909383D02*
X10266670Y-21372802D01*
X10266670Y-21372802D02*
X10266670Y-20863909D01*
X10266670Y-20863909D02*
X10638374Y-20492205D01*
X250000Y-23750000D02*
X3962145Y-23750000D01*
X3962145Y-23750000D02*
X5261919Y-22450226D01*
X2402Y-23502402D02*
X250000Y-23750000D01*
X-498966Y-23051090D02*
X-47654Y-23502402D01*
X-47654Y-23502402D02*
X2402Y-23502402D01*
X-6199139Y-22221448D02*
X-4420587Y-24000000D01*
X-4420587Y-24000000D02*
X-1447876Y-24000000D01*
X-1447876Y-24000000D02*
X-498966Y-23051090D01*
X21800000Y-12500000D02*
X21800000Y-13800000D01*
X21800000Y-13800000D02*
X21350000Y-14250000D01*
X21350000Y-14250000D02*
X18358262Y-14250000D01*
X18358262Y-14250000D02*
X15384955Y-17223307D01*
X-22296051Y-16296051D02*
X-9203949Y-16296051D01*
X-9203949Y-16296051D02*
X-9000000Y-16500000D01*
X-9000000Y-16500000D02*
X-6510000Y-16500000D01*
X-6510000Y-16500000D02*
X-5560000Y-17450000D01*
X21800000Y-12500000D02*
X21800000Y-7800000D01*
X21800000Y-7800000D02*
X20800000Y-6800000D01*
X3390784Y-22780158D02*
X3390784Y-12580784D01*
X3390784Y-12580784D02*
X2860000Y-12050000D01*
X2860000Y-12050000D02*
X2060000Y-12050000D01*
X-2396362Y-22951651D02*
X2060000Y-18495289D01*
X2060000Y-18495289D02*
X2060000Y-17450000D01*
X-8016118Y-21665942D02*
X-7574328Y-21224152D01*
X-7574328Y-21224152D02*
X-2534152Y-21224152D01*
X-2534152Y-21224152D02*
X790000Y-17900000D01*
X790000Y-17900000D02*
X790000Y-17450000D01*
X-11750000Y-14000000D02*
X-5790000Y-14000000D01*
X-5790000Y-14000000D02*
X-4290000Y-12500000D01*
X-4290000Y-12500000D02*
X-4290000Y-12050000D01*
X-11750000Y-10549690D02*
X-11750000Y-14000000D01*
X-18703948Y-12703948D02*
X-18703948Y-10779946D01*
X-18703948Y-10779946D02*
X-15735847Y-7811845D01*
X-15735847Y-7811845D02*
X-14487845Y-7811845D01*
X-14487845Y-7811845D02*
X-11750000Y-10549690D01*
X-440000Y-7750000D02*
X-4290000Y-11600000D01*
X2250000Y-7750000D02*
X-440000Y-7750000D01*
X-4290000Y-11600000D02*
X-4290000Y-12050000D01*
X-16907897Y-10907897D02*
X-16907897Y-12109978D01*
X-16907897Y-12109978D02*
X-14017875Y-15000000D01*
X-14017875Y-15000000D02*
X-4250000Y-15000000D01*
X-4250000Y-15000000D02*
X-3020000Y-13770000D01*
X-3020000Y-13770000D02*
X-3020000Y-12050000D01*
X6750000Y-10500000D02*
X6650000Y-10500000D01*
X6650000Y-10500000D02*
X5199989Y-9049989D01*
X5199989Y-9049989D02*
X-469989Y-9049989D01*
X-469989Y-9049989D02*
X-3020000Y-11600000D01*
X-3020000Y-11600000D02*
X-3020000Y-12050000D01*
X-24092102Y-18092102D02*
X-24000000Y-18000000D01*
X-24000000Y-18000000D02*
X-12000000Y-18000000D01*
X-12000000Y-18000000D02*
X-11000000Y-19000000D01*
X-11000000Y-19000000D02*
X-2709998Y-19000000D01*
X-2709998Y-19000000D02*
X-1750000Y-18040002D01*
X-1750000Y-18040002D02*
X-1750000Y-17450000D01*
X4950000Y-7750000D02*
X13850000Y-7750000D01*
X13850000Y-7750000D02*
X14800000Y-6800000D01*
X14800000Y-7050000D02*
X14800000Y-6800000D01*
D19*
G36*
X-6574461Y-1326613D02*
X-6561094Y-1389500D01*
X-6548583Y-1452683D01*
X-6545651Y-1462153D01*
X-6191577Y-2578334D01*
X-6166247Y-2637433D01*
X-6141705Y-2696976D01*
X-6136990Y-2705696D01*
X-5572859Y-3731847D01*
X-5536510Y-3784934D01*
X-5500892Y-3838543D01*
X-5494573Y-3846181D01*
X-4741871Y-4743215D01*
X-4695908Y-4788226D01*
X-4650551Y-4833901D01*
X-4642869Y-4840166D01*
X-3730268Y-5573916D01*
X-3676454Y-5609131D01*
X-3623072Y-5645137D01*
X-3614319Y-5649791D01*
X-2576580Y-6192308D01*
X-2516922Y-6216411D01*
X-2457593Y-6241351D01*
X-2448103Y-6244216D01*
X-1324751Y-6574837D01*
X-1261547Y-6586894D01*
X-1198503Y-6599835D01*
X-1188639Y-6600802D01*
X-1188637Y-6600802D01*
X-22461Y-6706932D01*
X41855Y-6706483D01*
X106238Y-6706932D01*
X116104Y-6705965D01*
X1108094Y-6601701D01*
X1077441Y-6621900D01*
X960975Y-6758550D01*
X912991Y-6865000D01*
X-440000Y-6865000D01*
X-521401Y-6872982D01*
X-602797Y-6880103D01*
X-607264Y-6881401D01*
X-611897Y-6881855D01*
X-690148Y-6905480D01*
X-768661Y-6928290D01*
X-772795Y-6930433D01*
X-777247Y-6931777D01*
X-849370Y-6970125D01*
X-922006Y-7007776D01*
X-925646Y-7010682D01*
X-929752Y-7012865D01*
X-993071Y-7064507D01*
X-1056991Y-7115534D01*
X-1063470Y-7121923D01*
X-1063601Y-7122030D01*
X-1063701Y-7122151D01*
X-1065790Y-7124211D01*
X-4604678Y-10663099D01*
X-4691121Y-10669992D01*
X-4862634Y-10723106D01*
X-4921933Y-10762181D01*
X-4959215Y-10737270D01*
X-5074777Y-10689403D01*
X-5197458Y-10665000D01*
X-5274250Y-10665000D01*
X-5433000Y-10823750D01*
X-5433000Y-11923000D01*
X-5413000Y-11923000D01*
X-5413000Y-12177000D01*
X-5433000Y-12177000D01*
X-5433000Y-12197000D01*
X-5687000Y-12197000D01*
X-5687000Y-12177000D01*
X-6336250Y-12177000D01*
X-6495000Y-12335750D01*
X-6495000Y-12862542D01*
X-6470597Y-12985223D01*
X-6422730Y-13100785D01*
X-6413232Y-13115000D01*
X-7565000Y-13115000D01*
X-7565000Y-12785750D01*
X-7723750Y-12627000D01*
X-8873000Y-12627000D01*
X-8873000Y-12647000D01*
X-9127000Y-12647000D01*
X-9127000Y-12627000D01*
X-10276250Y-12627000D01*
X-10435000Y-12785750D01*
X-10435000Y-13115000D01*
X-10865000Y-13115000D01*
X-10865000Y-11437458D01*
X-10435000Y-11437458D01*
X-10435000Y-12214250D01*
X-10276250Y-12373000D01*
X-9127000Y-12373000D01*
X-9127000Y-11023750D01*
X-8873000Y-11023750D01*
X-8873000Y-12373000D01*
X-7723750Y-12373000D01*
X-7565000Y-12214250D01*
X-7565000Y-11437458D01*
X-7589403Y-11314777D01*
X-7621429Y-11237458D01*
X-6495000Y-11237458D01*
X-6495000Y-11764250D01*
X-6336250Y-11923000D01*
X-5687000Y-11923000D01*
X-5687000Y-10823750D01*
X-5845750Y-10665000D01*
X-5922542Y-10665000D01*
X-6045223Y-10689403D01*
X-6160785Y-10737270D01*
X-6264789Y-10806763D01*
X-6353237Y-10895211D01*
X-6422730Y-10999215D01*
X-6470597Y-11114777D01*
X-6495000Y-11237458D01*
X-7621429Y-11237458D01*
X-7637270Y-11199215D01*
X-7706763Y-11095211D01*
X-7795211Y-11006763D01*
X-7899215Y-10937270D01*
X-8014777Y-10889403D01*
X-8137458Y-10865000D01*
X-8714250Y-10865000D01*
X-8873000Y-11023750D01*
X-9127000Y-11023750D01*
X-9285750Y-10865000D01*
X-9862542Y-10865000D01*
X-9985223Y-10889403D01*
X-10100785Y-10937270D01*
X-10204789Y-11006763D01*
X-10293237Y-11095211D01*
X-10362730Y-11199215D01*
X-10410597Y-11314777D01*
X-10435000Y-11437458D01*
X-10865000Y-11437458D01*
X-10865000Y-10549690D01*
X-10872973Y-10468375D01*
X-10880102Y-10386894D01*
X-10881401Y-10382423D01*
X-10881855Y-10377793D01*
X-10905461Y-10299605D01*
X-10928289Y-10221030D01*
X-10930434Y-10216893D01*
X-10931777Y-10212443D01*
X-10970127Y-10140317D01*
X-11007776Y-10067685D01*
X-11010680Y-10064047D01*
X-11012865Y-10059938D01*
X-11064500Y-9996628D01*
X-11115533Y-9932699D01*
X-11121924Y-9926218D01*
X-11122030Y-9926089D01*
X-11122150Y-9925990D01*
X-11124210Y-9923901D01*
X-13862055Y-7186055D01*
X-13925271Y-7134129D01*
X-13987849Y-7081620D01*
X-13991926Y-7079379D01*
X-13995523Y-7076424D01*
X-14067553Y-7037802D01*
X-14139206Y-6998410D01*
X-14143645Y-6997002D01*
X-14147744Y-6994804D01*
X-14225871Y-6970918D01*
X-14303843Y-6946184D01*
X-14308471Y-6945665D01*
X-14312919Y-6944305D01*
X-14394184Y-6936051D01*
X-14475488Y-6926931D01*
X-14484592Y-6926868D01*
X-14484756Y-6926851D01*
X-14484909Y-6926865D01*
X-14487845Y-6926845D01*
X-15735847Y-6926845D01*
X-15817207Y-6934823D01*
X-15898643Y-6941947D01*
X-15903114Y-6943246D01*
X-15907744Y-6943700D01*
X-15985932Y-6967306D01*
X-16064507Y-6990134D01*
X-16068644Y-6992279D01*
X-16073094Y-6993622D01*
X-16145220Y-7031972D01*
X-16217852Y-7069621D01*
X-16221490Y-7072525D01*
X-16225599Y-7074710D01*
X-16288909Y-7126345D01*
X-16352838Y-7177378D01*
X-16359319Y-7183769D01*
X-16359448Y-7183875D01*
X-16359547Y-7183995D01*
X-16361636Y-7186055D01*
X-19329738Y-10154156D01*
X-19381664Y-10217372D01*
X-19434173Y-10279950D01*
X-19436414Y-10284027D01*
X-19439369Y-10287624D01*
X-19477991Y-10359654D01*
X-19517383Y-10431307D01*
X-19518791Y-10435746D01*
X-19520989Y-10439845D01*
X-19544875Y-10517972D01*
X-19569609Y-10595944D01*
X-19570128Y-10600572D01*
X-19571488Y-10605020D01*
X-19579742Y-10686285D01*
X-19588862Y-10767589D01*
X-19588925Y-10776693D01*
X-19588942Y-10776857D01*
X-19588928Y-10777010D01*
X-19588948Y-10779946D01*
X-19588948Y-11509693D01*
X-19751727Y-11641508D01*
X-19937244Y-11864173D01*
X-20075979Y-12118631D01*
X-20162647Y-12395190D01*
X-20193948Y-12683316D01*
X-20168688Y-12972035D01*
X-20141292Y-13066334D01*
X-20278094Y-13031669D01*
X-20568815Y-13016591D01*
X-20856892Y-13058520D01*
X-21131253Y-13155844D01*
X-21266918Y-13228363D01*
X-21343688Y-13476707D01*
X-20500000Y-14320395D01*
X-20485857Y-14306253D01*
X-20306252Y-14485858D01*
X-20320395Y-14500000D01*
X-20306252Y-14514143D01*
X-20485857Y-14693748D01*
X-20500000Y-14679605D01*
X-20514142Y-14693748D01*
X-20693747Y-14514143D01*
X-20679605Y-14500000D01*
X-21523293Y-13656312D01*
X-21771637Y-13733082D01*
X-21844156Y-13868747D01*
X-21941480Y-14143108D01*
X-21983409Y-14431185D01*
X-21968331Y-14721906D01*
X-21933895Y-14857805D01*
X-22007611Y-14835268D01*
X-22295948Y-14805979D01*
X-22584484Y-14833254D01*
X-22862225Y-14916052D01*
X-23118596Y-15051221D01*
X-23343830Y-15233611D01*
X-23491667Y-15411051D01*
X-24134545Y-15411051D01*
X-24215946Y-15419033D01*
X-24297342Y-15426154D01*
X-24301809Y-15427452D01*
X-24306442Y-15427906D01*
X-24384693Y-15451531D01*
X-24463206Y-15474341D01*
X-24467340Y-15476484D01*
X-24471792Y-15477828D01*
X-24543915Y-15516176D01*
X-24616551Y-15553827D01*
X-24620191Y-15556733D01*
X-24624297Y-15558916D01*
X-24687616Y-15610558D01*
X-24751536Y-15661585D01*
X-24758015Y-15667974D01*
X-24758146Y-15668081D01*
X-24758246Y-15668202D01*
X-24760335Y-15670262D01*
X-26369984Y-17279910D01*
X-26421910Y-17343126D01*
X-26474419Y-17405704D01*
X-26476660Y-17409781D01*
X-26479615Y-17413378D01*
X-26518237Y-17485408D01*
X-26557629Y-17557061D01*
X-26559037Y-17561500D01*
X-26561235Y-17565599D01*
X-26585121Y-17643726D01*
X-26609855Y-17721698D01*
X-26610374Y-17726326D01*
X-26611734Y-17730774D01*
X-26619988Y-17812039D01*
X-26629108Y-17893343D01*
X-26629171Y-17902447D01*
X-26629188Y-17902611D01*
X-26629174Y-17902764D01*
X-26629194Y-17905700D01*
X-26629194Y-19505806D01*
X-26621217Y-19587162D01*
X-26614092Y-19668602D01*
X-26612793Y-19673073D01*
X-26612339Y-19677703D01*
X-26588719Y-19755937D01*
X-26565904Y-19834466D01*
X-26563762Y-19838599D01*
X-26562417Y-19843053D01*
X-26524059Y-19915194D01*
X-26486418Y-19987812D01*
X-26483512Y-19991452D01*
X-26481329Y-19995558D01*
X-26429687Y-20058877D01*
X-26378660Y-20122797D01*
X-26372267Y-20129280D01*
X-26372164Y-20129407D01*
X-26372047Y-20129504D01*
X-26369984Y-20131596D01*
X-20125789Y-26375790D01*
X-20062598Y-26427696D01*
X-19999996Y-26480225D01*
X-19995919Y-26482466D01*
X-19992322Y-26485421D01*
X-19920292Y-26524043D01*
X-19848639Y-26563435D01*
X-19844200Y-26564843D01*
X-19840101Y-26567041D01*
X-19761974Y-26590927D01*
X-19684002Y-26615661D01*
X-19679374Y-26616180D01*
X-19674926Y-26617540D01*
X-19593661Y-26625794D01*
X-19512357Y-26634914D01*
X-19503253Y-26634977D01*
X-19503089Y-26634994D01*
X-19502936Y-26634980D01*
X-19500000Y-26635000D01*
X-12000000Y-26635000D01*
X-11918644Y-26627023D01*
X-11837204Y-26619898D01*
X-11832733Y-26618599D01*
X-11828103Y-26618145D01*
X-11749869Y-26594525D01*
X-11671340Y-26571710D01*
X-11667207Y-26569568D01*
X-11662753Y-26568223D01*
X-11590612Y-26529865D01*
X-11517994Y-26492224D01*
X-11514354Y-26489318D01*
X-11510248Y-26487135D01*
X-11446929Y-26435493D01*
X-11383009Y-26384466D01*
X-11376526Y-26378073D01*
X-11376399Y-26377970D01*
X-11376302Y-26377853D01*
X-11374210Y-26375790D01*
X-10454723Y-25456302D01*
X-2612742Y-25456302D01*
X-2594793Y-25580092D01*
X-2553040Y-25698001D01*
X-2489085Y-25805499D01*
X-2405387Y-25898455D01*
X-2305163Y-25973296D01*
X-2192264Y-26027145D01*
X-2071029Y-26057935D01*
X-1946116Y-26064482D01*
X-1894479Y-26067188D01*
X-1742402Y-25930257D01*
X-1473986Y-25930257D01*
X-1323762Y-26097098D01*
X-1272125Y-26099804D01*
X-1147212Y-26106351D01*
X-1023422Y-26088402D01*
X-905514Y-26046648D01*
X-798015Y-25982694D01*
X-705059Y-25898996D01*
X-630218Y-25798771D01*
X-576369Y-25685873D01*
X-545579Y-25564637D01*
X-533709Y-25338156D01*
X-683934Y-25171315D01*
X-1432157Y-25132103D01*
X-1473986Y-25930257D01*
X-1742402Y-25930257D01*
X-1727638Y-25916964D01*
X-1685809Y-25118809D01*
X-2434032Y-25079597D01*
X-2600873Y-25229821D01*
X-2612742Y-25456302D01*
X-10454723Y-25456302D01*
X-10044364Y-25045943D01*
X3703992Y-25045943D01*
X3743374Y-25269289D01*
X3788710Y-25385869D01*
X3855916Y-25491363D01*
X3942414Y-25581720D01*
X4044877Y-25653465D01*
X4159368Y-25703842D01*
X4281487Y-25730915D01*
X4406541Y-25733644D01*
X4529725Y-25711923D01*
X4580647Y-25702944D01*
X4709419Y-25519039D01*
X4570631Y-24731932D01*
X3832764Y-24862038D01*
X3703992Y-25045943D01*
X-10044364Y-25045943D01*
X-8684276Y-23685855D01*
X-8567468Y-23721566D01*
X-8765693Y-23826964D01*
X-8832000Y-24043847D01*
X-8844532Y-24168302D01*
X-8832544Y-24292809D01*
X-8796495Y-24412587D01*
X-8737771Y-24523029D01*
X-8658630Y-24619894D01*
X-8562112Y-24699456D01*
X-8451926Y-24758661D01*
X-8332308Y-24795232D01*
X-8282859Y-24810350D01*
X-8224299Y-24779213D01*
X-7841731Y-24779213D01*
X-7736331Y-24977441D01*
X-7686883Y-24992559D01*
X-7567264Y-25029130D01*
X-7442809Y-25041662D01*
X-7318302Y-25029673D01*
X-7198524Y-24993625D01*
X-7088081Y-24934901D01*
X-6991217Y-24855759D01*
X-6911655Y-24759242D01*
X-6852449Y-24649056D01*
X-6786142Y-24432174D01*
X-6891541Y-24233946D01*
X-7608053Y-24014887D01*
X-7841731Y-24779213D01*
X-8224299Y-24779213D01*
X-8084632Y-24704951D01*
X-7850954Y-23940624D01*
X-7870080Y-23934777D01*
X-7795817Y-23691875D01*
X-7776691Y-23697723D01*
X-7770844Y-23678597D01*
X-7527942Y-23752860D01*
X-7533790Y-23771986D01*
X-6817279Y-23991045D01*
X-6619051Y-23885646D01*
X-6552744Y-23668763D01*
X-6540212Y-23544308D01*
X-6540760Y-23538615D01*
X-6478133Y-23533136D01*
X-6473662Y-23531837D01*
X-6469032Y-23531383D01*
X-6390798Y-23507763D01*
X-6312269Y-23484948D01*
X-6308136Y-23482806D01*
X-6303682Y-23481461D01*
X-6231541Y-23443103D01*
X-6229909Y-23442257D01*
X-5046377Y-24625789D01*
X-4983217Y-24677669D01*
X-4920583Y-24730225D01*
X-4916502Y-24732468D01*
X-4912909Y-24735420D01*
X-4840934Y-24774013D01*
X-4769226Y-24813435D01*
X-4764785Y-24814844D01*
X-4760689Y-24817040D01*
X-4682593Y-24840917D01*
X-4604589Y-24865661D01*
X-4599961Y-24866180D01*
X-4595513Y-24867540D01*
X-4514243Y-24875795D01*
X-4432944Y-24884914D01*
X-4423841Y-24884977D01*
X-4423677Y-24884994D01*
X-4423524Y-24884980D01*
X-4420587Y-24885000D01*
X-1447876Y-24885000D01*
X-1394244Y-24879741D01*
X-670640Y-24917663D01*
X-503799Y-24767439D01*
X-499627Y-24687825D01*
X4820772Y-24687825D01*
X4959560Y-25474933D01*
X5143465Y-25603704D01*
X5194388Y-25594725D01*
X5317571Y-25573005D01*
X5434151Y-25527669D01*
X5539645Y-25460462D01*
X5630002Y-25373965D01*
X5701747Y-25271502D01*
X5752124Y-25157011D01*
X5779197Y-25034892D01*
X5781926Y-24909837D01*
X5742544Y-24686491D01*
X5558639Y-24557719D01*
X4820772Y-24687825D01*
X-499627Y-24687825D01*
X-491930Y-24540958D01*
X-509879Y-24417168D01*
X-536967Y-24340671D01*
X-473938Y-24277642D01*
X-375790Y-24375789D01*
X-312630Y-24427669D01*
X-249996Y-24480225D01*
X-245915Y-24482468D01*
X-242322Y-24485420D01*
X-170347Y-24524013D01*
X-98639Y-24563435D01*
X-94198Y-24564844D01*
X-90102Y-24567040D01*
X-11994Y-24590921D01*
X65998Y-24615661D01*
X70625Y-24616180D01*
X75073Y-24617540D01*
X156349Y-24625795D01*
X237643Y-24634914D01*
X246746Y-24634977D01*
X246910Y-24634994D01*
X247063Y-24634980D01*
X250000Y-24635000D01*
X3962145Y-24635000D01*
X4043501Y-24627023D01*
X4124941Y-24619898D01*
X4129412Y-24618599D01*
X4134042Y-24618145D01*
X4212276Y-24594525D01*
X4290805Y-24571710D01*
X4294938Y-24569568D01*
X4299392Y-24568223D01*
X4371533Y-24529865D01*
X4432188Y-24498425D01*
X4526524Y-24481791D01*
X4523051Y-24462095D01*
X4773192Y-24417988D01*
X4776665Y-24437684D01*
X5514532Y-24307578D01*
X5643304Y-24123673D01*
X5603922Y-23900327D01*
X5558586Y-23783747D01*
X5554798Y-23777801D01*
X5627415Y-23785177D01*
X5708719Y-23794297D01*
X5717823Y-23794360D01*
X5717987Y-23794377D01*
X5718140Y-23794363D01*
X5721076Y-23794383D01*
X8730089Y-23794383D01*
X8811445Y-23786406D01*
X8892885Y-23779281D01*
X8897356Y-23777982D01*
X8901986Y-23777528D01*
X8980220Y-23753908D01*
X9058749Y-23731093D01*
X9062882Y-23728951D01*
X9067336Y-23727606D01*
X9139477Y-23689248D01*
X9212095Y-23651607D01*
X9215735Y-23648701D01*
X9219841Y-23646518D01*
X9283160Y-23594876D01*
X9347080Y-23543849D01*
X9353563Y-23537456D01*
X9353690Y-23537353D01*
X9353787Y-23537236D01*
X9355879Y-23535173D01*
X9704543Y-23186509D01*
X9738263Y-23258821D01*
X9882137Y-23191732D01*
X9805353Y-23402695D01*
X9901199Y-23608239D01*
X9975163Y-23709112D01*
X10067384Y-23793618D01*
X10174320Y-23858508D01*
X10291861Y-23901290D01*
X10415489Y-23920318D01*
X10540453Y-23914861D01*
X10661953Y-23885131D01*
X10775318Y-23832268D01*
X10822181Y-23810415D01*
X10898967Y-23599448D01*
X10561189Y-22875082D01*
X10543063Y-22883534D01*
X10489067Y-22767737D01*
X10791392Y-22767737D01*
X11129169Y-23492103D01*
X11340136Y-23568889D01*
X11387000Y-23547036D01*
X11500364Y-23494173D01*
X11601238Y-23420209D01*
X11685743Y-23327989D01*
X11750634Y-23221053D01*
X11793415Y-23103512D01*
X11812443Y-22979883D01*
X11806987Y-22854919D01*
X11777256Y-22733419D01*
X11681410Y-22527876D01*
X11470443Y-22451090D01*
X10791392Y-22767737D01*
X10489067Y-22767737D01*
X10435718Y-22653331D01*
X10453844Y-22644879D01*
X10445392Y-22626753D01*
X10675595Y-22519408D01*
X10684047Y-22537534D01*
X11363098Y-22220888D01*
X11439883Y-22009921D01*
X11344037Y-21804377D01*
X11270073Y-21703504D01*
X11177852Y-21618998D01*
X11123135Y-21585795D01*
X11132331Y-21556804D01*
X11132850Y-21552176D01*
X11134210Y-21547728D01*
X11142469Y-21466418D01*
X11143502Y-21457214D01*
X11315081Y-21377205D01*
X13507795Y-21377205D01*
X13590706Y-21369075D01*
X13673627Y-21361529D01*
X13676604Y-21360653D01*
X13679692Y-21360350D01*
X13759373Y-21336293D01*
X13839322Y-21312763D01*
X13842075Y-21311324D01*
X13845042Y-21310428D01*
X13918572Y-21271331D01*
X13992388Y-21232741D01*
X13994804Y-21230798D01*
X13997547Y-21229340D01*
X14062128Y-21176669D01*
X14126997Y-21124513D01*
X14128991Y-21122136D01*
X14131396Y-21120175D01*
X14183353Y-21057370D01*
X15177062Y-20063661D01*
X15231567Y-20128618D01*
X15353176Y-20026576D01*
X15333609Y-20250226D01*
X15479388Y-20423959D01*
X15576939Y-20502252D01*
X15687889Y-20560010D01*
X15807977Y-20595012D01*
X15932585Y-20605914D01*
X16056926Y-20592296D01*
X16176220Y-20554683D01*
X16285885Y-20494518D01*
X16381705Y-20414116D01*
X16421315Y-20380879D01*
X16440882Y-20157227D01*
X15927134Y-19544966D01*
X15911814Y-19557821D01*
X15807371Y-19433352D01*
X15859024Y-19381698D01*
X16121710Y-19381698D01*
X16635458Y-19993959D01*
X16859110Y-20013526D01*
X16898720Y-19980288D01*
X16994540Y-19899886D01*
X17072833Y-19802334D01*
X17130591Y-19691384D01*
X17165593Y-19571297D01*
X17176495Y-19446689D01*
X17162877Y-19322348D01*
X17125264Y-19203054D01*
X17065100Y-19093389D01*
X16919321Y-18919656D01*
X16695668Y-18900089D01*
X16121710Y-19381698D01*
X15859024Y-19381698D01*
X16010744Y-19229978D01*
X16062646Y-19166791D01*
X16115180Y-19104184D01*
X16117421Y-19100107D01*
X16120376Y-19096510D01*
X16158998Y-19024480D01*
X16164759Y-19014002D01*
X16532400Y-18705514D01*
X16551967Y-18481862D01*
X16406188Y-18308129D01*
X16308637Y-18229836D01*
X16269955Y-18209699D01*
X16269955Y-17901081D01*
X16390772Y-17799703D01*
X16463052Y-17728527D01*
X16560297Y-17577593D01*
X16611643Y-17405542D01*
X16612863Y-17246979D01*
X18724841Y-15135000D01*
X21350000Y-15135000D01*
X21431356Y-15127023D01*
X21512796Y-15119898D01*
X21517267Y-15118599D01*
X21521897Y-15118145D01*
X21600131Y-15094525D01*
X21678660Y-15071710D01*
X21682793Y-15069568D01*
X21687247Y-15068223D01*
X21759388Y-15029865D01*
X21832006Y-14992224D01*
X21835646Y-14989318D01*
X21839752Y-14987135D01*
X21903071Y-14935493D01*
X21966991Y-14884466D01*
X21973474Y-14878073D01*
X21973601Y-14877970D01*
X21973698Y-14877853D01*
X21975790Y-14875790D01*
X22425789Y-14425790D01*
X22477691Y-14362603D01*
X22530225Y-14299996D01*
X22532466Y-14295919D01*
X22535421Y-14292322D01*
X22574043Y-14220292D01*
X22613435Y-14148639D01*
X22614843Y-14144200D01*
X22617041Y-14140101D01*
X22640927Y-14061974D01*
X22665661Y-13984002D01*
X22666180Y-13979374D01*
X22667540Y-13974926D01*
X22671283Y-13938072D01*
X22800000Y-13938072D01*
X22901121Y-13930008D01*
X23072634Y-13876894D01*
X23222559Y-13778100D01*
X23339025Y-13641450D01*
X23412810Y-13477763D01*
X23438072Y-13300000D01*
X23438072Y-11700000D01*
X23430008Y-11598879D01*
X23376894Y-11427366D01*
X23278100Y-11277441D01*
X23141450Y-11160975D01*
X22977763Y-11087190D01*
X22800000Y-11061928D01*
X22685000Y-11061928D01*
X22685000Y-7800000D01*
X22677027Y-7718685D01*
X22669898Y-7637204D01*
X22668599Y-7632733D01*
X22668145Y-7628103D01*
X22644539Y-7549915D01*
X22621711Y-7471340D01*
X22619566Y-7467203D01*
X22618223Y-7462753D01*
X22579873Y-7390627D01*
X22542224Y-7317995D01*
X22539320Y-7314357D01*
X22537135Y-7310248D01*
X22485500Y-7246938D01*
X22434467Y-7183009D01*
X22428076Y-7176528D01*
X22427970Y-7176399D01*
X22427850Y-7176300D01*
X22425790Y-7174211D01*
X22035000Y-6783421D01*
X22035000Y-6542815D01*
X22011480Y-6302936D01*
X21941814Y-6072193D01*
X21828658Y-5859376D01*
X21676320Y-5672592D01*
X21490603Y-5518954D01*
X21278582Y-5404314D01*
X21048331Y-5333040D01*
X20808622Y-5307845D01*
X20568584Y-5329690D01*
X20337361Y-5397743D01*
X20123759Y-5509411D01*
X19935916Y-5660441D01*
X19805853Y-5815444D01*
X19795009Y-5797724D01*
X19629128Y-5618062D01*
X19431384Y-5474214D01*
X19209377Y-5371708D01*
X19117609Y-5356538D01*
X18927000Y-5481269D01*
X18927000Y-6673000D01*
X18947000Y-6673000D01*
X18947000Y-6927000D01*
X18927000Y-6927000D01*
X18927000Y-8118731D01*
X19117609Y-8243462D01*
X19209377Y-8228292D01*
X19431384Y-8125786D01*
X19629128Y-7981938D01*
X19795009Y-7802276D01*
X19806419Y-7783632D01*
X19923680Y-7927408D01*
X20109397Y-8081046D01*
X20321418Y-8195686D01*
X20551669Y-8266960D01*
X20791378Y-8292155D01*
X20915000Y-8280905D01*
X20915000Y-11061928D01*
X20800000Y-11061928D01*
X20698879Y-11069992D01*
X20527366Y-11123106D01*
X20377441Y-11221900D01*
X20260975Y-11358550D01*
X20187190Y-11522237D01*
X20161928Y-11700000D01*
X20161928Y-13300000D01*
X20167111Y-13365000D01*
X19434511Y-13365000D01*
X19435000Y-13362542D01*
X19435000Y-12785750D01*
X19276250Y-12627000D01*
X17927000Y-12627000D01*
X17927000Y-12647000D01*
X17673000Y-12647000D01*
X17673000Y-12627000D01*
X16323750Y-12627000D01*
X16165000Y-12785750D01*
X16165000Y-13362542D01*
X16189403Y-13485223D01*
X16237270Y-13600785D01*
X16306763Y-13704789D01*
X16395211Y-13793237D01*
X16499215Y-13862730D01*
X16614777Y-13910597D01*
X16737458Y-13935000D01*
X17421683Y-13935000D01*
X15367222Y-15989460D01*
X15317205Y-15989075D01*
X15144385Y-16037769D01*
X14991973Y-16132681D01*
X14379138Y-16646911D01*
X14306858Y-16718087D01*
X14209613Y-16869021D01*
X14158267Y-17041072D01*
X14156886Y-17220615D01*
X14164775Y-17248613D01*
X14041263Y-17211753D01*
X13861720Y-17210372D01*
X13688900Y-17259066D01*
X13536488Y-17353978D01*
X13291433Y-17559604D01*
X12561183Y-17559604D01*
X6789652Y-11788072D01*
X7500000Y-11788072D01*
X7601121Y-11780008D01*
X7772634Y-11726894D01*
X7922559Y-11628100D01*
X8039025Y-11491450D01*
X8101498Y-11352858D01*
X8123106Y-11422634D01*
X8221900Y-11572559D01*
X8358550Y-11689025D01*
X8522237Y-11762810D01*
X8700000Y-11788072D01*
X10200000Y-11788072D01*
X10301121Y-11780008D01*
X10472634Y-11726894D01*
X10608357Y-11637458D01*
X16165000Y-11637458D01*
X16165000Y-12214250D01*
X16323750Y-12373000D01*
X17673000Y-12373000D01*
X17673000Y-11223750D01*
X17927000Y-11223750D01*
X17927000Y-12373000D01*
X19276250Y-12373000D01*
X19435000Y-12214250D01*
X19435000Y-11637458D01*
X19410597Y-11514777D01*
X19362730Y-11399215D01*
X19293237Y-11295211D01*
X19204789Y-11206763D01*
X19100785Y-11137270D01*
X18985223Y-11089403D01*
X18862542Y-11065000D01*
X18085750Y-11065000D01*
X17927000Y-11223750D01*
X17673000Y-11223750D01*
X17514250Y-11065000D01*
X16737458Y-11065000D01*
X16614777Y-11089403D01*
X16499215Y-11137270D01*
X16395211Y-11206763D01*
X16306763Y-11295211D01*
X16237270Y-11399215D01*
X16189403Y-11514777D01*
X16165000Y-11637458D01*
X10608357Y-11637458D01*
X10622559Y-11628100D01*
X10739025Y-11491450D01*
X10787009Y-11385000D01*
X13350000Y-11385000D01*
X13431356Y-11377023D01*
X13512796Y-11369898D01*
X13517267Y-11368599D01*
X13521897Y-11368145D01*
X13600131Y-11344525D01*
X13678660Y-11321710D01*
X13682793Y-11319568D01*
X13687247Y-11318223D01*
X13759388Y-11279865D01*
X13832006Y-11242224D01*
X13835646Y-11239318D01*
X13839752Y-11237135D01*
X13903071Y-11185493D01*
X13966991Y-11134466D01*
X13973474Y-11128073D01*
X13973601Y-11127970D01*
X13973698Y-11127853D01*
X13975790Y-11125790D01*
X16811231Y-8290348D01*
X17031416Y-8270310D01*
X17262639Y-8202257D01*
X17476241Y-8090589D01*
X17664084Y-7939559D01*
X17794147Y-7784556D01*
X17804991Y-7802276D01*
X17970872Y-7981938D01*
X18168616Y-8125786D01*
X18390623Y-8228292D01*
X18482391Y-8243462D01*
X18673000Y-8118731D01*
X18673000Y-6927000D01*
X18653000Y-6927000D01*
X18653000Y-6673000D01*
X18673000Y-6673000D01*
X18673000Y-5481269D01*
X18482391Y-5356538D01*
X18390623Y-5371708D01*
X18168616Y-5474214D01*
X17970872Y-5618062D01*
X17804991Y-5797724D01*
X17793581Y-5816368D01*
X17676320Y-5672592D01*
X17490603Y-5518954D01*
X17278582Y-5404314D01*
X17048331Y-5333040D01*
X16808622Y-5307845D01*
X16568584Y-5329690D01*
X16337361Y-5397743D01*
X16123759Y-5509411D01*
X15955412Y-5644766D01*
X15878100Y-5527441D01*
X15741450Y-5410975D01*
X15577763Y-5337190D01*
X15400000Y-5311928D01*
X14200000Y-5311928D01*
X14098879Y-5319992D01*
X13927366Y-5373106D01*
X13777441Y-5471900D01*
X13660975Y-5608550D01*
X13587190Y-5772237D01*
X13561928Y-5950000D01*
X13561928Y-6786492D01*
X13483420Y-6865000D01*
X6288548Y-6865000D01*
X6276894Y-6827366D01*
X6178100Y-6677441D01*
X6041450Y-6560975D01*
X5877763Y-6487190D01*
X5700000Y-6461928D01*
X4200000Y-6461928D01*
X4098879Y-6469992D01*
X3927366Y-6523106D01*
X3777441Y-6621900D01*
X3660975Y-6758550D01*
X3598502Y-6897142D01*
X3576894Y-6827366D01*
X3478100Y-6677441D01*
X3341450Y-6560975D01*
X3177763Y-6487190D01*
X3000000Y-6461928D01*
X1719346Y-6461928D01*
X2535047Y-6209427D01*
X2594396Y-6184479D01*
X2654035Y-6160383D01*
X2662783Y-6155732D01*
X2662787Y-6155730D01*
X2662790Y-6155728D01*
X3692850Y-5598775D01*
X3746159Y-5562818D01*
X3800046Y-5527555D01*
X3807728Y-5521289D01*
X4709995Y-4774869D01*
X4755314Y-4729233D01*
X4801316Y-4684184D01*
X4807635Y-4676546D01*
X5547738Y-3769090D01*
X5583356Y-3715481D01*
X5619705Y-3662394D01*
X5624420Y-3653674D01*
X6174169Y-2619747D01*
X6198686Y-2560265D01*
X6224042Y-2501105D01*
X6226973Y-2491635D01*
X6565428Y-1370618D01*
X6577923Y-1307513D01*
X6591306Y-1244549D01*
X6592342Y-1234690D01*
X6643788Y-710000D01*
X36216980Y-710000D01*
X35595524Y-7048100D01*
X33548627Y-13827746D01*
X30223876Y-20080694D01*
X25747903Y-25568779D01*
X20291206Y-30082952D01*
X14061625Y-33451274D01*
X7296433Y-35545450D01*
X253325Y-36285710D01*
X-6799431Y-35643859D01*
X-13593196Y-33644346D01*
X-19869208Y-30363326D01*
X-25388401Y-25925781D01*
X-29940559Y-20500729D01*
X-33352293Y-14294809D01*
X-35493646Y-7544408D01*
X-35758911Y-5179517D01*
X-27937806Y-5179517D01*
X-27862224Y-5591333D01*
X-27708092Y-5980626D01*
X-27481281Y-6332567D01*
X-27190431Y-6633751D01*
X-26846620Y-6872706D01*
X-26462943Y-7040330D01*
X-26054016Y-7130239D01*
X-25635412Y-7139007D01*
X-25223078Y-7066302D01*
X-24832719Y-6914891D01*
X-24479203Y-6690543D01*
X-24175996Y-6401803D01*
X-23934646Y-6059668D01*
X-23764348Y-5677171D01*
X-23671587Y-5268881D01*
X-23664909Y-4790652D01*
X-23746234Y-4379931D01*
X-23905786Y-3992829D01*
X-24137488Y-3644089D01*
X-24432515Y-3346995D01*
X-24779629Y-3112864D01*
X-25165609Y-2950613D01*
X-25575752Y-2866422D01*
X-25994437Y-2863499D01*
X-26405716Y-2941955D01*
X-26793923Y-3098801D01*
X-27144272Y-3328063D01*
X-27443418Y-3621008D01*
X-27679967Y-3966479D01*
X-27844909Y-4351317D01*
X-27931960Y-4760862D01*
X-27937806Y-5179517D01*
X-35758911Y-5179517D01*
X-36260248Y-710000D01*
X-6643625Y-710000D01*
X-6574461Y-1326613D01*
X-6574461Y-1326613D01*
G37*
X-6574461Y-1326613D02*
X-6561094Y-1389500D01*
X-6548583Y-1452683D01*
X-6545651Y-1462153D01*
X-6191577Y-2578334D01*
X-6166247Y-2637433D01*
X-6141705Y-2696976D01*
X-6136990Y-2705696D01*
X-5572859Y-3731847D01*
X-5536510Y-3784934D01*
X-5500892Y-3838543D01*
X-5494573Y-3846181D01*
X-4741871Y-4743215D01*
X-4695908Y-4788226D01*
X-4650551Y-4833901D01*
X-4642869Y-4840166D01*
X-3730268Y-5573916D01*
X-3676454Y-5609131D01*
X-3623072Y-5645137D01*
X-3614319Y-5649791D01*
X-2576580Y-6192308D01*
X-2516922Y-6216411D01*
X-2457593Y-6241351D01*
X-2448103Y-6244216D01*
X-1324751Y-6574837D01*
X-1261547Y-6586894D01*
X-1198503Y-6599835D01*
X-1188639Y-6600802D01*
X-1188637Y-6600802D01*
X-22461Y-6706932D01*
X41855Y-6706483D01*
X106238Y-6706932D01*
X116104Y-6705965D01*
X1108094Y-6601701D01*
X1077441Y-6621900D01*
X960975Y-6758550D01*
X912991Y-6865000D01*
X-440000Y-6865000D01*
X-521401Y-6872982D01*
X-602797Y-6880103D01*
X-607264Y-6881401D01*
X-611897Y-6881855D01*
X-690148Y-6905480D01*
X-768661Y-6928290D01*
X-772795Y-6930433D01*
X-777247Y-6931777D01*
X-849370Y-6970125D01*
X-922006Y-7007776D01*
X-925646Y-7010682D01*
X-929752Y-7012865D01*
X-993071Y-7064507D01*
X-1056991Y-7115534D01*
X-1063470Y-7121923D01*
X-1063601Y-7122030D01*
X-1063701Y-7122151D01*
X-1065790Y-7124211D01*
X-4604678Y-10663099D01*
X-4691121Y-10669992D01*
X-4862634Y-10723106D01*
X-4921933Y-10762181D01*
X-4959215Y-10737270D01*
X-5074777Y-10689403D01*
X-5197458Y-10665000D01*
X-5274250Y-10665000D01*
X-5433000Y-10823750D01*
X-5433000Y-11923000D01*
X-5413000Y-11923000D01*
X-5413000Y-12177000D01*
X-5433000Y-12177000D01*
X-5433000Y-12197000D01*
X-5687000Y-12197000D01*
X-5687000Y-12177000D01*
X-6336250Y-12177000D01*
X-6495000Y-12335750D01*
X-6495000Y-12862542D01*
X-6470597Y-12985223D01*
X-6422730Y-13100785D01*
X-6413232Y-13115000D01*
X-7565000Y-13115000D01*
X-7565000Y-12785750D01*
X-7723750Y-12627000D01*
X-8873000Y-12627000D01*
X-8873000Y-12647000D01*
X-9127000Y-12647000D01*
X-9127000Y-12627000D01*
X-10276250Y-12627000D01*
X-10435000Y-12785750D01*
X-10435000Y-13115000D01*
X-10865000Y-13115000D01*
X-10865000Y-11437458D01*
X-10435000Y-11437458D01*
X-10435000Y-12214250D01*
X-10276250Y-12373000D01*
X-9127000Y-12373000D01*
X-9127000Y-11023750D01*
X-8873000Y-11023750D01*
X-8873000Y-12373000D01*
X-7723750Y-12373000D01*
X-7565000Y-12214250D01*
X-7565000Y-11437458D01*
X-7589403Y-11314777D01*
X-7621429Y-11237458D01*
X-6495000Y-11237458D01*
X-6495000Y-11764250D01*
X-6336250Y-11923000D01*
X-5687000Y-11923000D01*
X-5687000Y-10823750D01*
X-5845750Y-10665000D01*
X-5922542Y-10665000D01*
X-6045223Y-10689403D01*
X-6160785Y-10737270D01*
X-6264789Y-10806763D01*
X-6353237Y-10895211D01*
X-6422730Y-10999215D01*
X-6470597Y-11114777D01*
X-6495000Y-11237458D01*
X-7621429Y-11237458D01*
X-7637270Y-11199215D01*
X-7706763Y-11095211D01*
X-7795211Y-11006763D01*
X-7899215Y-10937270D01*
X-8014777Y-10889403D01*
X-8137458Y-10865000D01*
X-8714250Y-10865000D01*
X-8873000Y-11023750D01*
X-9127000Y-11023750D01*
X-9285750Y-10865000D01*
X-9862542Y-10865000D01*
X-9985223Y-10889403D01*
X-10100785Y-10937270D01*
X-10204789Y-11006763D01*
X-10293237Y-11095211D01*
X-10362730Y-11199215D01*
X-10410597Y-11314777D01*
X-10435000Y-11437458D01*
X-10865000Y-11437458D01*
X-10865000Y-10549690D01*
X-10872973Y-10468375D01*
X-10880102Y-10386894D01*
X-10881401Y-10382423D01*
X-10881855Y-10377793D01*
X-10905461Y-10299605D01*
X-10928289Y-10221030D01*
X-10930434Y-10216893D01*
X-10931777Y-10212443D01*
X-10970127Y-10140317D01*
X-11007776Y-10067685D01*
X-11010680Y-10064047D01*
X-11012865Y-10059938D01*
X-11064500Y-9996628D01*
X-11115533Y-9932699D01*
X-11121924Y-9926218D01*
X-11122030Y-9926089D01*
X-11122150Y-9925990D01*
X-11124210Y-9923901D01*
X-13862055Y-7186055D01*
X-13925271Y-7134129D01*
X-13987849Y-7081620D01*
X-13991926Y-7079379D01*
X-13995523Y-7076424D01*
X-14067553Y-7037802D01*
X-14139206Y-6998410D01*
X-14143645Y-6997002D01*
X-14147744Y-6994804D01*
X-14225871Y-6970918D01*
X-14303843Y-6946184D01*
X-14308471Y-6945665D01*
X-14312919Y-6944305D01*
X-14394184Y-6936051D01*
X-14475488Y-6926931D01*
X-14484592Y-6926868D01*
X-14484756Y-6926851D01*
X-14484909Y-6926865D01*
X-14487845Y-6926845D01*
X-15735847Y-6926845D01*
X-15817207Y-6934823D01*
X-15898643Y-6941947D01*
X-15903114Y-6943246D01*
X-15907744Y-6943700D01*
X-15985932Y-6967306D01*
X-16064507Y-6990134D01*
X-16068644Y-6992279D01*
X-16073094Y-6993622D01*
X-16145220Y-7031972D01*
X-16217852Y-7069621D01*
X-16221490Y-7072525D01*
X-16225599Y-7074710D01*
X-16288909Y-7126345D01*
X-16352838Y-7177378D01*
X-16359319Y-7183769D01*
X-16359448Y-7183875D01*
X-16359547Y-7183995D01*
X-16361636Y-7186055D01*
X-19329738Y-10154156D01*
X-19381664Y-10217372D01*
X-19434173Y-10279950D01*
X-19436414Y-10284027D01*
X-19439369Y-10287624D01*
X-19477991Y-10359654D01*
X-19517383Y-10431307D01*
X-19518791Y-10435746D01*
X-19520989Y-10439845D01*
X-19544875Y-10517972D01*
X-19569609Y-10595944D01*
X-19570128Y-10600572D01*
X-19571488Y-10605020D01*
X-19579742Y-10686285D01*
X-19588862Y-10767589D01*
X-19588925Y-10776693D01*
X-19588942Y-10776857D01*
X-19588928Y-10777010D01*
X-19588948Y-10779946D01*
X-19588948Y-11509693D01*
X-19751727Y-11641508D01*
X-19937244Y-11864173D01*
X-20075979Y-12118631D01*
X-20162647Y-12395190D01*
X-20193948Y-12683316D01*
X-20168688Y-12972035D01*
X-20141292Y-13066334D01*
X-20278094Y-13031669D01*
X-20568815Y-13016591D01*
X-20856892Y-13058520D01*
X-21131253Y-13155844D01*
X-21266918Y-13228363D01*
X-21343688Y-13476707D01*
X-20500000Y-14320395D01*
X-20485857Y-14306253D01*
X-20306252Y-14485858D01*
X-20320395Y-14500000D01*
X-20306252Y-14514143D01*
X-20485857Y-14693748D01*
X-20500000Y-14679605D01*
X-20514142Y-14693748D01*
X-20693747Y-14514143D01*
X-20679605Y-14500000D01*
X-21523293Y-13656312D01*
X-21771637Y-13733082D01*
X-21844156Y-13868747D01*
X-21941480Y-14143108D01*
X-21983409Y-14431185D01*
X-21968331Y-14721906D01*
X-21933895Y-14857805D01*
X-22007611Y-14835268D01*
X-22295948Y-14805979D01*
X-22584484Y-14833254D01*
X-22862225Y-14916052D01*
X-23118596Y-15051221D01*
X-23343830Y-15233611D01*
X-23491667Y-15411051D01*
X-24134545Y-15411051D01*
X-24215946Y-15419033D01*
X-24297342Y-15426154D01*
X-24301809Y-15427452D01*
X-24306442Y-15427906D01*
X-24384693Y-15451531D01*
X-24463206Y-15474341D01*
X-24467340Y-15476484D01*
X-24471792Y-15477828D01*
X-24543915Y-15516176D01*
X-24616551Y-15553827D01*
X-24620191Y-15556733D01*
X-24624297Y-15558916D01*
X-24687616Y-15610558D01*
X-24751536Y-15661585D01*
X-24758015Y-15667974D01*
X-24758146Y-15668081D01*
X-24758246Y-15668202D01*
X-24760335Y-15670262D01*
X-26369984Y-17279910D01*
X-26421910Y-17343126D01*
X-26474419Y-17405704D01*
X-26476660Y-17409781D01*
X-26479615Y-17413378D01*
X-26518237Y-17485408D01*
X-26557629Y-17557061D01*
X-26559037Y-17561500D01*
X-26561235Y-17565599D01*
X-26585121Y-17643726D01*
X-26609855Y-17721698D01*
X-26610374Y-17726326D01*
X-26611734Y-17730774D01*
X-26619988Y-17812039D01*
X-26629108Y-17893343D01*
X-26629171Y-17902447D01*
X-26629188Y-17902611D01*
X-26629174Y-17902764D01*
X-26629194Y-17905700D01*
X-26629194Y-19505806D01*
X-26621217Y-19587162D01*
X-26614092Y-19668602D01*
X-26612793Y-19673073D01*
X-26612339Y-19677703D01*
X-26588719Y-19755937D01*
X-26565904Y-19834466D01*
X-26563762Y-19838599D01*
X-26562417Y-19843053D01*
X-26524059Y-19915194D01*
X-26486418Y-19987812D01*
X-26483512Y-19991452D01*
X-26481329Y-19995558D01*
X-26429687Y-20058877D01*
X-26378660Y-20122797D01*
X-26372267Y-20129280D01*
X-26372164Y-20129407D01*
X-26372047Y-20129504D01*
X-26369984Y-20131596D01*
X-20125789Y-26375790D01*
X-20062598Y-26427696D01*
X-19999996Y-26480225D01*
X-19995919Y-26482466D01*
X-19992322Y-26485421D01*
X-19920292Y-26524043D01*
X-19848639Y-26563435D01*
X-19844200Y-26564843D01*
X-19840101Y-26567041D01*
X-19761974Y-26590927D01*
X-19684002Y-26615661D01*
X-19679374Y-26616180D01*
X-19674926Y-26617540D01*
X-19593661Y-26625794D01*
X-19512357Y-26634914D01*
X-19503253Y-26634977D01*
X-19503089Y-26634994D01*
X-19502936Y-26634980D01*
X-19500000Y-26635000D01*
X-12000000Y-26635000D01*
X-11918644Y-26627023D01*
X-11837204Y-26619898D01*
X-11832733Y-26618599D01*
X-11828103Y-26618145D01*
X-11749869Y-26594525D01*
X-11671340Y-26571710D01*
X-11667207Y-26569568D01*
X-11662753Y-26568223D01*
X-11590612Y-26529865D01*
X-11517994Y-26492224D01*
X-11514354Y-26489318D01*
X-11510248Y-26487135D01*
X-11446929Y-26435493D01*
X-11383009Y-26384466D01*
X-11376526Y-26378073D01*
X-11376399Y-26377970D01*
X-11376302Y-26377853D01*
X-11374210Y-26375790D01*
X-10454723Y-25456302D01*
X-2612742Y-25456302D01*
X-2594793Y-25580092D01*
X-2553040Y-25698001D01*
X-2489085Y-25805499D01*
X-2405387Y-25898455D01*
X-2305163Y-25973296D01*
X-2192264Y-26027145D01*
X-2071029Y-26057935D01*
X-1946116Y-26064482D01*
X-1894479Y-26067188D01*
X-1742402Y-25930257D01*
X-1473986Y-25930257D01*
X-1323762Y-26097098D01*
X-1272125Y-26099804D01*
X-1147212Y-26106351D01*
X-1023422Y-26088402D01*
X-905514Y-26046648D01*
X-798015Y-25982694D01*
X-705059Y-25898996D01*
X-630218Y-25798771D01*
X-576369Y-25685873D01*
X-545579Y-25564637D01*
X-533709Y-25338156D01*
X-683934Y-25171315D01*
X-1432157Y-25132103D01*
X-1473986Y-25930257D01*
X-1742402Y-25930257D01*
X-1727638Y-25916964D01*
X-1685809Y-25118809D01*
X-2434032Y-25079597D01*
X-2600873Y-25229821D01*
X-2612742Y-25456302D01*
X-10454723Y-25456302D01*
X-10044364Y-25045943D01*
X3703992Y-25045943D01*
X3743374Y-25269289D01*
X3788710Y-25385869D01*
X3855916Y-25491363D01*
X3942414Y-25581720D01*
X4044877Y-25653465D01*
X4159368Y-25703842D01*
X4281487Y-25730915D01*
X4406541Y-25733644D01*
X4529725Y-25711923D01*
X4580647Y-25702944D01*
X4709419Y-25519039D01*
X4570631Y-24731932D01*
X3832764Y-24862038D01*
X3703992Y-25045943D01*
X-10044364Y-25045943D01*
X-8684276Y-23685855D01*
X-8567468Y-23721566D01*
X-8765693Y-23826964D01*
X-8832000Y-24043847D01*
X-8844532Y-24168302D01*
X-8832544Y-24292809D01*
X-8796495Y-24412587D01*
X-8737771Y-24523029D01*
X-8658630Y-24619894D01*
X-8562112Y-24699456D01*
X-8451926Y-24758661D01*
X-8332308Y-24795232D01*
X-8282859Y-24810350D01*
X-8224299Y-24779213D01*
X-7841731Y-24779213D01*
X-7736331Y-24977441D01*
X-7686883Y-24992559D01*
X-7567264Y-25029130D01*
X-7442809Y-25041662D01*
X-7318302Y-25029673D01*
X-7198524Y-24993625D01*
X-7088081Y-24934901D01*
X-6991217Y-24855759D01*
X-6911655Y-24759242D01*
X-6852449Y-24649056D01*
X-6786142Y-24432174D01*
X-6891541Y-24233946D01*
X-7608053Y-24014887D01*
X-7841731Y-24779213D01*
X-8224299Y-24779213D01*
X-8084632Y-24704951D01*
X-7850954Y-23940624D01*
X-7870080Y-23934777D01*
X-7795817Y-23691875D01*
X-7776691Y-23697723D01*
X-7770844Y-23678597D01*
X-7527942Y-23752860D01*
X-7533790Y-23771986D01*
X-6817279Y-23991045D01*
X-6619051Y-23885646D01*
X-6552744Y-23668763D01*
X-6540212Y-23544308D01*
X-6540760Y-23538615D01*
X-6478133Y-23533136D01*
X-6473662Y-23531837D01*
X-6469032Y-23531383D01*
X-6390798Y-23507763D01*
X-6312269Y-23484948D01*
X-6308136Y-23482806D01*
X-6303682Y-23481461D01*
X-6231541Y-23443103D01*
X-6229909Y-23442257D01*
X-5046377Y-24625789D01*
X-4983217Y-24677669D01*
X-4920583Y-24730225D01*
X-4916502Y-24732468D01*
X-4912909Y-24735420D01*
X-4840934Y-24774013D01*
X-4769226Y-24813435D01*
X-4764785Y-24814844D01*
X-4760689Y-24817040D01*
X-4682593Y-24840917D01*
X-4604589Y-24865661D01*
X-4599961Y-24866180D01*
X-4595513Y-24867540D01*
X-4514243Y-24875795D01*
X-4432944Y-24884914D01*
X-4423841Y-24884977D01*
X-4423677Y-24884994D01*
X-4423524Y-24884980D01*
X-4420587Y-24885000D01*
X-1447876Y-24885000D01*
X-1394244Y-24879741D01*
X-670640Y-24917663D01*
X-503799Y-24767439D01*
X-499627Y-24687825D01*
X4820772Y-24687825D01*
X4959560Y-25474933D01*
X5143465Y-25603704D01*
X5194388Y-25594725D01*
X5317571Y-25573005D01*
X5434151Y-25527669D01*
X5539645Y-25460462D01*
X5630002Y-25373965D01*
X5701747Y-25271502D01*
X5752124Y-25157011D01*
X5779197Y-25034892D01*
X5781926Y-24909837D01*
X5742544Y-24686491D01*
X5558639Y-24557719D01*
X4820772Y-24687825D01*
X-499627Y-24687825D01*
X-491930Y-24540958D01*
X-509879Y-24417168D01*
X-536967Y-24340671D01*
X-473938Y-24277642D01*
X-375790Y-24375789D01*
X-312630Y-24427669D01*
X-249996Y-24480225D01*
X-245915Y-24482468D01*
X-242322Y-24485420D01*
X-170347Y-24524013D01*
X-98639Y-24563435D01*
X-94198Y-24564844D01*
X-90102Y-24567040D01*
X-11994Y-24590921D01*
X65998Y-24615661D01*
X70625Y-24616180D01*
X75073Y-24617540D01*
X156349Y-24625795D01*
X237643Y-24634914D01*
X246746Y-24634977D01*
X246910Y-24634994D01*
X247063Y-24634980D01*
X250000Y-24635000D01*
X3962145Y-24635000D01*
X4043501Y-24627023D01*
X4124941Y-24619898D01*
X4129412Y-24618599D01*
X4134042Y-24618145D01*
X4212276Y-24594525D01*
X4290805Y-24571710D01*
X4294938Y-24569568D01*
X4299392Y-24568223D01*
X4371533Y-24529865D01*
X4432188Y-24498425D01*
X4526524Y-24481791D01*
X4523051Y-24462095D01*
X4773192Y-24417988D01*
X4776665Y-24437684D01*
X5514532Y-24307578D01*
X5643304Y-24123673D01*
X5603922Y-23900327D01*
X5558586Y-23783747D01*
X5554798Y-23777801D01*
X5627415Y-23785177D01*
X5708719Y-23794297D01*
X5717823Y-23794360D01*
X5717987Y-23794377D01*
X5718140Y-23794363D01*
X5721076Y-23794383D01*
X8730089Y-23794383D01*
X8811445Y-23786406D01*
X8892885Y-23779281D01*
X8897356Y-23777982D01*
X8901986Y-23777528D01*
X8980220Y-23753908D01*
X9058749Y-23731093D01*
X9062882Y-23728951D01*
X9067336Y-23727606D01*
X9139477Y-23689248D01*
X9212095Y-23651607D01*
X9215735Y-23648701D01*
X9219841Y-23646518D01*
X9283160Y-23594876D01*
X9347080Y-23543849D01*
X9353563Y-23537456D01*
X9353690Y-23537353D01*
X9353787Y-23537236D01*
X9355879Y-23535173D01*
X9704543Y-23186509D01*
X9738263Y-23258821D01*
X9882137Y-23191732D01*
X9805353Y-23402695D01*
X9901199Y-23608239D01*
X9975163Y-23709112D01*
X10067384Y-23793618D01*
X10174320Y-23858508D01*
X10291861Y-23901290D01*
X10415489Y-23920318D01*
X10540453Y-23914861D01*
X10661953Y-23885131D01*
X10775318Y-23832268D01*
X10822181Y-23810415D01*
X10898967Y-23599448D01*
X10561189Y-22875082D01*
X10543063Y-22883534D01*
X10489067Y-22767737D01*
X10791392Y-22767737D01*
X11129169Y-23492103D01*
X11340136Y-23568889D01*
X11387000Y-23547036D01*
X11500364Y-23494173D01*
X11601238Y-23420209D01*
X11685743Y-23327989D01*
X11750634Y-23221053D01*
X11793415Y-23103512D01*
X11812443Y-22979883D01*
X11806987Y-22854919D01*
X11777256Y-22733419D01*
X11681410Y-22527876D01*
X11470443Y-22451090D01*
X10791392Y-22767737D01*
X10489067Y-22767737D01*
X10435718Y-22653331D01*
X10453844Y-22644879D01*
X10445392Y-22626753D01*
X10675595Y-22519408D01*
X10684047Y-22537534D01*
X11363098Y-22220888D01*
X11439883Y-22009921D01*
X11344037Y-21804377D01*
X11270073Y-21703504D01*
X11177852Y-21618998D01*
X11123135Y-21585795D01*
X11132331Y-21556804D01*
X11132850Y-21552176D01*
X11134210Y-21547728D01*
X11142469Y-21466418D01*
X11143502Y-21457214D01*
X11315081Y-21377205D01*
X13507795Y-21377205D01*
X13590706Y-21369075D01*
X13673627Y-21361529D01*
X13676604Y-21360653D01*
X13679692Y-21360350D01*
X13759373Y-21336293D01*
X13839322Y-21312763D01*
X13842075Y-21311324D01*
X13845042Y-21310428D01*
X13918572Y-21271331D01*
X13992388Y-21232741D01*
X13994804Y-21230798D01*
X13997547Y-21229340D01*
X14062128Y-21176669D01*
X14126997Y-21124513D01*
X14128991Y-21122136D01*
X14131396Y-21120175D01*
X14183353Y-21057370D01*
X15177062Y-20063661D01*
X15231567Y-20128618D01*
X15353176Y-20026576D01*
X15333609Y-20250226D01*
X15479388Y-20423959D01*
X15576939Y-20502252D01*
X15687889Y-20560010D01*
X15807977Y-20595012D01*
X15932585Y-20605914D01*
X16056926Y-20592296D01*
X16176220Y-20554683D01*
X16285885Y-20494518D01*
X16381705Y-20414116D01*
X16421315Y-20380879D01*
X16440882Y-20157227D01*
X15927134Y-19544966D01*
X15911814Y-19557821D01*
X15807371Y-19433352D01*
X15859024Y-19381698D01*
X16121710Y-19381698D01*
X16635458Y-19993959D01*
X16859110Y-20013526D01*
X16898720Y-19980288D01*
X16994540Y-19899886D01*
X17072833Y-19802334D01*
X17130591Y-19691384D01*
X17165593Y-19571297D01*
X17176495Y-19446689D01*
X17162877Y-19322348D01*
X17125264Y-19203054D01*
X17065100Y-19093389D01*
X16919321Y-18919656D01*
X16695668Y-18900089D01*
X16121710Y-19381698D01*
X15859024Y-19381698D01*
X16010744Y-19229978D01*
X16062646Y-19166791D01*
X16115180Y-19104184D01*
X16117421Y-19100107D01*
X16120376Y-19096510D01*
X16158998Y-19024480D01*
X16164759Y-19014002D01*
X16532400Y-18705514D01*
X16551967Y-18481862D01*
X16406188Y-18308129D01*
X16308637Y-18229836D01*
X16269955Y-18209699D01*
X16269955Y-17901081D01*
X16390772Y-17799703D01*
X16463052Y-17728527D01*
X16560297Y-17577593D01*
X16611643Y-17405542D01*
X16612863Y-17246979D01*
X18724841Y-15135000D01*
X21350000Y-15135000D01*
X21431356Y-15127023D01*
X21512796Y-15119898D01*
X21517267Y-15118599D01*
X21521897Y-15118145D01*
X21600131Y-15094525D01*
X21678660Y-15071710D01*
X21682793Y-15069568D01*
X21687247Y-15068223D01*
X21759388Y-15029865D01*
X21832006Y-14992224D01*
X21835646Y-14989318D01*
X21839752Y-14987135D01*
X21903071Y-14935493D01*
X21966991Y-14884466D01*
X21973474Y-14878073D01*
X21973601Y-14877970D01*
X21973698Y-14877853D01*
X21975790Y-14875790D01*
X22425789Y-14425790D01*
X22477691Y-14362603D01*
X22530225Y-14299996D01*
X22532466Y-14295919D01*
X22535421Y-14292322D01*
X22574043Y-14220292D01*
X22613435Y-14148639D01*
X22614843Y-14144200D01*
X22617041Y-14140101D01*
X22640927Y-14061974D01*
X22665661Y-13984002D01*
X22666180Y-13979374D01*
X22667540Y-13974926D01*
X22671283Y-13938072D01*
X22800000Y-13938072D01*
X22901121Y-13930008D01*
X23072634Y-13876894D01*
X23222559Y-13778100D01*
X23339025Y-13641450D01*
X23412810Y-13477763D01*
X23438072Y-13300000D01*
X23438072Y-11700000D01*
X23430008Y-11598879D01*
X23376894Y-11427366D01*
X23278100Y-11277441D01*
X23141450Y-11160975D01*
X22977763Y-11087190D01*
X22800000Y-11061928D01*
X22685000Y-11061928D01*
X22685000Y-7800000D01*
X22677027Y-7718685D01*
X22669898Y-7637204D01*
X22668599Y-7632733D01*
X22668145Y-7628103D01*
X22644539Y-7549915D01*
X22621711Y-7471340D01*
X22619566Y-7467203D01*
X22618223Y-7462753D01*
X22579873Y-7390627D01*
X22542224Y-7317995D01*
X22539320Y-7314357D01*
X22537135Y-7310248D01*
X22485500Y-7246938D01*
X22434467Y-7183009D01*
X22428076Y-7176528D01*
X22427970Y-7176399D01*
X22427850Y-7176300D01*
X22425790Y-7174211D01*
X22035000Y-6783421D01*
X22035000Y-6542815D01*
X22011480Y-6302936D01*
X21941814Y-6072193D01*
X21828658Y-5859376D01*
X21676320Y-5672592D01*
X21490603Y-5518954D01*
X21278582Y-5404314D01*
X21048331Y-5333040D01*
X20808622Y-5307845D01*
X20568584Y-5329690D01*
X20337361Y-5397743D01*
X20123759Y-5509411D01*
X19935916Y-5660441D01*
X19805853Y-5815444D01*
X19795009Y-5797724D01*
X19629128Y-5618062D01*
X19431384Y-5474214D01*
X19209377Y-5371708D01*
X19117609Y-5356538D01*
X18927000Y-5481269D01*
X18927000Y-6673000D01*
X18947000Y-6673000D01*
X18947000Y-6927000D01*
X18927000Y-6927000D01*
X18927000Y-8118731D01*
X19117609Y-8243462D01*
X19209377Y-8228292D01*
X19431384Y-8125786D01*
X19629128Y-7981938D01*
X19795009Y-7802276D01*
X19806419Y-7783632D01*
X19923680Y-7927408D01*
X20109397Y-8081046D01*
X20321418Y-8195686D01*
X20551669Y-8266960D01*
X20791378Y-8292155D01*
X20915000Y-8280905D01*
X20915000Y-11061928D01*
X20800000Y-11061928D01*
X20698879Y-11069992D01*
X20527366Y-11123106D01*
X20377441Y-11221900D01*
X20260975Y-11358550D01*
X20187190Y-11522237D01*
X20161928Y-11700000D01*
X20161928Y-13300000D01*
X20167111Y-13365000D01*
X19434511Y-13365000D01*
X19435000Y-13362542D01*
X19435000Y-12785750D01*
X19276250Y-12627000D01*
X17927000Y-12627000D01*
X17927000Y-12647000D01*
X17673000Y-12647000D01*
X17673000Y-12627000D01*
X16323750Y-12627000D01*
X16165000Y-12785750D01*
X16165000Y-13362542D01*
X16189403Y-13485223D01*
X16237270Y-13600785D01*
X16306763Y-13704789D01*
X16395211Y-13793237D01*
X16499215Y-13862730D01*
X16614777Y-13910597D01*
X16737458Y-13935000D01*
X17421683Y-13935000D01*
X15367222Y-15989460D01*
X15317205Y-15989075D01*
X15144385Y-16037769D01*
X14991973Y-16132681D01*
X14379138Y-16646911D01*
X14306858Y-16718087D01*
X14209613Y-16869021D01*
X14158267Y-17041072D01*
X14156886Y-17220615D01*
X14164775Y-17248613D01*
X14041263Y-17211753D01*
X13861720Y-17210372D01*
X13688900Y-17259066D01*
X13536488Y-17353978D01*
X13291433Y-17559604D01*
X12561183Y-17559604D01*
X6789652Y-11788072D01*
X7500000Y-11788072D01*
X7601121Y-11780008D01*
X7772634Y-11726894D01*
X7922559Y-11628100D01*
X8039025Y-11491450D01*
X8101498Y-11352858D01*
X8123106Y-11422634D01*
X8221900Y-11572559D01*
X8358550Y-11689025D01*
X8522237Y-11762810D01*
X8700000Y-11788072D01*
X10200000Y-11788072D01*
X10301121Y-11780008D01*
X10472634Y-11726894D01*
X10608357Y-11637458D01*
X16165000Y-11637458D01*
X16165000Y-12214250D01*
X16323750Y-12373000D01*
X17673000Y-12373000D01*
X17673000Y-11223750D01*
X17927000Y-11223750D01*
X17927000Y-12373000D01*
X19276250Y-12373000D01*
X19435000Y-12214250D01*
X19435000Y-11637458D01*
X19410597Y-11514777D01*
X19362730Y-11399215D01*
X19293237Y-11295211D01*
X19204789Y-11206763D01*
X19100785Y-11137270D01*
X18985223Y-11089403D01*
X18862542Y-11065000D01*
X18085750Y-11065000D01*
X17927000Y-11223750D01*
X17673000Y-11223750D01*
X17514250Y-11065000D01*
X16737458Y-11065000D01*
X16614777Y-11089403D01*
X16499215Y-11137270D01*
X16395211Y-11206763D01*
X16306763Y-11295211D01*
X16237270Y-11399215D01*
X16189403Y-11514777D01*
X16165000Y-11637458D01*
X10608357Y-11637458D01*
X10622559Y-11628100D01*
X10739025Y-11491450D01*
X10787009Y-11385000D01*
X13350000Y-11385000D01*
X13431356Y-11377023D01*
X13512796Y-11369898D01*
X13517267Y-11368599D01*
X13521897Y-11368145D01*
X13600131Y-11344525D01*
X13678660Y-11321710D01*
X13682793Y-11319568D01*
X13687247Y-11318223D01*
X13759388Y-11279865D01*
X13832006Y-11242224D01*
X13835646Y-11239318D01*
X13839752Y-11237135D01*
X13903071Y-11185493D01*
X13966991Y-11134466D01*
X13973474Y-11128073D01*
X13973601Y-11127970D01*
X13973698Y-11127853D01*
X13975790Y-11125790D01*
X16811231Y-8290348D01*
X17031416Y-8270310D01*
X17262639Y-8202257D01*
X17476241Y-8090589D01*
X17664084Y-7939559D01*
X17794147Y-7784556D01*
X17804991Y-7802276D01*
X17970872Y-7981938D01*
X18168616Y-8125786D01*
X18390623Y-8228292D01*
X18482391Y-8243462D01*
X18673000Y-8118731D01*
X18673000Y-6927000D01*
X18653000Y-6927000D01*
X18653000Y-6673000D01*
X18673000Y-6673000D01*
X18673000Y-5481269D01*
X18482391Y-5356538D01*
X18390623Y-5371708D01*
X18168616Y-5474214D01*
X17970872Y-5618062D01*
X17804991Y-5797724D01*
X17793581Y-5816368D01*
X17676320Y-5672592D01*
X17490603Y-5518954D01*
X17278582Y-5404314D01*
X17048331Y-5333040D01*
X16808622Y-5307845D01*
X16568584Y-5329690D01*
X16337361Y-5397743D01*
X16123759Y-5509411D01*
X15955412Y-5644766D01*
X15878100Y-5527441D01*
X15741450Y-5410975D01*
X15577763Y-5337190D01*
X15400000Y-5311928D01*
X14200000Y-5311928D01*
X14098879Y-5319992D01*
X13927366Y-5373106D01*
X13777441Y-5471900D01*
X13660975Y-5608550D01*
X13587190Y-5772237D01*
X13561928Y-5950000D01*
X13561928Y-6786492D01*
X13483420Y-6865000D01*
X6288548Y-6865000D01*
X6276894Y-6827366D01*
X6178100Y-6677441D01*
X6041450Y-6560975D01*
X5877763Y-6487190D01*
X5700000Y-6461928D01*
X4200000Y-6461928D01*
X4098879Y-6469992D01*
X3927366Y-6523106D01*
X3777441Y-6621900D01*
X3660975Y-6758550D01*
X3598502Y-6897142D01*
X3576894Y-6827366D01*
X3478100Y-6677441D01*
X3341450Y-6560975D01*
X3177763Y-6487190D01*
X3000000Y-6461928D01*
X1719346Y-6461928D01*
X2535047Y-6209427D01*
X2594396Y-6184479D01*
X2654035Y-6160383D01*
X2662783Y-6155732D01*
X2662787Y-6155730D01*
X2662790Y-6155728D01*
X3692850Y-5598775D01*
X3746159Y-5562818D01*
X3800046Y-5527555D01*
X3807728Y-5521289D01*
X4709995Y-4774869D01*
X4755314Y-4729233D01*
X4801316Y-4684184D01*
X4807635Y-4676546D01*
X5547738Y-3769090D01*
X5583356Y-3715481D01*
X5619705Y-3662394D01*
X5624420Y-3653674D01*
X6174169Y-2619747D01*
X6198686Y-2560265D01*
X6224042Y-2501105D01*
X6226973Y-2491635D01*
X6565428Y-1370618D01*
X6577923Y-1307513D01*
X6591306Y-1244549D01*
X6592342Y-1234690D01*
X6643788Y-710000D01*
X36216980Y-710000D01*
X35595524Y-7048100D01*
X33548627Y-13827746D01*
X30223876Y-20080694D01*
X25747903Y-25568779D01*
X20291206Y-30082952D01*
X14061625Y-33451274D01*
X7296433Y-35545450D01*
X253325Y-36285710D01*
X-6799431Y-35643859D01*
X-13593196Y-33644346D01*
X-19869208Y-30363326D01*
X-25388401Y-25925781D01*
X-29940559Y-20500729D01*
X-33352293Y-14294809D01*
X-35493646Y-7544408D01*
X-35758911Y-5179517D01*
X-27937806Y-5179517D01*
X-27862224Y-5591333D01*
X-27708092Y-5980626D01*
X-27481281Y-6332567D01*
X-27190431Y-6633751D01*
X-26846620Y-6872706D01*
X-26462943Y-7040330D01*
X-26054016Y-7130239D01*
X-25635412Y-7139007D01*
X-25223078Y-7066302D01*
X-24832719Y-6914891D01*
X-24479203Y-6690543D01*
X-24175996Y-6401803D01*
X-23934646Y-6059668D01*
X-23764348Y-5677171D01*
X-23671587Y-5268881D01*
X-23664909Y-4790652D01*
X-23746234Y-4379931D01*
X-23905786Y-3992829D01*
X-24137488Y-3644089D01*
X-24432515Y-3346995D01*
X-24779629Y-3112864D01*
X-25165609Y-2950613D01*
X-25575752Y-2866422D01*
X-25994437Y-2863499D01*
X-26405716Y-2941955D01*
X-26793923Y-3098801D01*
X-27144272Y-3328063D01*
X-27443418Y-3621008D01*
X-27679967Y-3966479D01*
X-27844909Y-4351317D01*
X-27931960Y-4760862D01*
X-27937806Y-5179517D01*
X-35758911Y-5179517D01*
X-36260248Y-710000D01*
X-6643625Y-710000D01*
X-6574461Y-1326613D01*
M02*
