G04 #@! TF.FileFunction,Soldermask,Top*
%FSLAX46Y46*%
G04 Gerber Fmt 4.6, Leading zero omitted, Abs format (unit mm)*
G04 Created by KiCad (PCBNEW 4.0.6) date 03/22/18 19:19:45*
%MOMM*%
%LPD*%
G01*
G04 APERTURE LIST*
%ADD10C,0.100000*%
%ADD11R,2.400000X2.000000*%
%ADD12R,2.000000X2.400000*%
%ADD13R,1.600000X2.100000*%
%ADD14O,1.600000X2.100000*%
%ADD15R,1.900000X1.700000*%
%ADD16R,1.000000X1.900000*%
%ADD17C,3.400000*%
%ADD18C,2.100000*%
G04 APERTURE END LIST*
D10*
D11*
X21800000Y-12500000D03*
X17800000Y-12500000D03*
D12*
X-9000000Y-16500000D03*
X-9000000Y-12500000D03*
D13*
X14800000Y-6800000D03*
D14*
X16800000Y-6800000D03*
X18800000Y-6800000D03*
X20800000Y-6800000D03*
D15*
X2250000Y-7750000D03*
X4950000Y-7750000D03*
X6750000Y-10500000D03*
X9450000Y-10500000D03*
D16*
X-5560000Y-17450000D03*
X-4290000Y-17450000D03*
X-3020000Y-17450000D03*
X-1750000Y-17450000D03*
X-480000Y-17450000D03*
X790000Y-17450000D03*
X2060000Y-17450000D03*
X2060000Y-12050000D03*
X790000Y-12050000D03*
X-480000Y-12050000D03*
X-1750000Y-12050000D03*
X-3020000Y-12050000D03*
X-4290000Y-12050000D03*
X-5560000Y-12050000D03*
D17*
X-25800000Y-5000000D03*
X-14900000Y-21700000D03*
D10*
G36*
X14507516Y-17111051D02*
X15426770Y-16339706D01*
X16262394Y-17335563D01*
X15343140Y-18106908D01*
X14507516Y-17111051D01*
X14507516Y-17111051D01*
G37*
G36*
X13052031Y-18332348D02*
X13971285Y-17561003D01*
X14806909Y-18556860D01*
X13887655Y-19328205D01*
X13052031Y-18332348D01*
X13052031Y-18332348D01*
G37*
G36*
X15065349Y-19253788D02*
X15984603Y-18482443D01*
X16820227Y-19478300D01*
X15900973Y-20249645D01*
X15065349Y-19253788D01*
X15065349Y-19253788D01*
G37*
G36*
X9819887Y-20156676D02*
X10907457Y-19649534D01*
X11456861Y-20827734D01*
X10369291Y-21334876D01*
X9819887Y-20156676D01*
X9819887Y-20156676D01*
G37*
G36*
X8097902Y-20959651D02*
X9185472Y-20452509D01*
X9734876Y-21630709D01*
X8647306Y-22137851D01*
X8097902Y-20959651D01*
X8097902Y-20959651D01*
G37*
G36*
X9804131Y-22370779D02*
X10891701Y-21863637D01*
X11441105Y-23041837D01*
X10353535Y-23548979D01*
X9804131Y-22370779D01*
X9804131Y-22370779D01*
G37*
G36*
X4558163Y-21914290D02*
X5739932Y-21705912D01*
X5965675Y-22986162D01*
X4783906Y-23194540D01*
X4558163Y-21914290D01*
X4558163Y-21914290D01*
G37*
G36*
X2687028Y-22244222D02*
X3868797Y-22035844D01*
X4094540Y-23316094D01*
X2912771Y-23524472D01*
X2687028Y-22244222D01*
X2687028Y-22244222D01*
G37*
G36*
X3969892Y-24048872D02*
X5151661Y-23840494D01*
X5377404Y-25120744D01*
X4195635Y-25329122D01*
X3969892Y-24048872D01*
X3969892Y-24048872D01*
G37*
G36*
X-1064125Y-22370579D02*
X134230Y-22433382D01*
X66193Y-23731601D01*
X-1132162Y-23668798D01*
X-1064125Y-22370579D01*
X-1064125Y-22370579D01*
G37*
G36*
X-2961521Y-22271140D02*
X-1763166Y-22333943D01*
X-1831203Y-23632162D01*
X-3029558Y-23569359D01*
X-2961521Y-22271140D01*
X-2961521Y-22271140D01*
G37*
G36*
X-2117495Y-24318119D02*
X-919140Y-24380922D01*
X-987177Y-25679141D01*
X-2185532Y-25616338D01*
X-2117495Y-24318119D01*
X-2117495Y-24318119D01*
G37*
G36*
X-6582880Y-21424427D02*
X-5435315Y-21775273D01*
X-5815398Y-23018469D01*
X-6962963Y-22667623D01*
X-6582880Y-21424427D01*
X-6582880Y-21424427D01*
G37*
G36*
X-8399859Y-20868921D02*
X-7252294Y-21219767D01*
X-7632377Y-22462963D01*
X-8779942Y-22112117D01*
X-8399859Y-20868921D01*
X-8399859Y-20868921D01*
G37*
G36*
X-8076113Y-23059284D02*
X-6928548Y-23410130D01*
X-7308631Y-24653326D01*
X-8456196Y-24302480D01*
X-8076113Y-23059284D01*
X-8076113Y-23059284D01*
G37*
G36*
X-22607178Y-18092102D02*
X-24092102Y-19577026D01*
X-25577026Y-18092102D01*
X-24092102Y-16607178D01*
X-22607178Y-18092102D01*
X-22607178Y-18092102D01*
G37*
D18*
X-22296051Y-16296051D02*
X-22296051Y-16296051D01*
X-20500000Y-14500000D02*
X-20500000Y-14500000D01*
X-18703948Y-12703948D02*
X-18703948Y-12703948D01*
X-16907897Y-10907897D02*
X-16907897Y-10907897D01*
X-15111846Y-9111846D02*
X-15111846Y-9111846D01*
M02*
